<svg width="625" height="95" viewBox="0 0 625 95" version="1.1" xmlns="http://www.w3.org/2000/svg" xmlns:xlink="http://www.w3.org/1999/xlink">
<title>Group 5</title>
<desc>Created using Figma</desc>
<g id="Canvas" transform="translate(-23021 22201)">
<g id="Group 5">
<g id="Group 2.1">
<g id="Group">
<g id="Group">
<g id="Vector">
<use xlink:href="#path0_fill" transform="translate(23027.5 -22125.6)"/>
</g>
<g id="Vector">
<use xlink:href="#path1_fill" transform="translate(23024.5 -22130.1)"/>
</g>
<g id="Vector">
<use xlink:href="#path2_fill" transform="translate(23022.7 -22136.1)"/>
</g>
<g id="Vector">
<use xlink:href="#path3_fill" transform="translate(23021.6 -22144.8)"/>
</g>
<g id="Vector">
<use xlink:href="#path4_fill" transform="translate(23021.9 -22153.7)"/>
</g>
<g id="Vector">
<use xlink:href="#path5_fill" transform="translate(23022.9 -22157.2)"/>
</g>
<g id="Vector">
<use xlink:href="#path6_fill" transform="translate(23024.5 -22163.3)"/>
</g>
<g id="Vector">
<use xlink:href="#path7_fill" transform="translate(23026.1 -22170.1)"/>
</g>
<g id="Vector">
<use xlink:href="#path8_fill" transform="translate(23029 -22173.1)"/>
</g>
<g id="Vector">
<use xlink:href="#path9_fill" transform="translate(23032.2 -22179.5)"/>
</g>
<g id="Vector">
<use xlink:href="#path10_fill" transform="translate(23037.1 -22186.6)"/>
</g>
<g id="Vector">
<use xlink:href="#path11_fill" transform="translate(23046.3 -22192.4)"/>
</g>
<g id="Vector">
<use xlink:href="#path12_fill" transform="translate(23052.8 -22195.3)"/>
</g>
<g id="Vector">
<use xlink:href="#path13_fill" transform="translate(23060.7 -22197.7)"/>
</g>
<g id="Vector">
<use xlink:href="#path14_fill" transform="translate(23071.5 -22199.4)"/>
</g>
<g id="Vector">
<use xlink:href="#path15_fill" transform="translate(23079.2 -22199)"/>
</g>
<g id="Vector">
<use xlink:href="#path16_fill" transform="translate(23087.3 -22197.7)"/>
</g>
<g id="Vector">
<use xlink:href="#path17_fill" transform="translate(23094.7 -22194.9)"/>
</g>
<g id="Vector">
<use xlink:href="#path18_fill" transform="translate(23101.1 -22191.7)"/>
</g>
<g id="Vector">
<use xlink:href="#path19_fill" transform="translate(23106.7 -22187.7)"/>
</g>
<g id="Vector">
<use xlink:href="#path20_fill" transform="translate(23109.9 -22183.4)"/>
</g>
<g id="Vector">
<use xlink:href="#path21_fill" transform="translate(23112.1 -22180.6)"/>
</g>
<g id="Vector">
<use xlink:href="#path22_fill" transform="translate(23117.6 -22172.8)"/>
</g>
<g id="Vector">
<use xlink:href="#path23_fill" transform="translate(23121.7 -22161.9)"/>
</g>
<g id="Vector">
<use xlink:href="#path24_fill" transform="translate(23123.3 -22155.1)"/>
</g>
<g id="Vector">
<use xlink:href="#path25_fill" transform="translate(23124.1 -22148.7)"/>
</g>
<g id="Vector">
<use xlink:href="#path26_fill" transform="translate(23123.6 -22141)"/>
</g>
<g id="Vector">
<use xlink:href="#path27_fill" transform="translate(23123 -22135.3)"/>
</g>
<g id="Vector">
<use xlink:href="#path28_fill" transform="translate(23121.8 -22131.1)"/>
</g>
<g id="Vector">
<use xlink:href="#path29_fill" transform="translate(23119.5 -22125.2)"/>
</g>
</g>
<g id="Vector">
<use xlink:href="#path30_fill" transform="translate(23057.5 -22185)"/>
</g>
<g id="Vector">
<use xlink:href="#path31_fill" transform="translate(23071.5 -22175.4)" fill="#D6D6CB"/>
</g>
<g id="Group">
<g id="Vector">
<use xlink:href="#path32_fill" transform="translate(23053.6 -22130.6)"/>
</g>
<g id="Vector">
<use xlink:href="#path33_fill" transform="translate(23060.7 -22140.2)"/>
</g>
<g id="Vector">
<use xlink:href="#path34_fill" transform="translate(23043.9 -22120.5)"/>
</g>
<g id="Vector">
<use xlink:href="#path35_fill" transform="translate(23067.3 -22154.5)"/>
</g>
</g>
</g>
</g>
<g id="Group">
<g id="Vector">
<use xlink:href="#path36_fill" transform="translate(23521 -22182)"/>
</g>
<g id="Vector">
<use xlink:href="#path37_fill" transform="translate(23565.6 -22182)"/>
</g>
<g id="Vector">
<use xlink:href="#path38_fill" transform="translate(23610.6 -22182)"/>
</g>
<g id="Group">
<g id="Vector">
<use xlink:href="#path39_fill" transform="translate(23521 -22124.9)"/>
</g>
<g id="Vector">
<use xlink:href="#path40_fill" transform="translate(23527.5 -22124.9)"/>
</g>
<g id="Vector">
<use xlink:href="#path41_fill" transform="translate(23532.5 -22124.9)"/>
</g>
<g id="Vector">
<use xlink:href="#path42_fill" transform="translate(23539.1 -22124.9)"/>
</g>
<g id="Vector">
<use xlink:href="#path43_fill" transform="translate(23545.2 -22125)"/>
</g>
<g id="Vector">
<use xlink:href="#path44_fill" transform="translate(23553.6 -22124.9)"/>
</g>
<g id="Vector">
<use xlink:href="#path45_fill" transform="translate(23560 -22125)"/>
</g>
<g id="Vector">
<use xlink:href="#path46_fill" transform="translate(23565.9 -22125)"/>
</g>
<g id="Vector">
<use xlink:href="#path47_fill" transform="translate(23572.1 -22124.9)"/>
</g>
<g id="Vector">
<use xlink:href="#path48_fill" transform="translate(23577.9 -22124.9)"/>
</g>
<g id="Vector">
<use xlink:href="#path49_fill" transform="translate(23586.3 -22124.9)"/>
</g>
<g id="Vector">
<use xlink:href="#path50_fill" transform="translate(23592.7 -22124.9)"/>
</g>
<g id="Vector">
<use xlink:href="#path51_fill" transform="translate(23596.6 -22124.9)"/>
</g>
<g id="Vector">
<use xlink:href="#path52_fill" transform="translate(23605.9 -22124.9)"/>
</g>
<g id="Vector">
<use xlink:href="#path53_fill" transform="translate(23610.7 -22124.9)"/>
</g>
<g id="Vector">
<use xlink:href="#path54_fill" transform="translate(23617.4 -22125)"/>
</g>
<g id="Vector">
<use xlink:href="#path55_fill" transform="translate(23623.6 -22124.9)"/>
</g>
<g id="Vector">
<use xlink:href="#path56_fill" transform="translate(23626.7 -22124.9)"/>
</g>
<g id="Vector">
<use xlink:href="#path57_fill" transform="translate(23632.1 -22124.9)"/>
</g>
<g id="Vector">
<use xlink:href="#path58_fill" transform="translate(23634.8 -22124.9)"/>
</g>
<g id="Vector">
<use xlink:href="#path59_fill" transform="translate(23640.3 -22124.9)"/>
</g>
</g>
</g>
<g id="Group">
<g id="Vector">
<use xlink:href="#path60_stroke" transform="translate(23210.8 -22179.8)"/>
</g>
<g id="Group">
<g id="Vector">
<use xlink:href="#path61_fill" transform="translate(23184 -22118.8)"/>
</g>
<g id="Vector">
<use xlink:href="#path62_fill" transform="translate(23197.6 -22109.8)"/>
</g>
<g id="Vector">
<use xlink:href="#path63_fill" transform="translate(23202.8 -22118.9)"/>
</g>
<g id="Vector">
<use xlink:href="#path64_fill" transform="translate(23216.6 -22109.8)"/>
</g>
<g id="Vector">
<use xlink:href="#path65_fill" transform="translate(23221.8 -22119)"/>
</g>
<g id="Vector">
<use xlink:href="#path66_fill" transform="translate(23235.5 -22109.8)"/>
</g>
<g id="Vector">
<use xlink:href="#path67_fill" transform="translate(23240.7 -22119)"/>
</g>
<g id="Vector">
<use xlink:href="#path68_fill" transform="translate(23254.5 -22109.8)"/>
</g>
</g>
<g id="Vector">
<use xlink:href="#path69_stroke" transform="translate(23195.9 -22194.1)"/>
</g>
<g id="Vector">
<use xlink:href="#path70_fill" transform="translate(23191 -22199)" fill="#DADAD3"/>
<use xlink:href="#path71_stroke" transform="translate(23191 -22199)"/>
</g>
<g id="Vector">
<use xlink:href="#path70_fill" transform="translate(23196.2 -22164.5)" fill="#DADAD3"/>
<use xlink:href="#path71_stroke" transform="translate(23196.2 -22164.5)"/>
</g>
<g id="Vector">
<use xlink:href="#path72_fill" transform="translate(23238.5 -22187.3)" fill="#DADAD3"/>
<use xlink:href="#path73_stroke" transform="translate(23238.5 -22187.3)"/>
</g>
<g id="Vector">
<use xlink:href="#path74_fill" transform="translate(23206.9 -22183.7)" fill="#DADAD3"/>
<use xlink:href="#path75_stroke" transform="translate(23206.9 -22183.7)"/>
</g>
<g id="Vector">
<use xlink:href="#path76_fill" transform="translate(23218.6 -22142.8)" fill="#DADAD3"/>
<use xlink:href="#path77_stroke" transform="translate(23218.6 -22142.8)"/>
</g>
<g id="Vector">
<use xlink:href="#path78_fill" transform="translate(23232.3 -22164.9)" fill="#DADAD3"/>
<use xlink:href="#path79_stroke" transform="translate(23232.3 -22164.9)"/>
</g>
</g>
<g id="Group">
<g id="Vector">
<use xlink:href="#path80_fill" transform="translate(23307 -22182)"/>
</g>
<g id="Group">
<g id="Vector">
<use xlink:href="#path81_fill" transform="translate(23334.6 -22157.7)" fill="#DADAD3"/>
</g>
<g id="Vector">
<use xlink:href="#path82_fill" transform="translate(23347.3 -22157.7)" fill="#DADAD3"/>
</g>
<g id="Vector">
<use xlink:href="#path83_fill" transform="translate(23370.9 -22157.7)" fill="#DADAD3"/>
</g>
<g id="Vector">
<use xlink:href="#path84_fill" transform="translate(23389.6 -22158.3)" fill="#DADAD3"/>
</g>
<g id="Vector">
<use xlink:href="#path85_fill" transform="translate(23409.3 -22158.4)" fill="#DADAD3"/>
</g>
<g id="Vector">
<use xlink:href="#path86_fill" transform="translate(23429.4 -22157.7)" fill="#DADAD3"/>
</g>
</g>
</g>
</g>
</g>
<defs>
<path id="path0_fill" d="M 0.143266 6.22684L -9.10862e-08 5.98734L 4.58452 0L 5.3486 1.53276L 4.87105 2.15544L 6.06494 4.45459L 6.82902 4.40668L 7.64086 5.93944L 0.143266 6.22684ZM 4.15472 3.16132L 3.00859 4.59828L 4.82329 4.50248L 4.15472 3.16132Z"/>
<path id="path1_fill" d="M 4.93772 2.84327C 5.31976 2.69957 5.46303 2.31638 5.36752 1.98109C 5.22425 1.5979 4.93772 1.45421 4.60343 1.55001C 4.12588 1.6937 4.22139 2.36428 4.22139 2.93907C 4.22139 4.13653 3.93485 4.85502 2.88424 5.23821C 1.78586 5.6214 0.544221 4.99872 0.162178 3.84915C -0.315376 2.46008 0.305444 1.5021 1.45157 1.02312L 1.97688 2.46008C 1.6426 2.60377 1.40382 2.89117 1.54708 3.32226C 1.6426 3.65755 1.97688 3.89704 2.35893 3.75334C 2.83648 3.60965 2.69321 2.98697 2.69321 2.41218C 2.64546 1.16682 3.07526 0.448334 4.03036 0.113043C 5.12874 -0.270148 6.37038 0.352533 6.75242 1.5021C 7.22998 2.84327 6.60916 3.94494 5.46303 4.32813L 4.93772 2.84327Z"/>
<path id="path2_fill" d="M 4.97923 2.86982C 5.36127 2.77402 5.60005 2.43872 5.50454 2.05553C 5.40903 1.67234 5.1225 1.48075 4.78821 1.52865C 4.31066 1.62445 4.31066 2.29503 4.21514 2.86982C 4.07188 4.01939 3.68984 4.73787 2.59146 4.97736C 1.44533 5.21686 0.299202 4.45047 0.0604252 3.253C -0.226107 1.81604 0.537979 0.953863 1.68411 0.618572L 2.0184 2.10344C 1.63635 2.19923 1.39758 2.48662 1.49309 2.91771C 1.5886 3.253 1.82737 3.5404 2.25717 3.4446C 2.73473 3.34881 2.68697 2.72612 2.73473 2.15134C 2.83024 0.90597 3.35555 0.235383 4.35841 0.0437882C 5.50454 -0.195706 6.65067 0.570677 6.88945 1.76815C 7.17598 3.15721 6.41189 4.16308 5.26576 4.40258L 4.97923 2.86982Z"/>
<path id="path3_fill" d="M 0.00958164 3.74092C -0.133685 1.68127 1.34673 0.100616 3.3047 0.00481829C 5.26267 -0.0909792 6.88636 1.25018 7.02962 3.30983C 7.17289 5.36948 5.69247 6.95014 3.7345 7.04593C 1.77653 7.18963 0.152848 5.84846 0.00958164 3.74092ZM 5.50145 3.40563C 5.4537 2.25606 4.49859 1.53758 3.40021 1.63337C 2.30184 1.68127 1.49 2.49555 1.53775 3.64512C 1.58551 4.79469 2.54062 5.51317 3.63899 5.41738C 4.73737 5.36948 5.54921 4.6031 5.50145 3.40563Z"/>
<path id="path4_fill" d="M 0.0267486 2.68233C 0.170015 1.43696 0.74308 0.622684 1.50717 7.30877e-07L 2.46227 1.24537C 1.98472 1.67646 1.60268 2.20334 1.55492 2.87393C 1.41166 4.0235 2.2235 4.88567 3.32187 5.02937C 4.42025 5.12517 5.37535 4.50248 5.51862 3.30502C 5.56638 2.63443 5.37535 2.01175 4.99331 1.53276L 6.13944 0.574784C 6.76026 1.29327 7.1423 2.25124 7.04679 3.49661C 6.80802 5.55625 5.13658 6.84952 3.1786 6.65793C 1.17288 6.41843 -0.212028 4.74198 0.0267486 2.68233Z"/>
<path id="path5_fill" d="M 2.27715e-08 1.58066L 0.334288 7.30877e-07L 6.73351 1.43696L 6.39922 3.01762L 2.27715e-08 1.58066Z"/>
<path id="path6_fill" d="M 4.55431e-08 1.14957L 0.0955108 0.862178L 7.54535 -1.46175e-06L 6.97229 1.62856L 6.25596 1.77225L 5.39636 4.21509L 5.92167 4.74198L 5.34861 6.37053L 4.55431e-08 1.14957ZM 5.01432 1.91595L 3.19961 2.10754L 4.53676 3.35291L 5.01432 1.91595Z"/>
<path id="path7_fill" d="M 1.91022 3.40081L 1.2894 4.74198L -1.82172e-07 4.11929L 1.95797 -7.30877e-07L 3.24737 0.622684L 2.62655 1.96385L 7.25882 4.16719L 6.54249 5.65205L 1.91022 3.40081Z"/>
<path id="path8_fill" d="M -1.82172e-07 1.38906L 0.811842 -3.65438e-07L 6.44698 3.35291L 5.63514 4.74197L -1.82172e-07 1.38906Z"/>
<path id="path9_fill" d="M 0.793716 1.4225C 2.03536 -0.206055 4.18435 -0.445549 5.71252 0.75192C 7.24069 1.94939 7.57498 4.05693 6.33334 5.68549C 5.04395 7.31405 2.94271 7.55354 1.41454 6.35607C -0.161392 5.1586 -0.49568 3.05106 0.793716 1.4225ZM 5.13946 4.77541C 5.85579 3.86534 5.61701 2.71577 4.75741 2.04519C 3.89782 1.3746 2.75169 1.4225 2.03536 2.33258C 1.31903 3.24265 1.5578 4.39222 2.4174 5.06281C 3.277 5.73339 4.42313 5.68549 5.13946 4.77541Z"/>
<path id="path10_fill" d="M 7.2869e-07 3.9756L 1.24164 2.82603L 5.7784 3.9756L 3.15186 1.10167L 4.34574 1.82719e-07L 8.78699 4.83777L 7.54535 5.98734L 3.00859 4.83777L 5.63514 7.7117L 4.44125 8.81337L 7.2869e-07 3.9756Z"/>
<path id="path11_fill" d="M 3.64345e-07 2.20334L 3.62941 -8.50853e-16L 4.34574 1.19747L 2.10124 2.58653L 2.81757 3.784L 4.87105 2.53863L 5.58738 3.7361L 3.5339 4.98147L 4.72778 6.99322L 3.34288 7.8075L 3.64345e-07 2.20334Z"/>
<path id="path12_fill" d="M 2.16335 0.308639C 4.07357 -0.50564 6.03154 0.356537 6.79563 2.12879C 7.55972 3.94894 6.79563 5.91279 4.93317 6.72707C 3.02295 7.54135 1.06498 6.67917 0.300896 4.85902C -0.463191 3.08677 0.253137 1.12292 2.16335 0.308639ZM 4.31235 5.33801C 5.36297 4.90692 5.74501 3.80525 5.26745 2.75147C 4.83766 1.7456 3.83479 1.21871 2.78417 1.6977C 1.6858 2.17669 1.35151 3.23046 1.82907 4.28423C 2.21111 5.29011 3.21397 5.817 4.31235 5.33801Z"/>
<path id="path13_fill" d="M 1.45738e-06 0.764783L 2.6743 0.0942006C 4.05921 -0.241091 5.15758 0.333694 5.44411 1.57906C 5.73065 2.68073 5.30085 3.44711 4.44125 3.9261L 6.73351 5.84205L 4.77554 6.32104L 2.57879 4.35719L 3.15186 6.75213L 1.57593 7.13532L 1.45738e-06 0.764783ZM 3.48614 2.82443C 3.82043 2.72863 3.9637 2.29754 3.86819 1.96225C 3.77268 1.57906 3.43839 1.33957 3.05634 1.43537L 1.86246 1.67486L 2.2445 3.11182L 3.48614 2.82443Z"/>
<path id="path14_fill" d="M 3.39528 0.00361672C 4.63692 -0.044282 5.54427 0.386807 6.26061 1.10529L 5.20998 2.20696C 4.73243 1.77587 4.11161 1.48848 3.49079 1.53638C 2.34466 1.58428 1.58057 2.49435 1.62833 3.59602C 1.67608 4.69769 2.44017 5.55987 3.63406 5.51197C 4.30263 5.51197 4.8757 5.17668 5.3055 4.69769L 6.40387 5.70357C 5.78305 6.42205 4.8757 6.94894 3.68181 6.99683C 1.62833 7.09263 0.0524043 5.55987 0.00464892 3.59602C -0.0908619 1.68007 1.29404 0.0994142 3.39528 0.00361672Z"/>
<path id="path15_fill" d="M 3.99294 0.0377083C 6.04643 0.277202 7.28806 2.00156 7.04929 3.96541C 6.81051 5.92925 5.13907 7.27042 3.08559 6.98303C 1.03211 6.74353 -0.209532 5.01918 0.0292449 3.05533C 0.268022 1.13938 1.93946 -0.249684 3.99294 0.0377083ZM 3.27661 5.49817C 4.42274 5.64186 5.28234 4.87548 5.42561 3.77381C 5.56887 2.67214 4.94805 1.71416 3.80192 1.57047C 2.65579 1.42677 1.7962 2.19315 1.65293 3.29482C 1.50966 4.39649 2.13048 5.35447 3.27661 5.49817Z"/>
<path id="path16_fill" d="M 1.86246 0L 3.29512 0.431089L 3.86819 4.31089L 6.49473 1.38906L 7.9274 1.82015L 6.01718 8.09489L 4.48901 7.6159L 5.34861 4.83777L 3.05635 7.42431L 2.81757 7.32851L 2.38777 3.8798L 1.52818 6.70583L -2.91476e-06 6.22684L 1.86246 0Z"/>
<path id="path17_fill" d="M 2.76981 9.13596e-08L 5.25309 1.19747C 6.44698 1.77225 6.73351 3.01762 6.30372 4.0235C 5.77841 5.12517 4.58452 5.55625 3.48614 5.02937L 2.43553 4.55038L 1.43266 6.70582L -2.91476e-06 6.03524L 2.76981 9.13596e-08ZM 3.91595 3.6403C 4.29799 3.8319 4.68003 3.59241 4.8233 3.20922C 4.96656 2.87392 4.9188 2.49074 4.53676 2.29914L 3.62941 1.86805L 3.00859 3.20922L 3.91595 3.6403Z"/>
<path id="path18_fill" d="M 2.78937 0L 4.12653 0.862177L 1.88202 4.31089C 1.40447 5.02937 1.59549 5.50836 2.07304 5.84365C 2.59835 6.17894 3.07591 6.13104 3.55346 5.41256L 5.79797 1.96385L 7.13512 2.82603L 4.74735 6.46633C 3.88775 7.7596 2.45509 7.8554 1.2612 7.08902C 0.0195618 6.27474 -0.410235 4.93357 0.449362 3.64031L 2.78937 0Z"/>
<path id="path19_fill" d="M 3.34288 2.05965L 2.2445 1.10167L 3.15186 -1.82719e-07L 6.638 2.96972L 5.73065 4.07139L 4.58452 3.11342L 1.24164 7.04112L 0 5.98734L 3.34288 2.05965Z"/>
<path id="path20_fill" d="M 4.68003 7.30877e-07L 5.82616 1.14957L 1.14613 5.74785L 1.45738e-06 4.59828L 4.68003 7.30877e-07Z"/>
<path id="path21_fill" d="M 5.15758 -7.30877e-07L 6.2082 1.34117L 4.72779 5.74785L 7.78413 3.35291L 8.78699 4.59828L 3.62941 8.66967L 2.57879 7.32851L 4.05921 2.87392L 1.00286 5.31676L -2.91476e-06 4.07139L 5.15758 -7.30877e-07Z"/>
<path id="path22_fill" d="M 6.59402 1.89519C 7.16708 2.94897 7.21483 3.90694 6.9283 4.86492L 5.49564 4.38593C 5.63891 3.81114 5.59115 3.18846 5.30462 2.66157C 4.73156 1.6557 3.63318 1.41621 2.63031 1.94309C 1.5797 2.51788 1.29317 3.66745 1.86623 4.62542C 2.4393 5.6313 3.25114 5.82289 3.8242 5.5355L 2.91685 3.90694L 4.11074 3.23636L 5.82993 6.39768L 5.30462 6.68507C 3.63318 7.64305 1.62745 7.40355 0.481322 5.29601C -0.521542 3.47585 0.0992799 1.41621 1.81847 0.458231C 3.53767 -0.499744 5.59115 0.0750406 6.59402 1.89519Z"/>
<path id="path23_fill" d="M 6.25596 -7.30877e-07L 7.02004 2.63443C 7.40208 3.9756 6.82902 5.12517 5.68289 5.46046C 4.58451 5.79575 3.82043 5.41256 3.29512 4.55038L 1.43266 6.94532L 0.859598 5.02937L 2.76981 2.73023L 0.429796 3.40081L 1.35729e-14 1.86805L 6.25596 -7.30877e-07ZM 4.34574 3.59241C 4.44125 3.9277 4.87105 4.07139 5.25309 3.9756C 5.63514 3.8798 5.87392 3.49661 5.77841 3.16132L 5.44411 1.96385L 4.01145 2.39494L 4.34574 3.59241Z"/>
<path id="path24_fill" d="M 6.49473 7.30877e-07L 7.16331 4.31089L 5.7784 4.55038L 5.3486 1.82015L 4.20248 2.01175L 4.58452 4.50248L 3.19961 4.74198L 2.81757 2.25124L 1.67144 2.44284L 2.10124 5.26886L 0.716332 5.46046L 1.45738e-06 1.05377L 6.49473 7.30877e-07Z"/>
<path id="path25_fill" d="M 6.87677 3.01762L 6.87677 3.30501L 0.143268 6.65793L 0.0955093 4.93357L 0.764089 4.59828L 0.716331 2.01175L 0.0477583 1.72436L -1.35729e-14 -1.46175e-06L 6.87677 3.01762ZM 1.95797 3.9756L 3.58165 3.20922L 1.91022 2.49074L 1.95797 3.9756Z"/>
<path id="path26_fill" d="M 7.0678 0.814278L 6.87678 2.39494L 1.71919 1.77225L 1.38491 4.59828L -2.91476e-06 4.45458L 0.525309 7.30877e-07L 7.0678 0.814278Z"/>
<path id="path27_fill" d="M 6.73351 1.38907L 6.39923 2.96972L -1.45738e-06 1.58066L 0.334285 -1.46175e-06L 6.73351 1.38907Z"/>
<path id="path28_fill" d="M 5.39636 1.53276L 5.82616 0.143698L 7.16331 0.574784L 5.82616 4.93357L 4.48901 4.50248L 4.91881 3.06552L -1.45738e-06 1.53276L 0.477553 0L 5.39636 1.53276Z"/>
<path id="path29_fill" d="M 3.5339 1.34116L 7.59311 0.622682L 6.82902 2.29914L 4.48901 2.68233L 5.73065 4.69408L 4.96656 6.32264L 2.86532 2.77813L -2.91476e-06 1.43696L 0.668577 -2.92351e-06L 3.5339 1.34116Z"/>
<path id="path30_fill" d="M 12.0821 27.2065L -7.2869e-07 15.136L 12.0821 3.01762C 16.0936 -1.00587 22.5406 -1.00587 26.552 3.01762L 38.6341 15.136L 26.552 27.2544C 22.5406 31.23 16.0458 31.23 12.0821 27.2065Z"/>
<path id="path31_fill" d="M 5.3486 10.7293C 8.30256 10.7293 10.6972 8.32748 10.6972 5.36466C 10.6972 2.40184 8.30256 0 5.3486 0C 2.39465 0 0 2.40184 0 5.36466C 0 8.32748 2.39465 10.7293 5.3486 10.7293Z"/>
<path id="path32_fill" d="M 45.4154 8.19069L 39.637 0L 5.82616 0L 1.45738e-06 8.19069L 45.4154 8.19069Z"/>
<path id="path33_fill" d="M 1.45738e-06 7.37641L 31.0888 7.37641L 25.8834 -7.30877e-07L 5.20534 -7.30877e-07L 1.45738e-06 7.37641Z"/>
<path id="path34_fill" d="M 56.4469 2.92351e-06L 8.30944 2.92351e-06L -7.28689e-07 11.7352L 64.7563 11.7352L 56.4469 2.92351e-06Z"/>
<path id="path35_fill" d="M 17.956 12.6453L 8.97802 -1.46175e-06L -7.2869e-07 12.6453L 17.956 12.6453Z"/>
<path id="path36_fill" d="M 2.47984 48.9977C 0.743953 48.9977 0 48.2553 0 46.5231L 0 2.47463C 0 0.74239 0.743953 0 2.47984 0L 13.0192 0C 14.7551 0 15.499 0.74239 15.499 2.47463L 15.499 18.1267L 18.2269 18.1267L 25.2324 2.22717C 25.9144 0.618658 26.8443 0 28.6422 0L 39.1195 0C 40.6695 0 41.2274 0.804255 40.6075 2.22717L 33.6639 18.1267C 38.7476 18.3741 42.0334 21.9624 42.0334 27.4065L 42.0334 46.5849C 42.0334 48.3172 41.2894 49.0596 39.5535 49.0596L 29.1382 49.0596C 27.4023 49.0596 26.6583 48.3172 26.6583 46.5849L 26.6583 33.2838C 26.6583 31.799 25.9144 30.9948 24.4885 30.9948L 15.499 30.9948L 15.499 46.5849C 15.499 48.3172 14.7551 49.0596 13.0192 49.0596L 2.47984 49.0596L 2.47984 48.9977Z"/>
<path id="path37_fill" d="M 12.4612 48.9977L 2.47985 48.9977C 0.743954 48.9977 9.45986e-07 48.2553 9.45986e-07 46.5231L 9.45986e-07 28.582C 9.45986e-07 25.8599 0.805948 22.4573 2.66583 17.6936L 8.61746 2.22717C 9.11343 0.680524 10.2294 0 12.0892 0L 30.4401 0C 32.238 0 33.2919 0.680524 33.8499 2.22717L 39.8015 17.6936C 41.6614 22.4573 42.4673 25.8599 42.4673 28.582L 42.4673 46.5231C 42.4673 48.2553 41.7234 48.9977 39.9875 48.9977L 29.6961 48.9977C 27.8363 48.9977 27.0303 48.2553 27.0303 46.5231L 27.0303 36.9957L 14.9411 36.9957L 14.9411 46.5231C 14.9411 48.2553 14.1971 48.9977 12.4612 48.9977ZM 15.623 24.6226L 26.3484 24.6226L 23.1245 14.291C 22.7526 13.4867 22.3806 13.1156 21.8226 13.1156L 20.0867 13.1156C 19.5288 13.1156 19.1568 13.4249 18.7848 14.291L 15.623 24.6226Z"/>
<path id="path38_fill" d="M 2.47985 48.9977C 0.743955 48.9977 1.89197e-06 48.2553 1.89197e-06 46.5231L 1.89197e-06 2.47463C 1.89197e-06 0.74239 0.743955 0 2.47985 0L 32.9199 0C 34.6558 0 35.3998 0.74239 35.3998 2.47463L 35.3998 10.5172C 35.3998 12.2494 34.6558 12.9918 32.9199 12.9918L 15.499 12.9918L 15.499 20.0445L 27.3403 20.0445C 29.0762 20.0445 29.8201 20.7869 29.8201 22.5192L 29.8201 30.6854C 29.8201 32.4177 29.0762 33.1601 27.3403 33.1601L 15.499 33.1601L 15.499 46.5849C 15.499 48.3172 14.7551 49.0596 13.0192 49.0596L 2.47985 49.0596L 2.47985 48.9977Z"/>
<path id="path39_fill" d="M 2.14286 5.87918L 1.62338 6.78833L 1.62338 9.75823L -3.09635e-08 9.75823L -3.09635e-08 0L 1.62338 0L 1.62338 4.24271L 3.76624 0L 5.38962 0L 3.11689 4.36393L 5.38962 9.75823L 3.76624 9.75823L 2.14286 5.87918Z"/>
<path id="path40_fill" d="M 1.23854e-07 0L 1.62338 0L 1.62338 8.3642L 4.35066 8.3642L 4.35066 9.75823L 1.23854e-07 9.75823L 1.23854e-07 0Z"/>
<path id="path41_fill" d="M 5.71429 9.75823L 4.02598 9.75823L 3.76624 8.00053L 1.75325 8.00053L 1.49351 9.75823L 0 9.75823L 1.62338 0L 4.02598 0L 5.71429 9.75823ZM 1.94805 6.66711L 3.5065 6.66711L 2.72728 1.75769L 1.94805 6.66711Z"/>
<path id="path42_fill" d="M 1.68831 0L 1.68831 7.51566C 1.68831 8.24298 2.01299 8.48542 2.53247 8.48542C 3.05195 8.48542 3.37663 8.24298 3.37663 7.51566L 3.37663 0L 4.93507 0L 4.93507 7.45505C 4.93507 9.03091 4.09091 9.87945 2.46754 9.87945C 0.844157 9.87945 4.95416e-07 9.03091 4.95416e-07 7.45505L 4.95416e-07 0L 1.68831 0Z"/>
<path id="path43_fill" d="M 2.53247 1.84967e-06C 4.15585 1.84967e-06 4.93507 0.848544 4.93507 2.42441L 4.93507 2.72746L 3.37663 2.72746L 3.37663 2.30318C 3.37663 1.57586 3.05195 1.33342 2.53247 1.33342C 2.01299 1.33342 1.68831 1.57586 1.68831 2.30318C 1.68831 2.9699 2.07793 3.45478 2.53247 3.87905C 2.79221 4.12149 3.05195 4.36393 3.31169 4.54576C 3.83117 5.03064 4.35066 5.51552 4.67533 6.24284C 4.87014 6.6065 4.93507 6.97016 4.93507 7.45504C 4.93507 9.03091 4.09091 9.87945 2.46754 9.87945C 0.844157 9.87945 -9.22784e-15 9.03091 -9.22784e-15 7.45504L -9.22784e-15 6.84894L 1.62338 6.84894L 1.62338 7.57627C 1.62338 8.30359 1.94805 8.54603 2.46754 8.54603C 2.98702 8.54603 3.31169 8.30359 3.31169 7.57627C 3.31169 6.90956 2.92208 6.42467 2.46754 5.93979C 2.20779 5.69735 1.94805 5.51552 1.68831 5.27308C 1.1039 4.84881 0.649352 4.30332 0.324676 3.63661C 0.12987 3.27295 0.0649342 2.90929 0.0649342 2.42441C 0.129869 0.909154 0.909093 1.84967e-06 2.53247 1.84967e-06Z"/>
<path id="path44_fill" d="M 5.71429 9.75823L 4.02598 9.75823L 3.76624 8.00053L 1.75325 8.00053L 1.49351 9.75823L 0 9.75823L 1.62338 0L 4.02598 0L 5.71429 9.75823ZM 1.94805 6.66711L 3.5065 6.66711L 2.72728 1.75769L 1.94805 6.66711Z"/>
<path id="path45_fill" d="M 2.53247 1.84967e-06C 4.15585 1.84967e-06 4.93507 0.848544 4.93507 2.42441L 4.93507 2.72746L 3.37663 2.72746L 3.37663 2.30318C 3.37663 1.57586 3.05195 1.33342 2.53247 1.33342C 2.01299 1.33342 1.68831 1.57586 1.68831 2.30318C 1.68831 2.9699 2.07793 3.45478 2.53247 3.87905C 2.79221 4.12149 3.05195 4.36393 3.31169 4.54576C 3.83117 5.03064 4.35065 5.51552 4.67533 6.24284C 4.87014 6.6065 4.93507 6.97016 4.93507 7.45504C 4.93507 9.03091 4.09091 9.87945 2.46753 9.87945C 0.844155 9.87945 9.90832e-07 9.03091 9.90832e-07 7.45504L 9.90832e-07 6.84894L 1.55844 6.84894L 1.55844 7.57627C 1.55844 8.30359 1.88312 8.54603 2.4026 8.54603C 2.92208 8.54603 3.24676 8.30359 3.24676 7.57627C 3.24676 6.90956 2.85715 6.42467 2.4026 5.93979C 2.14286 5.69735 1.88312 5.51552 1.62338 5.27308C 1.03896 4.84881 0.584416 4.30332 0.25974 3.63661C 0.0649346 3.27295 9.90832e-07 2.90929 9.90832e-07 2.42441C 0.129871 0.909154 0.909094 1.84967e-06 2.53247 1.84967e-06Z"/>
<path id="path46_fill" d="M 2.53247 1.84967e-06C 4.15585 1.84967e-06 4.93507 0.848544 4.93507 2.42441L 4.93507 2.72746L 3.37663 2.72746L 3.37663 2.30318C 3.37663 1.57586 3.05195 1.33342 2.53247 1.33342C 2.01299 1.33342 1.68831 1.57586 1.68831 2.30318C 1.68831 2.9699 2.07793 3.45478 2.53247 3.87905C 2.79221 4.12149 3.05195 4.36393 3.31169 4.54576C 3.83117 5.03064 4.35065 5.51552 4.67533 6.24284C 4.87013 6.6065 4.93507 6.97016 4.93507 7.45504C 4.93507 9.03091 4.09092 9.87945 2.46754 9.87945C 0.844159 9.87945 -9.22784e-15 9.03091 -9.22784e-15 7.45504L -9.22784e-15 6.84894L 1.62338 6.84894L 1.62338 7.57627C 1.62338 8.30359 1.94806 8.54603 2.46754 8.54603C 2.98702 8.54603 3.31169 8.30359 3.31169 7.57627C 3.31169 6.90956 2.92208 6.42467 2.46754 5.93979C 2.2078 5.69735 1.94805 5.51552 1.68831 5.27308C 1.1039 4.84881 0.649352 4.30332 0.324676 3.63661C 0.12987 3.27295 0.0649342 2.90929 0.0649342 2.42441C 0.129869 0.909154 0.909093 1.84967e-06 2.53247 1.84967e-06Z"/>
<path id="path47_fill" d="M 1.68831 4.12149L 3.89611 4.12149L 3.89611 5.51552L 1.62338 5.51552L 1.62338 8.3642L 4.48053 8.3642L 4.48053 9.75823L 0 9.75823L 0 0L 4.48053 0L 4.48053 1.39403L 1.62338 1.39403L 1.62338 4.12149L 1.68831 4.12149Z"/>
<path id="path48_fill" d="M 3.5065 6.90955L 4.6104 0L 6.88313 0L 6.88313 9.75823L 5.32468 9.75823L 5.32468 2.78806L 4.22079 9.75823L 2.66234 9.75823L 1.42857 2.84867L 1.42857 9.75823L 9.90832e-07 9.75823L 9.90832e-07 0L 2.27273 0L 3.5065 6.90955Z"/>
<path id="path49_fill" d="M 2.46753 0C 4.15585 0 4.87014 0.72732 4.87014 2.24257L 4.87014 2.60624C 4.87014 3.63661 4.54546 4.24271 3.83118 4.54576C 4.74027 4.84881 5.06494 5.57613 5.06494 6.6065L 5.06494 7.39443C 5.06494 8.90969 4.22079 9.69762 2.59741 9.69762L 9.90832e-07 9.69762L 9.90832e-07 0L 2.46753 0ZM 1.62338 1.39403L 1.62338 4.00027L 2.27273 4.00027C 2.85715 4.00027 3.24676 3.75783 3.24676 2.9699L 3.24676 2.4244C 3.24676 1.69708 2.98702 1.39403 2.4026 1.39403L 1.62338 1.39403ZM 1.62338 5.3943L 1.62338 8.3642L 2.53247 8.3642C 3.11689 8.3642 3.37663 8.12175 3.37663 7.39443L 3.37663 6.5459C 3.37663 5.63674 3.05195 5.33369 2.33767 5.33369L 1.62338 5.33369L 1.62338 5.3943Z"/>
<path id="path50_fill" d="M -1.98166e-06 0L 1.62338 0L 1.62338 8.3642L 4.35066 8.3642L 4.35066 9.75823L -1.98166e-06 9.75823L -1.98166e-06 0Z"/>
<path id="path51_fill" d="M 2.07793 6.5459L -1.98166e-06 0L 1.68832 0L 2.92208 4.42454L 4.15585 0L 5.71429 0L 3.63637 6.5459L 3.63637 9.75823L 2.01299 9.75823L 2.01299 6.5459L 2.07793 6.5459Z"/>
<path id="path52_fill" d="M 1.62338 4.36393L 3.76623 4.36393L 3.76623 5.75796L 1.62338 5.75796L 1.62338 9.75823L 3.96333e-06 9.75823L 3.96333e-06 0L 4.35066 0L 4.35066 1.39403L 1.62338 1.39403L 1.62338 4.36393Z"/>
<path id="path53_fill" d="M 5.71429 9.75823L 4.02598 9.75823L 3.76624 8.00053L 1.75325 8.00053L 1.49351 9.75823L 0 9.75823L 1.68832 0L 4.09092 0L 5.71429 9.75823ZM 2.01299 6.66711L 3.57143 6.66711L 2.79221 1.75769L 2.01299 6.66711Z"/>
<path id="path54_fill" d="M 4.93507 6.24284L 4.93507 7.51565C 4.93507 9.09152 4.09091 9.94006 2.46754 9.94006C 0.844157 9.94006 -1.98166e-06 9.09152 -1.98166e-06 7.51565L -1.98166e-06 2.42441C -1.98166e-06 0.848543 0.844157 1.84967e-06 2.46754 1.84967e-06C 4.09091 1.84967e-06 4.93507 0.848543 4.93507 2.42441L 4.93507 3.39417L 3.37662 3.39417L 3.37662 2.36379C 3.37662 1.63647 3.05196 1.39403 2.53247 1.39403C 2.01299 1.39403 1.68832 1.63647 1.68832 2.36379L 1.68832 7.63688C 1.68832 8.3642 2.01299 8.60664 2.53247 8.60664C 3.05196 8.60664 3.37662 8.3642 3.37662 7.63688L 3.37662 6.24284L 4.93507 6.24284Z"/>
<path id="path55_fill" d="M 1.98166e-06 0L 1.62338 0L 1.62338 9.75823L 1.98166e-06 9.75823L 1.98166e-06 0Z"/>
<path id="path56_fill" d="M 3.96333e-06 0L 1.62338 0L 1.62338 8.3642L 4.35066 8.3642L 4.35066 9.75823L 3.96333e-06 9.75823L 3.96333e-06 0Z"/>
<path id="path57_fill" d="M -3.96333e-06 0L 1.62337 0L 1.62337 9.75823L -3.96333e-06 9.75823L -3.96333e-06 0Z"/>
<path id="path58_fill" d="M 0 0L 5.06494 0L 5.06494 1.39403L 3.37663 1.39403L 3.37663 9.75823L 1.75325 9.75823L 1.75325 1.39403L 0.0649391 1.39403L 0.0649391 0L 0 0Z"/>
<path id="path59_fill" d="M 2.07792 6.5459L 0 0L 1.68832 0L 2.92208 4.42454L 4.15585 0L 5.71429 0L 3.63637 6.5459L 3.63637 9.75823L 2.01299 9.75823L 2.01299 6.5459L 2.07792 6.5459Z"/>
<path id="path60_stroke" d="M 25.3492 18.8528L 26.6255 19.641L 27.3484 18.4703L 26.2444 17.6492L 25.3492 18.8528ZM -4.95895e-07 0L 0.895159 -1.20362L -2.65891 -3.84686L -1.44231 0.412012L -4.95895e-07 0ZM 11.6996 40.9562L 10.2573 41.3682L 11.1906 44.6353L 12.9759 41.7443L 11.6996 40.9562ZM 26.2444 17.6492L 0.895159 -1.20362L -0.89516 1.20362L 24.454 20.0565L 26.2444 17.6492ZM -1.44231 0.412012L 10.2573 41.3682L 13.1419 40.5442L 1.44231 -0.412012L -1.44231 0.412012ZM 12.9759 41.7443L 26.6255 19.641L 24.0729 18.0647L 10.4234 40.168L 12.9759 41.7443Z"/>
<path id="path61_fill" d="M 11.1796 11.1817L 8.70972 11.1817L 7.73475 8.64631L 3.31489 8.64631L 2.40492 11.1817L 0 11.1817L 4.35486 1.98394e-06L 6.75978 1.98394e-06L 11.1796 11.1817ZM 7.08477 6.76102L 5.52482 2.60039L 4.02987 6.76102L 7.08477 6.76102Z"/>
<path id="path62_fill" d="M 0 2.14532L 0 -1.98394e-06L 2.14493 -1.98394e-06L 2.14493 2.14532L 0 2.14532Z"/>
<path id="path63_fill" d="M 9.3597 9.88149C 9.94468 10.2715 10.5297 10.5966 11.1796 10.8566L 10.3347 12.4169C 10.0097 12.2869 9.68469 12.1568 9.3597 12.0268C 9.29471 11.9618 8.77472 11.6368 7.86475 11.0517C 7.14977 11.3767 6.3048 11.5067 5.45983 11.5067C 3.76988 11.5067 2.40492 10.9867 1.42996 10.0115C 0.454986 9.03637 0 7.60615 0 5.72086C 0 3.90059 0.519984 2.47037 1.42996 1.49523C 2.33993 0.520078 3.70488 -1.98394e-06 5.39483 -1.98394e-06C 7.01978 -1.98394e-06 8.38473 0.520078 9.3597 1.49523C 10.3347 2.47037 10.7897 3.90059 10.7897 5.72086C 10.7897 6.69601 10.6597 7.54113 10.3997 8.25624C 10.1397 8.77632 9.81469 9.36141 9.3597 9.88149ZM 7.53976 8.58129C 7.79975 8.25624 8.05974 7.80118 8.18974 7.34611C 8.31973 6.89104 8.38473 6.30595 8.38473 5.65585C 8.38473 4.35565 8.12474 3.38051 7.53976 2.79542C 6.95478 2.21033 6.2398 1.82027 5.32983 1.82027C 4.41986 1.82027 3.63988 2.14532 3.1199 2.79542C 2.59992 3.44552 2.27493 4.42066 2.27493 5.65585C 2.27493 6.95605 2.53492 7.93119 3.1199 8.58129C 3.70488 9.23139 4.41986 9.55644 5.26483 9.55644C 5.58982 9.55644 5.91481 9.49143 6.1748 9.42642C 5.71982 9.10137 5.26483 8.90635 4.80985 8.71132L 5.45983 7.41112C 6.1748 7.67116 6.88978 8.06121 7.53976 8.58129Z"/>
<path id="path64_fill" d="M 4.95895e-07 2.14532L 4.95895e-07 -1.98394e-06L 2.14493 -1.98394e-06L 2.14493 2.14532L 4.95895e-07 2.14532Z"/>
<path id="path65_fill" d="M 5.58982 7.2811L 5.58982 5.39582L 10.4647 5.39582L 10.4647 9.81649C 10.0097 10.2716 9.2947 10.6616 8.38473 11.0517C 7.47476 11.4417 6.56479 11.5717 5.65482 11.5717C 4.48486 11.5717 3.44489 11.3117 2.59992 10.8566C 1.75494 10.4016 1.10497 9.68646 0.64998 8.77632C 0.194994 7.86619 4.95895e-07 6.89104 4.95895e-07 5.78587C 4.95895e-07 4.61569 0.259991 3.57554 0.714977 2.66541C 1.16996 1.75527 1.88494 1.04016 2.85991 0.585089C 3.57489 0.19503 4.48486 -9.23845e-15 5.52482 -9.23845e-15C 6.88978 -9.23845e-15 7.99474 0.260041 8.77472 0.84513C 9.55469 1.43022 10.0747 2.21033 10.2697 3.25049L 8.05974 3.64055C 7.92975 3.12047 7.60476 2.66541 7.14977 2.34036C 6.69479 2.01531 6.1748 1.88529 5.52482 1.88529C 4.54985 1.88529 3.76988 2.21034 3.1849 2.79542C 2.59992 3.38051 2.33993 4.35566 2.33993 5.59085C 2.33993 6.89104 2.66492 7.93119 3.2499 8.58129C 3.83488 9.23139 4.61486 9.55644 5.58982 9.55644C 6.04481 9.55644 6.56479 9.49143 7.01978 9.2964C 7.47476 9.10138 7.92975 8.90635 8.25474 8.64631L 8.25474 7.21609L 5.58982 7.21609L 5.58982 7.2811Z"/>
<path id="path66_fill" d="M 1.98358e-06 2.14532L 1.98358e-06 -1.98394e-06L 2.14493 -1.98394e-06L 2.14493 2.14532L 1.98358e-06 2.14532Z"/>
<path id="path67_fill" d="M 5.58982 7.2811L 5.58982 5.39582L 10.4647 5.39582L 10.4647 9.81649C 10.0097 10.2716 9.2947 10.6616 8.38473 11.0517C 7.47476 11.4417 6.56479 11.5717 5.65482 11.5717C 4.48486 11.5717 3.44489 11.3117 2.59992 10.8566C 1.75495 10.4016 1.10497 9.68646 0.649981 8.77632C 0.194996 7.86619 1.98358e-06 6.89104 1.98358e-06 5.78587C 1.98358e-06 4.61569 0.259993 3.57554 0.714978 2.66541C 1.16996 1.75527 1.88494 1.04016 2.85991 0.585089C 3.57488 0.19503 4.48486 -9.23845e-15 5.52483 -9.23845e-15C 6.88978 -9.23845e-15 7.99475 0.260041 8.77472 0.84513C 9.5547 1.43022 10.0747 2.21033 10.2697 3.25049L 8.05974 3.64055C 7.92975 3.12047 7.60476 2.66541 7.14977 2.34036C 6.69479 2.01531 6.17481 1.88529 5.52483 1.88529C 4.54986 1.88529 3.76988 2.21034 3.1849 2.79542C 2.59992 3.38051 2.33993 4.35566 2.33993 5.59085C 2.33993 6.89104 2.66492 7.93119 3.2499 8.58129C 3.83488 9.23139 4.61485 9.55644 5.58982 9.55644C 6.04481 9.55644 6.56479 9.49143 7.01978 9.2964C 7.47476 9.10138 7.92975 8.90635 8.25474 8.64631L 8.25474 7.21609L 5.58982 7.21609L 5.58982 7.2811Z"/>
<path id="path68_fill" d="M 0 2.14532L 0 -1.98394e-06L 2.14493 -1.98394e-06L 2.14493 2.14532L 0 2.14532Z"/>
<path id="path69_stroke" d="M -4.95895e-07 0L 0.359169 -1.45636L -1.8178 -1.99325L -1.48321 0.223839L -4.95895e-07 0ZM 5.19983 34.4552L 3.71663 34.679L 4.03467 36.7864L 5.91108 35.7759L 5.19983 34.4552ZM 47.4485 11.7018L 48.1597 13.0224L 51.5859 11.1772L 47.8077 10.2454L 47.4485 11.7018ZM -1.48321 0.223839L 3.71663 34.679L 6.68304 34.2314L 1.4832 -0.223839L -1.48321 0.223839ZM 5.91108 35.7759L 48.1597 13.0224L 46.7372 10.3811L 4.48858 33.1345L 5.91108 35.7759ZM 47.8077 10.2454L 0.359169 -1.45636L -0.35917 1.45636L 47.0893 13.1581L 47.8077 10.2454Z"/>
<path id="path70_fill" d="M 4.87484 9.75147C 7.56715 9.75147 9.74969 7.56853 9.74969 4.87574C 9.74969 2.18294 7.56715 0 4.87484 0C 2.18254 0 0 2.18294 0 4.87574C 0 7.56853 2.18254 9.75147 4.87484 9.75147Z"/>
<path id="path71_stroke" d="M 8.24969 4.87574C 8.24969 6.74036 6.73846 8.25147 4.87484 8.25147L 4.87484 11.2515C 8.39583 11.2515 11.2497 8.3967 11.2497 4.87574L 8.24969 4.87574ZM 4.87484 8.25147C 3.01123 8.25147 1.5 6.74036 1.5 4.87574L -1.5 4.87574C -1.5 8.3967 1.35386 11.2515 4.87484 11.2515L 4.87484 8.25147ZM 1.5 4.87574C 1.5 3.01111 3.01123 1.5 4.87484 1.5L 4.87484 -1.5C 1.35386 -1.5 -1.5 1.35477 -1.5 4.87574L 1.5 4.87574ZM 4.87484 1.5C 6.73846 1.5 8.24969 3.01111 8.24969 4.87574L 11.2497 4.87574C 11.2497 1.35477 8.39583 -1.5 4.87484 -1.5L 4.87484 1.5Z"/>
<path id="path72_fill" d="M 4.87485 9.75147C 7.56715 9.75147 9.74969 7.56853 9.74969 4.87574C 9.74969 2.18294 7.56715 0 4.87485 0C 2.18254 0 1.98358e-06 2.18294 1.98358e-06 4.87574C 1.98358e-06 7.56853 2.18254 9.75147 4.87485 9.75147Z"/>
<path id="path73_stroke" d="M 8.24969 4.87574C 8.24969 6.74036 6.73846 8.25147 4.87485 8.25147L 4.87485 11.2515C 8.39583 11.2515 11.2497 8.3967 11.2497 4.87574L 8.24969 4.87574ZM 4.87485 8.25147C 3.01123 8.25147 1.5 6.74036 1.5 4.87574L -1.5 4.87574C -1.5 8.3967 1.35386 11.2515 4.87485 11.2515L 4.87485 8.25147ZM 1.5 4.87574C 1.5 3.01111 3.01123 1.5 4.87485 1.5L 4.87485 -1.5C 1.35386 -1.5 -1.5 1.35477 -1.5 4.87574L 1.5 4.87574ZM 4.87485 1.5C 6.73846 1.5 8.24969 3.01111 8.24969 4.87574L 11.2497 4.87574C 11.2497 1.35477 8.39583 -1.5 4.87485 -1.5L 4.87485 1.5Z"/>
<path id="path74_fill" d="M 3.89988 7.80118C 6.05372 7.80118 7.79975 6.05482 7.79975 3.90059C 7.79975 1.74635 6.05372 0 3.89988 0C 1.74603 0 0 1.74635 0 3.90059C 0 6.05482 1.74603 7.80118 3.89988 7.80118Z"/>
<path id="path75_stroke" d="M 6.29975 3.90059C 6.29975 5.22666 5.22503 6.30118 3.89988 6.30118L 3.89988 9.30118C 6.8824 9.30118 9.29975 6.88299 9.29975 3.90059L 6.29975 3.90059ZM 3.89988 6.30118C 2.57472 6.30118 1.5 5.22666 1.5 3.90059L -1.5 3.90059C -1.5 6.88299 0.917347 9.30118 3.89988 9.30118L 3.89988 6.30118ZM 1.5 3.90059C 1.5 2.57452 2.57472 1.5 3.89988 1.5L 3.89988 -1.5C 0.917347 -1.5 -1.5 0.918185 -1.5 3.90059L 1.5 3.90059ZM 3.89988 1.5C 5.22503 1.5 6.29975 2.57452 6.29975 3.90059L 9.29975 3.90059C 9.29975 0.918184 6.8824 -1.5 3.89988 -1.5L 3.89988 1.5Z"/>
<path id="path76_fill" d="M 3.89988 7.80118C 6.05372 7.80118 7.79975 6.05482 7.79975 3.90059C 7.79975 1.74635 6.05372 0 3.89988 0C 1.74603 0 0 1.74635 0 3.90059C 0 6.05482 1.74603 7.80118 3.89988 7.80118Z"/>
<path id="path77_stroke" d="M 6.29975 3.90059C 6.29975 5.22665 5.22503 6.30118 3.89988 6.30118L 3.89988 9.30118C 6.8824 9.30118 9.29975 6.88299 9.29975 3.90059L 6.29975 3.90059ZM 3.89988 6.30118C 2.57472 6.30118 1.5 5.22666 1.5 3.90059L -1.5 3.90059C -1.5 6.88299 0.917347 9.30118 3.89988 9.30118L 3.89988 6.30118ZM 1.5 3.90059C 1.5 2.57452 2.57472 1.5 3.89988 1.5L 3.89988 -1.5C 0.917347 -1.5 -1.5 0.918185 -1.5 3.90059L 1.5 3.90059ZM 3.89988 1.5C 5.22503 1.5 6.29975 2.57452 6.29975 3.90059L 9.29975 3.90059C 9.29975 0.918183 6.8824 -1.5 3.89988 -1.5L 3.89988 1.5Z"/>
<path id="path78_fill" d="M 3.89988 7.80118C 6.05372 7.80118 7.79975 6.05482 7.79975 3.90059C 7.79975 1.74635 6.05372 0 3.89988 0C 1.74604 0 1.98358e-06 1.74635 1.98358e-06 3.90059C 1.98358e-06 6.05482 1.74604 7.80118 3.89988 7.80118Z"/>
<path id="path79_stroke" d="M 6.29975 3.90059C 6.29975 5.22666 5.22503 6.30118 3.89988 6.30118L 3.89988 9.30118C 6.88241 9.30118 9.29975 6.88299 9.29975 3.90059L 6.29975 3.90059ZM 3.89988 6.30118C 2.57472 6.30118 1.5 5.22666 1.5 3.90059L -1.5 3.90059C -1.5 6.88299 0.91735 9.30118 3.89988 9.30118L 3.89988 6.30118ZM 1.5 3.90059C 1.5 2.57452 2.57472 1.5 3.89988 1.5L 3.89988 -1.5C 0.91735 -1.5 -1.5 0.918184 -1.5 3.90059L 1.5 3.90059ZM 3.89988 1.5C 5.22503 1.5 6.29975 2.57452 6.29975 3.90059L 9.29975 3.90059C 9.29975 0.918184 6.88241 -1.5 3.89988 -1.5L 3.89988 1.5Z"/>
<path id="path80_fill" d="M 81.5 61C 126.511 61 163 47.3447 163 30.5C 163 13.6553 126.511 0 81.5 0C 36.4888 0 0 13.6553 0 30.5C 0 47.3447 36.4888 61 81.5 61Z"/>
<path id="path81_fill" d="M 5.74205 0.277273C 5.4642 0.277273 5.18636 0.369698 5.09375 0.369698C 4.90852 0.462122 4.81591 0.64697 4.81591 0.831819L 4.81591 11.7379C 4.81591 11.9227 4.90852 12.1076 5.09375 12.1076C 5.27898 12.2 5.4642 12.2 5.74205 12.2L 5.74205 12.6621L -7.06586e-07 12.6621L -7.06586e-07 12.2924C 0.27784 12.2924 0.555682 12.2 0.648295 12.2C 0.740909 12.2 0.926136 12.0152 0.926136 11.8303L 0.926136 0.831819C 0.926136 0.64697 0.833523 0.46212 0.648295 0.46212C 0.463068 0.46212 0.27784 0.369698 -7.06586e-07 0.369698L -7.06586e-07 -7.05141e-07L 5.74205 -7.05141e-07L 5.74205 0.277273Z"/>
<path id="path82_fill" d="M 3.79716 11.7379C 3.79716 11.9227 3.88977 12.1076 3.98239 12.1076C 4.075 12.1076 4.35284 12.2 4.53807 12.2L 4.53807 12.6621L -6.58059e-15 12.6621L -6.58059e-15 12.2924C 0.185227 12.2924 0.277841 12.2 0.463068 12.2C 0.648295 12.1076 0.648296 12.0152 0.648296 11.8303L 0.648296 0.831819C 0.648296 0.64697 0.555682 0.46212 0.463068 0.46212C 0.277841 0.369696 0.185227 0.369698 -6.58059e-15 0.369698L -6.58059e-15 -7.05141e-07L 6.29773 -7.05141e-07L 6.29773 0.369698C 6.1125 0.369698 6.01989 0.369696 5.92727 0.46212C 5.83466 0.46212 5.74205 0.554545 5.74205 0.64697C 5.74205 0.739394 5.83466 1.01667 6.1125 1.47879C 6.29773 1.94091 6.57557 2.49545 6.85341 3.05C 7.13125 3.60455 7.40909 4.15909 7.68693 4.71364C 7.96477 5.26818 8.05739 5.54545 8.15 5.7303C 8.33523 5.26818 8.61307 4.80606 8.98352 4.25151C 9.26136 3.69697 9.5392 3.14242 9.81704 2.6803C 10.0949 2.21818 10.2801 1.75606 10.4653 1.38636C 10.6506 1.01667 10.7432 0.831819 10.7432 0.739394C 10.7432 0.64697 10.6506 0.554545 10.558 0.554545C 10.4653 0.554545 10.2801 0.554545 10.1875 0.46212L 10.1875 0.0924239L 16.4852 0.0924239L 16.4852 0.46212C 16.3926 0.46212 16.2074 0.554545 16.1148 0.554545C 16.0222 0.646969 15.9295 0.739393 15.9295 0.924242L 15.9295 11.7379C 15.9295 11.9227 16.0222 12.1076 16.1148 12.1076C 16.2074 12.2 16.3926 12.2 16.4852 12.2L 16.4852 12.6621L 11.6693 12.6621L 11.6693 12.2924C 11.8545 12.2924 12.0398 12.2 12.225 12.2C 12.4102 12.1076 12.4102 12.0152 12.4102 11.8303L 12.4102 3.60455L 12.3176 3.60455L 7.96477 11.9227L 3.79716 3.60455L 3.70455 3.60455L 3.70455 11.7379L 3.79716 11.7379Z"/>
<path id="path83_fill" d="M 0.463068 0.831819C 0.463068 0.64697 0.370457 0.46212 0.277844 0.46212C 0.18523 0.369696 0.0926136 0.369698 0 0.369698L 0 -7.05141e-07L 7.59432 -7.05141e-07C 8.33522 -7.05141e-07 8.98352 0.0924242 9.63182 0.184848C 10.2801 0.277273 10.8358 0.554546 11.3915 0.831819C 11.8545 1.10909 12.3176 1.57121 12.5955 2.12576C 12.8733 2.6803 13.0585 3.32727 13.0585 4.15909C 13.0585 4.99091 12.8733 5.63788 12.5955 6.19242C 12.3176 6.74697 11.8545 7.11667 11.3915 7.48636C 10.9284 7.76364 10.2801 8.04091 9.63182 8.13333C 8.98352 8.22576 8.24261 8.31818 7.59432 8.31818L 4.35284 8.31818L 4.35284 11.7379C 4.35284 11.9227 4.44546 12.1076 4.53807 12.1076C 4.7233 12.2 4.81591 12.2 5.00114 12.2L 5.00114 12.6621L 0 12.6621L 0 12.2924C 0.0926136 12.2924 0.18523 12.2 0.277844 12.2C 0.370457 12.1076 0.463068 12.0152 0.463068 11.8303L 0.463068 0.831819ZM 7.03863 5.82273C 7.87216 5.82273 8.42784 5.7303 8.7983 5.45303C 9.16875 5.17576 9.35398 4.71364 9.35398 4.15909C 9.35398 3.60454 9.16875 3.14242 8.89091 2.86515C 8.61307 2.58788 8.05739 2.49545 7.31648 2.49545L 4.35284 2.49545L 4.35284 5.91515L 7.03863 5.91515L 7.03863 5.82273Z"/>
<path id="path84_fill" d="M 12.8733 10.7212C 13.2437 10.7212 13.5216 10.4439 13.6142 9.98182L 13.9847 9.98182L 13.9847 13.7712L 13.7068 13.7712C 13.6142 13.4939 13.5216 13.3091 13.429 13.3091C 13.3364 13.3091 13.1511 13.2167 12.9659 13.2167L -2.82634e-06 13.2167L -2.82634e-06 12.847C 0.185224 12.847 0.370457 12.7545 0.555685 12.7545C 0.740912 12.7545 0.833521 12.5697 0.833521 12.3848L 0.833521 1.47879C 0.833521 1.29394 0.740912 1.10909 0.555685 1.10909C 0.370457 1.10909 0.185224 1.01667 -2.82634e-06 1.01667L -2.82634e-06 0.646969L 13.1511 0.646969C 13.2438 0.646969 13.3364 0.64697 13.5216 0.554546C 13.6142 0.462122 13.7068 0.277273 13.7068 3.52571e-07L 14.0773 3.52571e-07L 14.0773 3.88182L 13.7068 3.88182C 13.7068 3.60454 13.6142 3.4197 13.5216 3.32727C 13.429 3.23485 13.3364 3.23485 13.1511 3.23485L 4.7233 3.23485L 4.7233 5.54545L 10.1875 5.54545C 10.2801 5.54545 10.3727 5.54545 10.558 5.45303C 10.6506 5.36061 10.7432 5.17576 10.7432 4.89848L 11.1136 4.89848L 11.1136 8.68788L 10.7432 8.68788C 10.7432 8.41061 10.6506 8.22576 10.558 8.13333C 10.4653 8.04091 10.3727 8.04091 10.1875 8.04091L 4.7233 8.04091L 4.7233 10.9061L 12.8733 10.9061L 12.8733 10.7212Z"/>
<path id="path85_fill" d="M 13.1511 0.64697C 13.2437 0.64697 13.3364 0.64697 13.5216 0.554546C 13.6142 0.462122 13.7068 0.277273 13.7068 3.28357e-15L 14.0773 3.28357e-15L 14.0773 4.25152L 13.7068 4.25152C 13.7068 3.97424 13.6142 3.78939 13.5216 3.69697C 13.429 3.60455 13.3364 3.60455 13.1511 3.60455L 8.98352 3.60455L 8.98352 12.4773C 8.98352 12.6621 9.07614 12.847 9.16875 12.847C 9.35398 12.9394 9.44659 12.9394 9.63182 12.9394L 9.63182 13.4015L 4.44546 13.4015L 4.44546 13.0318C 4.63068 13.0318 4.7233 12.9394 4.90853 12.9394C 5.09375 12.847 5.09375 12.7545 5.09375 12.5697L 5.09375 3.69697L 0.926136 3.69697C 0.833523 3.69697 0.740908 3.69697 0.55568 3.78939C 0.463067 3.88182 0.370456 4.06667 0.370456 4.34394L 0 4.34394L 0 0.0924246L 0.370456 0.0924246C 0.370456 0.369697 0.463067 0.554546 0.55568 0.64697C 0.648294 0.739395 0.740909 0.739393 0.926136 0.739393L 13.1511 0.739393L 13.1511 0.64697Z"/>
<path id="path86_fill" d="M 0.833528 0.831819C 0.833528 0.64697 0.740912 0.46212 0.555685 0.46212C 0.370457 0.46212 0.185224 0.369698 -2.82634e-06 0.369698L -2.82634e-06 -7.05141e-07L 5.18637 -7.05141e-07L 5.18637 0.369698C 5.09375 0.369698 5.00114 0.46212 4.90852 0.46212C 4.81591 0.46212 4.7233 0.64697 4.7233 0.831819L 4.7233 7.85606C 4.7233 8.59545 5.00113 9.15 5.55682 9.42727C 6.1125 9.70455 6.7608 9.88939 7.68693 9.88939C 8.52045 9.88939 9.26137 9.70455 9.81705 9.42727C 10.3727 9.15 10.6506 8.59545 10.6506 7.85606L 10.6506 0.831819C 10.6506 0.64697 10.558 0.46212 10.4653 0.46212C 10.3727 0.369696 10.2801 0.369698 10.1875 0.369698L 10.1875 -7.05141e-07L 15.3739 -7.05141e-07L 15.3739 0.369698C 15.1886 0.369698 14.9108 0.46212 14.8182 0.46212C 14.7256 0.46212 14.5403 0.64697 14.5403 0.831819L 14.5403 7.11667C 14.5403 7.85606 14.4477 8.59546 14.1699 9.33485C 13.9847 9.98182 13.5216 10.6288 13.0585 11.0909C 12.5028 11.6455 11.8546 12.0151 11.021 12.2924C 10.1875 12.5697 9.07614 12.7545 7.77955 12.7545C 6.48296 12.7545 5.46421 12.5697 4.53807 12.2924C 3.70455 12.0151 2.96363 11.6455 2.50056 11.0909C 1.94488 10.5364 1.57443 9.98182 1.3892 9.33485C 1.20397 8.68788 1.01875 7.94848 1.01875 7.11667L 1.01875 0.831819L 0.833528 0.831819Z"/>
</defs>
</svg>
