<svg width="255" height="210" viewBox="0 0 255 210" version="1.1" xmlns="http://www.w3.org/2000/svg" xmlns:xlink="http://www.w3.org/1999/xlink">
<title>Group</title>
<desc>Created using Figma</desc>
<g id="Canvas" transform="translate(26784 16098)">
<g id="Group">
<g id="Group">
<g id="Vector">
<use xlink:href="#path0_fill" transform="translate(-26770.4 -15927.1)"/>
</g>
<g id="Vector">
<use xlink:href="#path1_fill" transform="translate(-26777.4 -15937.6)"/>
</g>
<g id="Vector">
<use xlink:href="#path2_fill" transform="translate(-26781.6 -15951.4)"/>
</g>
<g id="Vector">
<use xlink:href="#path3_fill" transform="translate(-26784 -15971.7)"/>
</g>
<g id="Vector">
<use xlink:href="#path4_fill" transform="translate(-26783.4 -15992.1)"/>
</g>
<g id="Vector">
<use xlink:href="#path5_fill" transform="translate(-26781 -16000.5)"/>
</g>
<g id="Vector">
<use xlink:href="#path6_fill" transform="translate(-26777.4 -16014.5)"/>
</g>
<g id="Vector">
<use xlink:href="#path7_fill" transform="translate(-26773.5 -16030.2)"/>
</g>
<g id="Vector">
<use xlink:href="#path8_fill" transform="translate(-26766.9 -16037.2)"/>
</g>
<g id="Vector">
<use xlink:href="#path9_fill" transform="translate(-26759.4 -16052)"/>
</g>
<g id="Vector">
<use xlink:href="#path10_fill" transform="translate(-26748 -16068.5)"/>
</g>
<g id="Vector">
<use xlink:href="#path11_fill" transform="translate(-26726.6 -16081.9)"/>
</g>
<g id="Vector">
<use xlink:href="#path12_fill" transform="translate(-26711.7 -16088.6)"/>
</g>
<g id="Vector">
<use xlink:href="#path13_fill" transform="translate(-26693.2 -16094.1)"/>
</g>
<g id="Vector">
<use xlink:href="#path14_fill" transform="translate(-26668.3 -16098)"/>
</g>
<g id="Vector">
<use xlink:href="#path15_fill" transform="translate(-26650.3 -16097.1)"/>
</g>
<g id="Vector">
<use xlink:href="#path16_fill" transform="translate(-26631.5 -16094.1)"/>
</g>
<g id="Vector">
<use xlink:href="#path17_fill" transform="translate(-26614.3 -16087.7)"/>
</g>
<g id="Vector">
<use xlink:href="#path18_fill" transform="translate(-26599.4 -16080.2)"/>
</g>
<g id="Vector">
<use xlink:href="#path19_fill" transform="translate(-26586.5 -16070.9)"/>
</g>
<g id="Vector">
<use xlink:href="#path20_fill" transform="translate(-26578.9 -16060.9)"/>
</g>
<g id="Vector">
<use xlink:href="#path21_fill" transform="translate(-26573.8 -16054.6)"/>
</g>
<g id="Vector">
<use xlink:href="#path22_fill" transform="translate(-26561.1 -16036.6)"/>
</g>
<g id="Vector">
<use xlink:href="#path23_fill" transform="translate(-26551.5 -16011.3)"/>
</g>
<g id="Vector">
<use xlink:href="#path24_fill" transform="translate(-26547.9 -15995.5)"/>
</g>
<g id="Vector">
<use xlink:href="#path25_fill" transform="translate(-26546 -15980.7)"/>
</g>
<g id="Vector">
<use xlink:href="#path26_fill" transform="translate(-26547.2 -15962.7)"/>
</g>
<g id="Vector">
<use xlink:href="#path27_fill" transform="translate(-26548.5 -15949.6)"/>
</g>
<g id="Vector">
<use xlink:href="#path28_fill" transform="translate(-26551.3 -15939.9)"/>
</g>
<g id="Vector">
<use xlink:href="#path29_fill" transform="translate(-26556.6 -15926.1)"/>
</g>
</g>
<g id="Subtract">
<use xlink:href="#path30_fill" transform="translate(-26700.7 -16064.8)"/>
</g>
<g id="Group">
<g id="Vector">
<use xlink:href="#path31_fill" transform="translate(-26709.9 -15938.8)"/>
</g>
<g id="Vector">
<use xlink:href="#path32_fill" transform="translate(-26693.2 -15960.3)"/>
</g>
<g id="Vector">
<use xlink:href="#path33_fill" transform="translate(-26732.3 -15915.3)"/>
</g>
<g id="Vector">
<use xlink:href="#path34_fill" transform="translate(-26677.9 -15994)"/>
</g>
</g>
</g>
</g>
<defs>
<path id="path0_fill" d="M 0.332868 14.4257L -2.11632e-07 13.8709L 10.6518 0L 12.4271 3.55094L 11.3175 4.99352L 14.0914 10.3199L 15.8667 10.209L 17.753 13.7599L 0.332868 14.4257ZM 9.65317 7.32383L 6.99023 10.6528L 11.2066 10.4309L 9.65317 7.32383Z"/>
<path id="path1_fill" d="M 11.4724 6.58701C 12.3601 6.2541 12.6929 5.36636 12.471 4.58959C 12.1381 3.70186 11.4724 3.36896 10.6957 3.5909C 9.58616 3.9238 9.80807 5.47733 9.80807 6.80894C 9.80807 9.58311 9.14233 11.2476 6.7013 12.1354C 4.14931 13.0231 1.26446 11.5805 0.376809 8.91732C -0.732752 5.69928 0.709676 3.47992 3.37262 2.37025L 4.59314 5.69927C 3.81644 6.03217 3.26166 6.69797 3.59453 7.69668C 3.81644 8.47345 4.59314 9.02828 5.48078 8.69537C 6.59034 8.36247 6.25748 6.91991 6.25748 5.58831C 6.14652 2.70316 7.14512 1.03866 9.36424 0.261886C 11.9162 -0.625851 14.8011 0.816714 15.6887 3.47992C 16.7983 6.587 15.3559 9.13926 12.6929 10.027L 11.4724 6.58701Z"/>
<path id="path2_fill" d="M 11.5689 6.64852C 12.4565 6.42658 13.0113 5.6498 12.7894 4.76206C 12.5675 3.87432 11.9017 3.43047 11.125 3.54143C 10.0155 3.76337 10.0155 5.31691 9.79357 6.64852C 9.4607 9.31173 8.57305 10.9762 6.02106 11.5311C 3.35812 12.0859 0.695173 10.3104 0.140393 7.53624C -0.525343 4.20723 1.24995 2.20982 3.9129 1.43305L 4.68959 4.87304C 3.80194 5.09497 3.24716 5.76077 3.46907 6.75947C 3.69099 7.53624 4.24577 8.20205 5.24437 7.98012C 6.35393 7.75818 6.24297 6.31561 6.35393 4.98401C 6.57584 2.09887 7.79636 0.545316 10.1264 0.101447C 12.7894 -0.453388 15.4523 1.32209 16.0071 4.09627C 16.6728 7.31431 14.8975 9.64462 12.2346 10.1995L 11.5689 6.64852Z"/>
<path id="path3_fill" d="M 0.0222622 8.66659C -0.310606 3.89501 3.12903 0.233097 7.67823 0.0111625C 12.2274 -0.210772 15.9999 2.8963 16.3328 7.66788C 16.6657 12.4395 13.226 16.1014 8.67683 16.3233C 4.12763 16.6562 0.35513 13.5491 0.0222622 8.66659ZM 12.7822 7.88982C 12.6712 5.22661 10.4521 3.5621 7.90014 3.78404C 5.34815 3.895 3.4619 5.78145 3.57285 8.44466C 3.68381 11.1079 5.90293 12.7724 8.45492 12.5504C 11.0069 12.4395 12.8932 10.664 12.7822 7.88982Z"/>
<path id="path4_fill" d="M 0.0621484 6.21416C 0.395016 3.32901 1.72649 1.44257 3.50178 1.69322e-06L 5.7209 2.88514C 4.61134 3.88385 3.7237 5.10449 3.61274 6.65803C 3.27987 9.32124 5.16612 11.3186 7.71811 11.6515C 10.2701 11.8735 12.4892 10.4309 12.8221 7.65673C 12.933 6.10319 12.4892 4.66062 11.6016 3.55094L 14.2645 1.3316C 15.7069 2.99611 16.5946 5.21545 16.3727 8.10059C 15.8179 12.8722 11.9344 15.8683 7.38524 15.4244C 2.72509 14.8696 -0.492632 10.9857 0.0621484 6.21416Z"/>
<path id="path5_fill" d="M 5.2908e-08 3.66191L 0.776692 1.69322e-06L 15.6448 3.32901L 14.8681 6.99092L 5.2908e-08 3.66191Z"/>
<path id="path6_fill" d="M 1.05816e-07 2.66321L 0.221912 1.99741L 17.5311 -3.38645e-06L 16.1996 3.77288L 14.5352 4.10578L 12.538 9.7651L 13.7585 10.9857L 12.4271 14.7586L 1.05816e-07 2.66321ZM 11.6504 4.43868L 7.43405 4.88255L 10.5408 7.76769L 11.6504 4.43868Z"/>
<path id="path7_fill" d="M 4.43824 7.87866L 2.99581 10.9857L -4.23264e-07 9.54317L 4.5492 -1.69322e-06L 7.54501 1.44257L 6.10258 4.54965L 16.8653 9.65414L 15.201 13.0941L 4.43824 7.87866Z"/>
<path id="path8_fill" d="M -4.23264e-07 3.21805L 1.88625 -8.46612e-07L 14.9791 7.76769L 13.0928 10.9857L -4.23264e-07 3.21805Z"/>
<path id="path9_fill" d="M 1.84414 3.29551C 4.72899 -0.477368 9.72201 -1.0322 13.2726 1.74197C 16.8232 4.51615 17.5999 9.3987 14.715 13.1716C 11.7192 16.9445 6.83716 17.4993 3.28657 14.7251C -0.374981 11.9509 -1.15167 7.06839 1.84414 3.29551ZM 11.9411 11.0632C 13.6055 8.95483 13.0507 6.29162 11.0535 4.73808C 9.05628 3.18455 6.39333 3.29551 4.72899 5.40389C 3.06465 7.51226 3.61944 10.1755 5.61664 11.729C 7.61385 13.2825 10.2768 13.1716 11.9411 11.0632Z"/>
<path id="path10_fill" d="M 1.69305e-06 9.21027L 2.88486 6.54706L 13.4257 9.21027L 7.3231 2.55224L 10.097 4.23306e-07L 20.4159 11.2077L 17.5311 13.8709L 6.99023 11.2077L 13.0928 17.8657L 10.3189 20.4179L 1.69305e-06 9.21027Z"/>
<path id="path11_fill" d="M 8.46527e-07 5.10449L 8.43266 -1.97117e-15L 10.097 2.77418L 4.88206 5.99222L 6.5464 8.7664L 11.3175 5.88125L 12.9819 8.65543L 8.21074 11.5406L 10.9846 16.2012L 7.76692 18.0876L 8.46527e-07 5.10449Z"/>
<path id="path12_fill" d="M 5.02639 0.715023C 9.46463 -1.17142 14.0138 0.82599 15.7891 4.93177C 17.5644 9.14852 15.7891 13.6982 11.4618 15.5846C 7.0236 17.4711 2.4744 15.4736 0.699108 11.2569C -1.07619 7.15111 0.588145 2.60146 5.02639 0.715023ZM 10.0194 12.3666C 12.4604 11.3679 13.3481 8.81562 12.2385 6.37434C 11.2399 4.04404 8.90985 2.8234 6.46882 3.93307C 3.91683 5.04274 3.14014 7.48401 4.2497 9.92529C 5.13734 12.2556 7.46742 13.4762 10.0194 12.3666Z"/>
<path id="path13_fill" d="M 3.38611e-06 1.77177L 6.21354 0.218235C 9.43126 -0.558535 11.9832 0.77307 12.649 3.65821C 13.3147 6.21046 12.3161 7.98593 10.3189 9.0956L 15.6448 13.5343L 11.0956 14.644L 5.99162 10.0943L 7.3231 15.6427L 3.66155 16.5304L 3.38611e-06 1.77177ZM 8.09979 6.54336C 8.87648 6.32142 9.20935 5.32272 8.98744 4.54595C 8.76553 3.65821 7.98883 3.10338 7.10118 3.32531L 4.32728 3.88015L 5.21493 7.20916L 8.09979 6.54336Z"/>
<path id="path14_fill" d="M 7.88868 0.00837886C 10.7735 -0.102588 12.8817 0.896115 14.546 2.56062L 12.105 5.11286C 10.9954 4.11416 9.55301 3.44836 8.11059 3.55933C 5.44764 3.67029 3.67234 5.77867 3.7833 8.33091C 3.89426 10.8832 5.66956 12.8806 8.44346 12.7696C 9.99684 12.7696 11.3283 11.9928 12.3269 10.8832L 14.8789 13.2135C 13.4365 14.878 11.3283 16.0986 8.55441 16.2096C 3.7833 16.4315 0.121757 12.8806 0.0108014 8.33091C -0.211111 3.89223 3.00661 0.230313 7.88868 0.00837886Z"/>
<path id="path15_fill" d="M 9.2773 0.0873589C 14.0484 0.642194 16.9333 4.63701 16.3785 9.18666C 15.8237 13.7363 11.9402 16.8434 7.16913 16.1776C 2.39803 15.6227 -0.486832 11.6279 0.0679483 7.07828C 0.622728 2.6396 4.50619 -0.578444 9.2773 0.0873589ZM 7.61296 12.7376C 10.2759 13.0705 12.2731 11.295 12.606 8.74279C 12.9388 6.19055 11.4964 3.97121 8.83347 3.63831C 6.17052 3.3054 4.17332 5.08088 3.84045 7.63312C 3.50759 10.1854 4.95002 12.4047 7.61296 12.7376Z"/>
<path id="path16_fill" d="M 4.32729 0L 7.65597 0.998704L 8.98744 9.98704L 15.09 3.21805L 18.4187 4.21675L 13.9805 18.7534L 10.4299 17.6438L 12.4271 11.2077L 7.10119 17.1999L 6.54641 16.978L 5.54779 8.98833L 3.5506 15.5354L -6.77222e-06 14.4257L 4.32729 0Z"/>
<path id="path17_fill" d="M 6.43544 2.11653e-07L 12.2052 2.77418C 14.9791 4.10578 15.6448 6.99093 14.6462 9.32124C 13.4257 11.8735 10.6518 12.8722 8.09978 11.6515L 5.65876 10.5419L 3.32867 15.5354L -6.77222e-06 13.9819L 6.43544 2.11653e-07ZM 9.0984 8.4335C 9.98605 8.87737 10.8737 8.32253 11.2066 7.43479C 11.5394 6.65802 11.4285 5.77029 10.5408 5.32642L 8.43266 4.32772L 6.99022 7.43479L 9.0984 8.4335Z"/>
<path id="path18_fill" d="M 6.4809 0L 9.58767 1.99741L 4.37274 9.98704C 3.26318 11.6515 3.707 12.7612 4.81656 13.538C 6.03707 14.3148 7.14664 14.2038 8.2562 12.5393L 13.4711 4.54965L 16.5779 6.54706L 11.0301 14.9806C 9.03289 17.9767 5.70421 18.1986 2.93031 16.4231C 0.0454503 14.5367 -0.95315 11.4296 1.04406 8.4335L 6.4809 0Z"/>
<path id="path19_fill" d="M 7.76692 4.77158L 5.21493 2.55224L 7.3231 -4.23306e-07L 15.4229 6.87996L 13.3147 9.4322L 10.6518 7.21286L 2.88486 16.3122L 0 13.8709L 7.76692 4.77158Z"/>
<path id="path20_fill" d="M 10.8737 1.69322e-06L 13.5366 2.66321L 2.66294 13.3161L 3.38611e-06 10.6528L 10.8737 1.69322e-06Z"/>
<path id="path21_fill" d="M 11.9832 -1.69322e-06L 14.4243 3.10708L 10.9846 13.316L 18.0858 7.76769L 20.4159 10.6528L 8.43266 20.085L 5.99163 16.978L 9.43126 6.65802L 2.33008 12.3173L -6.77222e-06 9.4322L 11.9832 -1.69322e-06Z"/>
<path id="path22_fill" d="M 15.3207 4.3906C 16.6522 6.83187 16.7631 9.05121 16.0974 11.2706L 12.7687 10.1609C 13.1016 8.82928 12.9906 7.38671 12.3249 6.16607C 10.9934 3.83576 8.44141 3.28093 6.11133 4.50157C 3.6703 5.83317 3.00458 8.49638 4.33605 10.7157C 5.66752 13.046 7.55376 13.4899 8.88524 12.8241L 6.77708 9.05121L 9.55098 7.49767L 13.5454 14.8215L 12.3249 15.4873C 8.44142 17.7066 3.78126 17.1518 1.11831 12.2693C -1.21176 8.05251 0.230669 3.28093 4.22509 1.06158C 8.2195 -1.15776 12.9906 0.173847 15.3207 4.3906Z"/>
<path id="path23_fill" d="M 14.5352 -1.69322e-06L 16.3105 6.10319C 17.1982 9.21027 15.8667 11.8735 13.2038 12.6502C 10.6518 13.427 8.87647 12.5393 7.65596 10.5419L 3.32868 16.0902L 1.99721 11.6515L 6.43545 6.32513L 0.998597 7.87866L 3.15356e-14 4.32772L 14.5352 -1.69322e-06ZM 10.097 8.32253C 10.3189 9.0993 11.3175 9.4322 12.2052 9.21027C 13.0928 8.98833 13.6476 8.10059 13.4257 7.32382L 12.649 4.54965L 9.3203 5.54835L 10.097 8.32253Z"/>
<path id="path24_fill" d="M 15.09 1.69322e-06L 16.6434 9.98704L 13.4257 10.5419L 12.4271 4.21675L 9.76414 4.66062L 10.6518 10.4309L 7.43405 10.9857L 6.5464 5.21545L 3.88346 5.65932L 4.88206 12.2064L 1.66434 12.6503L 3.38611e-06 2.44127L 15.09 1.69322e-06Z"/>
<path id="path25_fill" d="M 15.9777 6.99093L 15.9777 7.65673L 0.332871 15.4244L 0.221909 11.4296L 1.7753 10.6528L 1.66434 4.66062L 0.110963 3.99482L -3.15356e-14 -3.38645e-06L 15.9777 6.99093ZM 4.5492 9.21027L 8.3217 7.4348L 4.43824 5.77029L 4.5492 9.21027Z"/>
<path id="path26_fill" d="M 16.4215 1.88644L 15.9777 5.54836L 3.99442 4.10578L 3.21773 10.6528L -6.77222e-06 10.3199L 1.22052 1.69322e-06L 16.4215 1.88644Z"/>
<path id="path27_fill" d="M 15.6448 3.21805L 14.8681 6.87995L -3.38611e-06 3.66191L 0.776685 -3.38645e-06L 15.6448 3.21805Z"/>
<path id="path28_fill" d="M 12.538 3.55094L 13.5366 0.332905L 16.6434 1.3316L 13.5366 11.4296L 10.4299 10.4309L 11.4285 7.10189L -3.38611e-06 3.55094L 1.10956 0L 12.538 3.55094Z"/>
<path id="path29_fill" d="M 8.21075 3.10707L 17.642 1.44257L 15.8667 5.32642L 10.4299 6.21416L 13.3147 10.8748L 11.5394 14.6477L 6.65735 6.43609L -6.77222e-06 3.32901L 1.55339 -6.77289e-06L 8.21075 3.10707Z"/>
<path id="path30_fill" fill-rule="evenodd" d="M 0 35.0652L 28.0723 63.0291C 37.2812 72.3503 52.3711 72.3503 61.6914 63.1404L 89.7637 35.0652L 61.6914 6.99097C 52.3711 -2.33032 37.3926 -2.33032 28.0723 6.99097L 0 35.0652ZM 57.2539 34.7341C 57.2539 41.5974 51.6914 47.1619 44.8281 47.1619C 37.9648 47.1619 32.4004 41.5974 32.4004 34.7341C 32.4004 27.8699 37.9648 22.3054 44.8281 22.3054C 51.6914 22.3054 57.2539 27.8699 57.2539 34.7341Z"/>
<path id="path31_fill" d="M 105.519 18.9754L 92.0935 0L 13.5366 0L 3.38611e-06 18.9754L 105.519 18.9754Z"/>
<path id="path32_fill" d="M 3.38611e-06 17.0889L 72.2324 17.0889L 60.1382 -1.69322e-06L 12.0942 -1.69322e-06L 3.38611e-06 17.0889Z"/>
<path id="path33_fill" d="M 131.15 6.77289e-06L 19.3063 6.77289e-06L -1.69305e-06 27.1869L 150.456 27.1869L 131.15 6.77289e-06Z"/>
<path id="path34_fill" d="M 41.7195 29.2953L 20.8597 -3.38645e-06L -1.69305e-06 29.2953L 41.7195 29.2953Z"/>
</defs>
</svg>
