<svg width="19" height="19" viewBox="0 0 19 19" version="1.1" xmlns="http://www.w3.org/2000/svg" xmlns:xlink="http://www.w3.org/1999/xlink">
<title>Group</title>
<desc>Created using Figma</desc>
<g id="Canvas" transform="translate(28111 8749)">
<g id="Group">
<g id="Group">
<g id="Vector">
<use xlink:href="#path0_fill" transform="translate(-28111 -8749)"/>
</g>
<g id="Vector">
<use xlink:href="#path1_fill" transform="translate(-28106.4 -8744.38)"/>
</g>
<g id="Vector">
<use xlink:href="#path2_fill" transform="translate(-28097.6 -8745.71)"/>
</g>
</g>
</g>
</g>
<defs>
<path id="path0_fill" d="M 9.49623 1.71185C 12.0333 1.71185 12.3312 1.72316 13.3339 1.76841C 14.2613 1.80988 14.7627 1.96448 15.0982 2.09645C 15.5431 2.26989 15.8597 2.47351 16.1915 2.80532C 16.5232 3.13713 16.7306 3.45386 16.9002 3.89879C 17.0284 4.23437 17.1867 4.73586 17.2282 5.66343C 17.2734 6.6664 17.2847 6.96428 17.2847 9.50189C 17.2847 12.0395 17.2734 12.3374 17.2282 13.3403C 17.1867 14.2679 17.0321 14.7694 16.9002 15.105C 16.7268 15.5499 16.5232 15.8666 16.1915 16.1985C 15.8597 16.5303 15.5431 16.7376 15.0982 16.9073C 14.7627 17.0355 14.2613 17.1939 13.3339 17.2354C 12.3312 17.2806 12.0333 17.2919 9.49623 17.2919C 6.95913 17.2919 6.66131 17.2806 5.65853 17.2354C 4.73115 17.1939 4.22976 17.0393 3.89425 16.9073C 3.4494 16.7339 3.13274 16.5303 2.80099 16.1985C 2.46925 15.8666 2.2619 15.5499 2.09226 15.105C 1.96409 14.7694 1.80575 14.2679 1.76429 13.3403C 1.71905 12.3374 1.70774 12.0395 1.70774 9.50189C 1.70774 6.96428 1.71905 6.6664 1.76429 5.66343C 1.80575 4.73586 1.96032 4.23437 2.09226 3.89879C 2.26567 3.45386 2.46925 3.13713 2.80099 2.80532C 3.13274 2.47351 3.4494 2.26612 3.89425 2.09645C 4.22976 1.96825 4.73115 1.80988 5.65853 1.76841C 6.66131 1.71939 6.9629 1.71185 9.49623 1.71185ZM 9.49623 0C 6.91766 0 6.59345 0.0113118 5.57937 0.0565588C 4.56905 0.101806 3.87917 0.263941 3.27599 0.497718C 2.6502 0.739036 2.12242 1.06708 1.59464 1.59496C 1.06687 2.12284 0.742659 2.6545 0.497619 3.27664C 0.263889 3.87994 0.101786 4.56995 0.0565476 5.58424C 0.0113095 6.59476 0 6.91903 0 9.49811C 0 12.0772 0.0113095 12.4015 0.0565476 13.4158C 0.101786 14.4263 0.263889 15.1163 0.497619 15.7234C 0.738889 16.3493 1.06687 16.8772 1.59464 17.405C 2.12242 17.9329 2.65397 18.2572 3.27599 18.5023C 3.87917 18.7361 4.56905 18.8982 5.58314 18.9434C 6.59722 18.9887 6.91766 19 9.5 19C 12.0823 19 12.4028 18.9887 13.4169 18.9434C 14.4272 18.8982 15.1171 18.7361 15.724 18.5023C 16.3498 18.261 16.8776 17.9329 17.4054 17.405C 17.9331 16.8772 18.2573 16.3455 18.5024 15.7234C 18.7361 15.1201 18.8982 14.43 18.9435 13.4158C 18.9887 12.4015 19 12.081 19 9.49811C 19 6.91526 18.9887 6.59476 18.9435 5.58047C 18.8982 4.56995 18.7361 3.87994 18.5024 3.27287C 18.2611 2.64695 17.9331 2.11907 17.4054 1.59119C 16.8776 1.06331 16.346 0.739036 15.724 0.493947C 15.1208 0.260171 14.431 0.0980353 13.4169 0.0527883C 12.399 0.0113118 12.0748 0 9.49623 0Z"/>
<path id="path1_fill" d="M 4.87817 -5.75346e-08C 2.18651 -5.75346e-08 0 2.18317 0 4.87914C 0 7.57511 2.18274 9.75828 4.87817 9.75828C 7.57361 9.75828 9.75635 7.57511 9.75635 4.87914C 9.75635 2.18317 7.57361 -5.75346e-08 4.87817 -5.75346e-08ZM 4.87817 8.04267C 3.12897 8.04267 1.71151 6.62493 1.71151 4.87537C 1.71151 3.12582 3.12897 1.70808 4.87817 1.70808C 6.62738 1.70808 8.04484 3.12582 8.04484 4.87537C 8.04484 6.62493 6.62738 8.04267 4.87817 8.04267Z"/>
<path id="path2_fill" d="M 1.13849 2.27744C 1.76726 2.27744 2.27698 1.76761 2.27698 1.13872C 2.27698 0.509821 1.76726 0 1.13849 0C 0.50972 0 0 0.509821 0 1.13872C 0 1.76761 0.50972 2.27744 1.13849 2.27744Z"/>
</defs>
</svg>
