<svg width="20" height="19" viewBox="0 0 20 19" version="1.1" xmlns="http://www.w3.org/2000/svg" xmlns:xlink="http://www.w3.org/1999/xlink">
<title>Group</title>
<desc>Created using Figma</desc>
<g id="Canvas" transform="translate(28054 8749)">
<g id="Group">
<g id="Vector">
<use xlink:href="#path0_fill" transform="translate(-28053.5 -8749)"/>
</g>
</g>
</g>
<defs>
<path id="path0_fill" d="M 9.71041 0C 12.4392 0 14.7782 0.898182 16.6565 2.72909C 18.5348 4.56 19.4917 6.80545 19.4917 9.46545C 19.4917 12.1255 18.5703 14.3364 16.692 16.1327C 14.7074 18.0327 12.4038 19 9.71041 19C 7.08789 19 4.78433 18.0673 2.87059 16.2018C 0.956865 14.3364 0 12.0909 0 9.5C 0 6.90909 0.956865 4.66364 2.87059 2.76364C 4.74889 0.898182 7.01701 0 9.71041 0ZM 9.74585 1.72727C 7.5486 1.72727 5.67031 2.45273 4.14641 3.97273C 2.55164 5.56182 1.77197 7.39273 1.77197 9.5C 1.77197 11.6073 2.55164 13.4382 4.14641 14.9582C 5.70575 16.4782 7.58404 17.2727 9.78129 17.2727C 11.9431 17.2727 13.8214 16.5127 15.4516 14.9582C 16.9755 13.5073 17.7552 11.7109 17.7552 9.53455C 17.7552 7.39273 16.9755 5.52727 15.4162 4.04182C 13.8214 2.45273 11.9431 1.72727 9.74585 1.72727ZM 12.3684 7.15091L 12.3684 11.02L 11.2697 11.02L 11.2697 15.6145L 8.25739 15.6145L 8.25739 11.02L 7.15877 11.02L 7.15877 7.15091C 7.15877 6.97818 7.22965 6.84 7.33596 6.70182C 7.44228 6.59818 7.61948 6.52909 7.79668 6.52909L 11.8013 6.52909C 11.9785 6.52909 12.1203 6.59818 12.2266 6.70182C 12.2975 6.80545 12.3684 6.97818 12.3684 7.15091ZM 8.36371 4.69818C 8.36371 3.8 8.82442 3.35091 9.71041 3.35091C 10.5964 3.35091 11.0571 3.8 11.0571 4.69818C 11.0571 5.59636 10.5964 6.01091 9.71041 6.01091C 8.82442 6.01091 8.36371 5.56182 8.36371 4.69818Z"/>
</defs>
</svg>
