<svg width="20" height="19" viewBox="0 0 20 19" version="1.1" xmlns="http://www.w3.org/2000/svg" xmlns:xlink="http://www.w3.org/1999/xlink">
<title>Group</title>
<desc>Created using Figma</desc>
<g id="Canvas" transform="translate(28082 8749)">
<g id="Group">
<g id="Group">
<g id="Vector">
<use xlink:href="#path0_fill" transform="translate(-28082 -8749)"/>
</g>
</g>
</g>
</g>
<defs>
<path id="path0_fill" d="M 9.71041 0C 12.4392 0 14.7428 0.932727 16.6565 2.76364C 17.578 3.66182 18.2513 4.66364 18.7475 5.83818C 19.2082 6.97818 19.4563 8.18727 19.4563 9.5C 19.4563 10.8127 19.2082 12.0218 18.7475 13.1618C 18.2868 14.3018 17.578 15.3036 16.6565 16.1673C 15.6997 17.0655 14.6365 17.7909 13.4316 18.2745C 12.2266 18.7582 10.9862 19 9.71041 19C 8.43459 19 7.19421 18.7582 6.02471 18.2745C 4.8552 17.7909 3.79202 17.1 2.87059 16.2018C 1.94917 15.3036 1.24038 14.2673 0.744228 13.1273C 0.248076 11.9527 0 10.7436 0 9.5C 0 8.25636 0.248076 7.04727 0.744228 5.87273C 1.24038 4.69818 1.94917 3.66182 2.90603 2.76364C 4.74889 0.932727 7.01701 0 9.71041 0ZM 9.74585 1.72727C 7.51316 1.72727 5.67031 2.45273 4.14641 3.97273C 3.36675 4.73273 2.79972 5.59636 2.37444 6.52909C 1.94917 7.46182 1.77197 8.46364 1.77197 9.5C 1.77197 10.5018 1.98461 11.5036 2.37444 12.4364C 2.79972 13.3691 3.36675 14.2327 4.14641 14.9582C 4.92608 15.6836 5.77663 16.2709 6.73349 16.6509C 7.69036 17.0309 8.7181 17.2382 9.74585 17.2382C 10.7736 17.2382 11.8013 17.0309 12.7936 16.6509C 13.7859 16.2709 14.6719 15.6836 15.4516 14.9236C 16.9755 13.4727 17.7197 11.6764 17.7197 9.5C 17.7197 8.46364 17.5071 7.46182 17.1173 6.52909C 16.7274 5.59636 16.1604 4.76727 15.3807 4.00727C 13.8568 2.48727 11.9431 1.72727 9.74585 1.72727ZM 9.63953 7.91091L 8.32827 8.56727C 8.18651 8.29091 8.00931 8.08364 7.83212 7.98C 7.61948 7.87636 7.44228 7.80727 7.26509 7.80727C 6.3791 7.80727 5.95383 8.36 5.95383 9.5C 5.95383 10.0182 6.06014 10.3982 6.27278 10.7091C 6.48542 11.02 6.80437 11.1582 7.22965 11.1582C 7.79668 11.1582 8.18651 10.8818 8.43459 10.3291L 9.63953 10.9164C 9.39145 11.3655 9.03706 11.7455 8.57635 12.0218C 8.15107 12.2982 7.65492 12.4364 7.08789 12.4364C 6.2019 12.4364 5.52855 12.16 4.99696 11.6418C 4.46537 11.1236 4.18185 10.3982 4.18185 9.46545C 4.18185 8.56727 4.46537 7.84182 4.99696 7.32364C 5.52855 6.80545 6.2019 6.52909 7.05245 6.52909C 8.25739 6.52909 9.10794 7.01273 9.63953 7.91091ZM 15.239 7.91091L 13.9631 8.56727C 13.8214 8.29091 13.6442 8.08364 13.467 7.98C 13.2544 7.87636 13.0772 7.80727 12.9 7.80727C 12.014 7.80727 11.5887 8.36 11.5887 9.5C 11.5887 10.0182 11.695 10.3982 11.9077 10.7091C 12.1203 11.02 12.4392 11.1582 12.8645 11.1582C 13.4315 11.1582 13.8214 10.8818 14.0695 10.3291L 15.2744 10.9164C 14.9909 11.3655 14.6365 11.7455 14.2112 12.0218C 13.7505 12.2982 13.2544 12.4364 12.7228 12.4364C 11.8368 12.4364 11.128 12.16 10.5964 11.6418C 10.0648 11.1236 9.81673 10.3982 9.81673 9.46545C 9.81673 8.56727 10.1002 7.84182 10.6318 7.32364C 11.1634 6.80545 11.8368 6.52909 12.6873 6.52909C 13.8923 6.52909 14.7428 7.01273 15.239 7.91091Z"/>
</defs>
</svg>
