<svg width="62" height="72" viewBox="0 0 62 72" version="1.1" xmlns="http://www.w3.org/2000/svg" xmlns:xlink="http://www.w3.org/1999/xlink">
<title>Group 2</title>
<desc>Created using Figma</desc>
<g id="Canvas" transform="translate(15886 15203)">
<g id="Group 2">
<g id="Vector">
<use xlink:href="#path0_fill" transform="translate(-15849.5 -15184)"/>
</g>
<g id="Group">
<g id="Group">
<g id="Vector">
<use xlink:href="#path1_stroke" transform="translate(-15840.1 -15199.6)"/>
</g>
<g id="Vector">
<use xlink:href="#path2_stroke" transform="translate(-15866.9 -15158.4)"/>
</g>
<g id="Vector">
<use xlink:href="#path3_stroke" transform="translate(-15869.1 -15161.7)"/>
</g>
<g id="Vector">
<use xlink:href="#path4_stroke" transform="translate(-15864.8 -15155)"/>
</g>
<g id="Vector">
<use xlink:href="#path5_stroke" transform="translate(-15876.7 -15202.5)"/>
</g>
<g id="Vector">
<use xlink:href="#path6_stroke" transform="translate(-15881.1 -15194.9)"/>
</g>
<g id="Vector">
<use xlink:href="#path7_stroke" transform="translate(-15871.8 -15165.7)"/>
</g>
<g id="Vector">
<use xlink:href="#path8_stroke" transform="translate(-15869.5 -15162.4)"/>
</g>
<g id="Vector">
<use xlink:href="#path9_fill" transform="translate(-15885.5 -15187.3)"/>
<use xlink:href="#path10_stroke" transform="translate(-15885.5 -15187.3)"/>
</g>
<g id="Vector">
<use xlink:href="#path11_stroke" transform="translate(-15867.3 -15159)"/>
</g>
<g id="Vector">
<use xlink:href="#path12_stroke" transform="translate(-15865.1 -15155.7)"/>
</g>
<g id="Vector">
<use xlink:href="#path13_stroke" transform="translate(-15878.9 -15198.7)"/>
</g>
<g id="Vector">
<use xlink:href="#path14_stroke" transform="translate(-15883.3 -15195.8)"/>
</g>
</g>
</g>
</g>
</g>
<defs>
<path id="path0_fill" d="M 14.5 1L 0 0L 15 22L 14.5 1Z"/>
<path id="path1_stroke" d="M 15.6 52L 15.9949 52.2335L 16.0588 52.1255L 16.0588 52L 15.6 52ZM 15.6 1.2L 16.0588 1.2L 16.0588 0.775183L 15.6352 0.742601L 15.6 1.2ZM 6.5949 68.1335L 15.9949 52.2335L 15.2051 51.7665L 5.8051 67.6665L 6.5949 68.1335ZM 16.0588 52L 16.0588 1.2L 15.1413 1.2L 15.1413 52L 16.0588 52ZM 15.6352 0.742601L 0.035186 -0.457399L -0.035183 0.457399L 15.5648 1.6574L 15.6352 0.742601Z"/>
<path id="path2_stroke" d="M -0.5 -1.52588e-06L -0.5 15.3L 0.5 15.3L 0.5 -1.52588e-06L -0.5 -1.52588e-06Z"/>
<path id="path3_stroke" d="M -0.5 -7.62939e-07L -0.5 22.8L 0.5 22.8L 0.5 -7.62939e-07L -0.5 -7.62939e-07Z"/>
<path id="path4_stroke" d="M -0.499999 0L -0.499999 8.2L 0.500001 8.2L 0.500001 0L -0.499999 0Z"/>
<path id="path5_stroke" d="M 15 1.2L 15.4121 0.916912L 15.2773 0.720586L 15.0399 0.701592L 15 1.2ZM 42.2 40.8L 41.7879 41.0831L 42.7 42.4111L 42.7 40.8L 42.2 40.8ZM 42.2 19.2L 42.7 19.2L 42.7 18.737L 42.2383 18.7015L 42.2 19.2ZM -0.0398724 0.498408L 14.9601 1.69841L 15.0399 0.701592L 0.0398728 -0.498408L -0.0398724 0.498408ZM 14.5879 1.48309L 41.7879 41.0831L 42.6121 40.5169L 15.4121 0.916912L 14.5879 1.48309ZM 42.7 40.8L 42.7 19.3L 41.7 19.3L 41.7 40.8L 42.7 40.8ZM 42.7 19.3L 42.7 19.2L 41.7 19.2L 41.7 19.3L 42.7 19.3ZM 42.2383 18.7015L 26.6384 17.5015L 26.5617 18.4985L 42.1617 19.6985L 42.2383 18.7015Z"/>
<path id="path6_stroke" d="M 14.4 1.2L 14.8111 0.915349L 14.6767 0.721326L 14.4415 0.701727L 14.4 1.2ZM 46.6 47.7L 46.1889 47.9847L 46.6214 48.6092L 47.024 47.965L 46.6 47.7ZM 51.6 39.7L 52.024 39.965L 52.1 39.8434L 52.1 39.7L 51.6 39.7ZM 51.6 4.1L 52.1 4.1L 52.1 3.63698L 51.6383 3.60147L 51.6 4.1ZM -0.0415226 0.498273L 14.3585 1.69827L 14.4415 0.701727L 0.0415228 -0.498273L -0.0415226 0.498273ZM 13.9889 1.48465L 46.1889 47.9847L 47.0111 47.4153L 14.8111 0.915349L 13.9889 1.48465ZM 47.024 47.965L 52.024 39.965L 51.176 39.435L 46.176 47.435L 47.024 47.965ZM 52.1 39.7L 52.1 4.1L 51.1 4.1L 51.1 39.7L 52.1 39.7ZM 51.6383 3.60147L 36.0383 2.40147L 35.9617 3.39853L 51.5616 4.59853L 51.6383 3.60147Z"/>
<path id="path7_stroke" d="M 2.67636 3.03769L 0.376357 -0.262311L -0.376358 0.262309L 1.92364 3.56231L 2.67636 3.03769Z"/>
<path id="path8_stroke" d="M 2.58515 3.15078L 0.385153 -0.249218L -0.385153 0.249215L 1.81485 3.64922L 2.58515 3.15078Z"/>
<path id="path9_fill" d="M 51 55.4L 13.7 1.2L 0 -1.90735e-07L 0 51.2L 13.7 52.5L 13.7 21.6L 35.4 54.2L 51 55.4Z"/>
<path id="path10_stroke" d="M 51 55.4L 50.9617 55.8985L 52.0053 55.9788L 51.4119 55.1165L 51 55.4ZM 13.7 1.2L 14.1119 0.916542L 13.9783 0.722464L 13.7436 0.701907L 13.7 1.2ZM 0 -1.90735e-07L 0.0436286 -0.498093L -0.5 -0.54571L -0.5 -1.90735e-07L 0 -1.90735e-07ZM 0 51.2L -0.5 51.2L -0.5 51.6548L -0.0472329 51.6978L 0 51.2ZM 13.7 52.5L 13.6528 52.9978L 14.2 53.0497L 14.2 52.5L 13.7 52.5ZM 13.7 21.6L 14.1162 21.3229L 13.2 19.9465L 13.2 21.6L 13.7 21.6ZM 35.4 54.2L 34.9838 54.4771L 35.1188 54.6798L 35.3617 54.6985L 35.4 54.2ZM 51.4119 55.1165L 14.1119 0.916542L 13.2881 1.48346L 50.5881 55.6835L 51.4119 55.1165ZM 13.7436 0.701907L 0.0436286 -0.498093L -0.0436286 0.498093L 13.6564 1.69809L 13.7436 0.701907ZM -0.5 -1.90735e-07L -0.5 51.2L 0.5 51.2L 0.5 -1.90735e-07L -0.5 -1.90735e-07ZM -0.0472329 51.6978L 13.6528 52.9978L 13.7472 52.0022L 0.0472329 50.7022L -0.0472329 51.6978ZM 14.2 52.5L 14.2 21.6L 13.2 21.6L 13.2 52.5L 14.2 52.5ZM 13.2838 21.8771L 34.9838 54.4771L 35.8162 53.9229L 14.1162 21.3229L 13.2838 21.8771ZM 35.3617 54.6985L 50.9617 55.8985L 51.0383 54.9015L 35.4384 53.7015L 35.3617 54.6985Z"/>
<path id="path11_stroke" d="M 2.5817 3.04553L 0.381704 -0.254469L -0.381702 0.254469L 1.8183 3.55447L 2.5817 3.04553Z"/>
<path id="path12_stroke" d="M -0.382223 0.253687L 14.6178 22.8537L 15.3822 22.3463L 0.382222 -0.253688L -0.382223 0.253687Z"/>
<path id="path13_stroke" d="M 14.7 1.2L 15.1098 0.913593L 14.9751 0.720795L 14.7407 0.701658L 14.7 1.2ZM 44.4 43.7L 43.9902 43.9864L 44.4233 44.6062L 44.824 43.965L 44.4 43.7ZM 46.9 39.7L 47.324 39.965L 47.4 39.8434L 47.4 39.7L 46.9 39.7ZM 46.9 11.7L 47.4 11.7L 47.4 11.237L 46.9384 11.2015L 46.9 11.7ZM -0.0406811 0.498342L 14.6593 1.69834L 14.7407 0.701658L 0.0406809 -0.498342L -0.0406811 0.498342ZM 14.2902 1.48641L 43.9902 43.9864L 44.8098 43.4136L 15.1098 0.913593L 14.2902 1.48641ZM 44.824 43.965L 47.324 39.965L 46.476 39.435L 43.976 43.435L 44.824 43.965ZM 47.4 39.7L 47.4 11.7L 46.4 11.7L 46.4 39.7L 47.4 39.7ZM 46.9384 11.2015L 31.3384 10.0015L 31.2617 10.9985L 46.8617 12.1985L 46.9384 11.2015Z"/>
<path id="path14_stroke" d="M 14 5.9L 14.4114 5.61591L 14.2775 5.42196L 14.0427 5.40183L 14 5.9ZM 48.8 56.3L 48.3885 56.5841L 48.819 57.2076L 49.223 56.5666L 48.8 56.3ZM 56.3 44.4L 56.723 44.6666L 56.8 44.5444L 56.8 44.4L 56.3 44.4ZM 56.3 1.2L 56.8 1.2L 56.8 0.736984L 56.3383 0.701472L 56.3 1.2ZM -0.0427005 5.19817L 13.9573 6.39817L 14.0427 5.40183L 0.0427006 4.20183L -0.0427005 5.19817ZM 13.5886 6.1841L 48.3885 56.5841L 49.2114 56.0159L 14.4114 5.61591L 13.5886 6.1841ZM 49.223 56.5666L 56.723 44.6666L 55.877 44.1334L 48.377 56.0334L 49.223 56.5666ZM 56.8 44.4L 56.8 1.2L 55.8 1.2L 55.8 44.4L 56.8 44.4ZM 56.3383 0.701472L 40.7383 -0.498527L 40.6617 0.498527L 56.2617 1.69853L 56.3383 0.701472Z"/>
</defs>
</svg>
