<svg width="275" height="72" viewBox="0 0 275 72" version="1.1" xmlns="http://www.w3.org/2000/svg" xmlns:xlink="http://www.w3.org/1999/xlink">
<title>labMark</title>
<desc>Created using Figma</desc>
<g id="Canvas" transform="translate(15886 15203)">
<g id="labMark">
<g id="New Optical Velocity Electronics Lab">
<use xlink:href="#path0_fill" transform="translate(-15795 -15187)"/>
</g>
<g id="Group 2">
<g id="Vector">
<use xlink:href="#path1_fill" transform="translate(-15849.5 -15184)"/>
</g>
<g id="Group">
<g id="Group">
<g id="Vector">
<use xlink:href="#path2_stroke" transform="translate(-15840.1 -15199.6)"/>
</g>
<g id="Vector">
<use xlink:href="#path3_stroke" transform="translate(-15866.9 -15158.4)"/>
</g>
<g id="Vector">
<use xlink:href="#path4_stroke" transform="translate(-15869.1 -15161.7)"/>
</g>
<g id="Vector">
<use xlink:href="#path5_stroke" transform="translate(-15864.8 -15155)"/>
</g>
<g id="Vector">
<use xlink:href="#path6_stroke" transform="translate(-15876.7 -15202.5)"/>
</g>
<g id="Vector">
<use xlink:href="#path7_stroke" transform="translate(-15881.1 -15194.9)"/>
</g>
<g id="Vector">
<use xlink:href="#path8_stroke" transform="translate(-15871.8 -15165.7)"/>
</g>
<g id="Vector">
<use xlink:href="#path9_stroke" transform="translate(-15869.5 -15162.4)"/>
</g>
<g id="Vector">
<use xlink:href="#path10_fill" transform="translate(-15885.5 -15187.3)"/>
<use xlink:href="#path11_stroke" transform="translate(-15885.5 -15187.3)"/>
</g>
<g id="Vector">
<use xlink:href="#path12_stroke" transform="translate(-15867.3 -15159)"/>
</g>
<g id="Vector">
<use xlink:href="#path13_stroke" transform="translate(-15865.1 -15155.7)"/>
</g>
<g id="Vector">
<use xlink:href="#path14_stroke" transform="translate(-15878.9 -15198.7)"/>
</g>
<g id="Vector">
<use xlink:href="#path15_stroke" transform="translate(-15883.3 -15195.8)"/>
</g>
</g>
</g>
</g>
</g>
</g>
<defs>
<path id="path0_fill" d="M 1.52344 0.654297L 3.81836 0.654297L 11.0645 12.2754L 11.0645 0.654297L 12.9102 0.654297L 12.9102 15L 10.7324 15L 3.37891 3.38867L 3.37891 15L 1.52344 15L 1.52344 0.654297ZM 20.0977 4.30664C 20.8398 4.30664 21.5592 4.48242 22.2559 4.83398C 22.9525 5.17904 23.4831 5.62826 23.8477 6.18164C 24.1992 6.70898 24.4336 7.32422 24.5508 8.02734C 24.6549 8.50911 24.707 9.27734 24.707 10.332L 17.041 10.332C 17.0736 11.3932 17.3242 12.2461 17.793 12.8906C 18.2617 13.5286 18.9876 13.8477 19.9707 13.8477C 20.8887 13.8477 21.6211 13.5449 22.168 12.9395C 22.4805 12.5879 22.7018 12.181 22.832 11.7188L 24.5605 11.7188C 24.515 12.1029 24.362 12.5326 24.1016 13.0078C 23.8477 13.4766 23.5612 13.8607 23.2422 14.1602C 22.7083 14.681 22.0475 15.0326 21.2598 15.2148C 20.8366 15.319 20.3581 15.3711 19.8242 15.3711C 18.5221 15.3711 17.4186 14.8991 16.5137 13.9551C 15.6087 13.0046 15.1562 11.6764 15.1562 9.9707C 15.1562 8.29102 15.612 6.92708 16.5234 5.87891C 17.4349 4.83073 18.6263 4.30664 20.0977 4.30664ZM 22.9004 8.93555C 22.8288 8.17383 22.6628 7.5651 22.4023 7.10938C 21.9206 6.26302 21.1165 5.83984 19.9902 5.83984C 19.1829 5.83984 18.5059 6.13281 17.959 6.71875C 17.4121 7.29818 17.1224 8.03711 17.0898 8.93555L 22.9004 8.93555ZM 27.6855 4.54102L 29.6973 12.7832L 31.7383 4.54102L 33.7109 4.54102L 35.7617 12.7344L 37.9004 4.54102L 39.6582 4.54102L 36.6211 15L 34.7949 15L 32.666 6.9043L 30.6055 15L 28.7793 15L 25.7617 4.54102L 27.6855 4.54102ZM 53.3203 0.263672C 55.8529 0.263672 57.7279 1.07747 58.9453 2.70508C 59.8958 3.97461 60.3711 5.59896 60.3711 7.57812C 60.3711 9.72005 59.8275 11.5007 58.7402 12.9199C 57.4642 14.5866 55.6445 15.4199 53.2812 15.4199C 51.0742 15.4199 49.3392 14.6908 48.0762 13.2324C 46.9499 11.8262 46.3867 10.0488 46.3867 7.90039C 46.3867 5.96029 46.8685 4.30013 47.832 2.91992C 49.069 1.14909 50.8984 0.263672 53.3203 0.263672ZM 53.5156 13.6816C 55.2279 13.6816 56.4648 13.0697 57.2266 11.8457C 57.9948 10.6152 58.3789 9.20247 58.3789 7.60742C 58.3789 5.92122 57.9362 4.5638 57.0508 3.53516C 56.1719 2.50651 54.9674 1.99219 53.4375 1.99219C 51.9531 1.99219 50.7422 2.50326 49.8047 3.52539C 48.8672 4.54102 48.3984 6.04167 48.3984 8.02734C 48.3984 9.61589 48.7988 10.957 49.5996 12.0508C 50.4069 13.138 51.7122 13.6816 53.5156 13.6816ZM 66.875 13.8184C 67.6953 13.8184 68.3757 13.4766 68.916 12.793C 69.4629 12.1029 69.7363 11.0742 69.7363 9.70703C 69.7363 8.8737 69.6159 8.15755 69.375 7.55859C 68.9193 6.40625 68.0859 5.83008 66.875 5.83008C 65.6576 5.83008 64.8242 6.4388 64.375 7.65625C 64.1341 8.30729 64.0137 9.13411 64.0137 10.1367C 64.0137 10.944 64.1341 11.6309 64.375 12.1973C 64.8307 13.278 65.6641 13.8184 66.875 13.8184ZM 62.3242 4.58984L 64.0332 4.58984L 64.0332 5.97656C 64.3848 5.5013 64.7689 5.13346 65.1855 4.87305C 65.778 4.48242 66.4746 4.28711 67.2754 4.28711C 68.4603 4.28711 69.4661 4.74284 70.293 5.6543C 71.1198 6.55924 71.5332 7.85482 71.5332 9.54102C 71.5332 11.8197 70.9375 13.4473 69.7461 14.4238C 68.9909 15.0423 68.112 15.3516 67.1094 15.3516C 66.3216 15.3516 65.6608 15.179 65.127 14.834C 64.8145 14.6387 64.4661 14.3034 64.082 13.8281L 64.082 19.1699L 62.3242 19.1699L 62.3242 4.58984ZM 73.9453 1.62109L 75.7227 1.62109L 75.7227 4.54102L 77.3926 4.54102L 77.3926 5.97656L 75.7227 5.97656L 75.7227 12.8027C 75.7227 13.1673 75.8464 13.4115 76.0938 13.5352C 76.2305 13.6068 76.4583 13.6426 76.7773 13.6426C 76.862 13.6426 76.9531 13.6426 77.0508 13.6426C 77.1484 13.6361 77.2624 13.6263 77.3926 13.6133L 77.3926 15C 77.1908 15.0586 76.9792 15.1009 76.7578 15.127C 76.543 15.153 76.3086 15.166 76.0547 15.166C 75.2344 15.166 74.6777 14.9577 74.3848 14.541C 74.0918 14.1178 73.9453 13.571 73.9453 12.9004L 73.9453 5.97656L 72.5293 5.97656L 72.5293 4.54102L 73.9453 4.54102L 73.9453 1.62109ZM 79.1602 4.58984L 80.9473 4.58984L 80.9473 15L 79.1602 15L 79.1602 4.58984ZM 79.1602 0.654297L 80.9473 0.654297L 80.9473 2.64648L 79.1602 2.64648L 79.1602 0.654297ZM 87.6465 4.23828C 88.8249 4.23828 89.7819 4.52474 90.5176 5.09766C 91.2598 5.67057 91.7057 6.6569 91.8555 8.05664L 90.1465 8.05664C 90.0423 7.41211 89.8047 6.87826 89.4336 6.45508C 89.0625 6.02539 88.4668 5.81055 87.6465 5.81055C 86.5267 5.81055 85.7259 6.35742 85.2441 7.45117C 84.9316 8.16081 84.7754 9.03646 84.7754 10.0781C 84.7754 11.1263 84.9967 12.0085 85.4395 12.7246C 85.8822 13.4408 86.5788 13.7988 87.5293 13.7988C 88.2585 13.7988 88.8346 13.5775 89.2578 13.1348C 89.6875 12.6855 89.9837 12.0736 90.1465 11.2988L 91.8555 11.2988C 91.6602 12.6855 91.1719 13.7012 90.3906 14.3457C 89.6094 14.9837 88.61 15.3027 87.3926 15.3027C 86.0254 15.3027 84.9349 14.8047 84.1211 13.8086C 83.3073 12.806 82.9004 11.556 82.9004 10.0586C 82.9004 8.22266 83.3464 6.79362 84.2383 5.77148C 85.1302 4.74935 86.2663 4.23828 87.6465 4.23828ZM 94.9609 12.2168C 94.9609 12.7246 95.1465 13.125 95.5176 13.418C 95.8887 13.7109 96.3281 13.8574 96.8359 13.8574C 97.4544 13.8574 98.0534 13.7142 98.6328 13.4277C 99.6094 12.9525 100.098 12.1745 100.098 11.0938L 100.098 9.67773C 99.8828 9.81445 99.6061 9.92839 99.2676 10.0195C 98.929 10.1107 98.597 10.1758 98.2715 10.2148L 97.207 10.3516C 96.569 10.4362 96.0905 10.5697 95.7715 10.752C 95.2311 11.0579 94.9609 11.5462 94.9609 12.2168ZM 99.2188 8.66211C 99.6224 8.61003 99.8926 8.44076 100.029 8.1543C 100.107 7.99805 100.146 7.77344 100.146 7.48047C 100.146 6.88151 99.9316 6.44857 99.502 6.18164C 99.0788 5.9082 98.4701 5.77148 97.6758 5.77148C 96.7578 5.77148 96.1068 6.01888 95.7227 6.51367C 95.5078 6.78711 95.3678 7.19401 95.3027 7.73438L 93.6621 7.73438C 93.6947 6.44531 94.1113 5.55013 94.9121 5.04883C 95.7194 4.54102 96.6536 4.28711 97.7148 4.28711C 98.9453 4.28711 99.9447 4.52148 100.713 4.99023C 101.475 5.45898 101.855 6.18815 101.855 7.17773L 101.855 13.2031C 101.855 13.3854 101.891 13.5319 101.963 13.6426C 102.041 13.7533 102.201 13.8086 102.441 13.8086C 102.52 13.8086 102.607 13.8053 102.705 13.7988C 102.803 13.7858 102.907 13.7695 103.018 13.75L 103.018 15.0488C 102.744 15.127 102.536 15.1758 102.393 15.1953C 102.249 15.2148 102.054 15.2246 101.807 15.2246C 101.201 15.2246 100.762 15.0098 100.488 14.5801C 100.345 14.3522 100.244 14.0299 100.186 13.6133C 99.8275 14.082 99.3132 14.4889 98.6426 14.834C 97.972 15.179 97.2331 15.3516 96.4258 15.3516C 95.4557 15.3516 94.6615 15.0586 94.043 14.4727C 93.431 13.8802 93.125 13.1413 93.125 12.2559C 93.125 11.2858 93.4277 10.5339 94.0332 10C 94.6387 9.46615 95.4329 9.13737 96.416 9.01367L 99.2188 8.66211ZM 104.795 0.654297L 106.553 0.654297L 106.553 15L 104.795 15L 104.795 0.654297ZM 116.133 0.654297L 120.254 12.8711L 124.326 0.654297L 126.504 0.654297L 121.27 15L 119.209 15L 113.984 0.654297L 116.133 0.654297ZM 132.461 4.30664C 133.203 4.30664 133.923 4.48242 134.619 4.83398C 135.316 5.17904 135.846 5.62826 136.211 6.18164C 136.562 6.70898 136.797 7.32422 136.914 8.02734C 137.018 8.50911 137.07 9.27734 137.07 10.332L 129.404 10.332C 129.437 11.3932 129.688 12.2461 130.156 12.8906C 130.625 13.5286 131.351 13.8477 132.334 13.8477C 133.252 13.8477 133.984 13.5449 134.531 12.9395C 134.844 12.5879 135.065 12.181 135.195 11.7188L 136.924 11.7188C 136.878 12.1029 136.725 12.5326 136.465 13.0078C 136.211 13.4766 135.924 13.8607 135.605 14.1602C 135.072 14.681 134.411 15.0326 133.623 15.2148C 133.2 15.319 132.721 15.3711 132.188 15.3711C 130.885 15.3711 129.782 14.8991 128.877 13.9551C 127.972 13.0046 127.52 11.6764 127.52 9.9707C 127.52 8.29102 127.975 6.92708 128.887 5.87891C 129.798 4.83073 130.99 4.30664 132.461 4.30664ZM 135.264 8.93555C 135.192 8.17383 135.026 7.5651 134.766 7.10938C 134.284 6.26302 133.48 5.83984 132.354 5.83984C 131.546 5.83984 130.869 6.13281 130.322 6.71875C 129.775 7.29818 129.486 8.03711 129.453 8.93555L 135.264 8.93555ZM 139.287 0.654297L 141.045 0.654297L 141.045 15L 139.287 15L 139.287 0.654297ZM 147.842 13.8672C 149.007 13.8672 149.805 13.4277 150.234 12.5488C 150.671 11.6634 150.889 10.6803 150.889 9.59961C 150.889 8.62305 150.732 7.82878 150.42 7.2168C 149.925 6.25326 149.072 5.77148 147.861 5.77148C 146.787 5.77148 146.006 6.18164 145.518 7.00195C 145.029 7.82227 144.785 8.81185 144.785 9.9707C 144.785 11.084 145.029 12.0117 145.518 12.7539C 146.006 13.4961 146.781 13.8672 147.842 13.8672ZM 147.91 4.23828C 149.258 4.23828 150.397 4.6875 151.328 5.58594C 152.259 6.48438 152.725 7.80599 152.725 9.55078C 152.725 11.237 152.314 12.6302 151.494 13.7305C 150.674 14.8307 149.401 15.3809 147.676 15.3809C 146.237 15.3809 145.094 14.8958 144.248 13.9258C 143.402 12.9492 142.979 11.6406 142.979 10C 142.979 8.24219 143.424 6.84245 144.316 5.80078C 145.208 4.75911 146.406 4.23828 147.91 4.23828ZM 158.857 4.23828C 160.036 4.23828 160.993 4.52474 161.729 5.09766C 162.471 5.67057 162.917 6.6569 163.066 8.05664L 161.357 8.05664C 161.253 7.41211 161.016 6.87826 160.645 6.45508C 160.273 6.02539 159.678 5.81055 158.857 5.81055C 157.738 5.81055 156.937 6.35742 156.455 7.45117C 156.143 8.16081 155.986 9.03646 155.986 10.0781C 155.986 11.1263 156.208 12.0085 156.65 12.7246C 157.093 13.4408 157.79 13.7988 158.74 13.7988C 159.469 13.7988 160.046 13.5775 160.469 13.1348C 160.898 12.6855 161.195 12.0736 161.357 11.2988L 163.066 11.2988C 162.871 12.6855 162.383 13.7012 161.602 14.3457C 160.82 14.9837 159.821 15.3027 158.604 15.3027C 157.236 15.3027 156.146 14.8047 155.332 13.8086C 154.518 12.806 154.111 11.556 154.111 10.0586C 154.111 8.22266 154.557 6.79362 155.449 5.77148C 156.341 4.74935 157.477 4.23828 158.857 4.23828ZM 164.824 4.58984L 166.611 4.58984L 166.611 15L 164.824 15L 164.824 4.58984ZM 164.824 0.654297L 166.611 0.654297L 166.611 2.64648L 164.824 2.64648L 164.824 0.654297ZM 169.629 1.62109L 171.406 1.62109L 171.406 4.54102L 173.076 4.54102L 173.076 5.97656L 171.406 5.97656L 171.406 12.8027C 171.406 13.1673 171.53 13.4115 171.777 13.5352C 171.914 13.6068 172.142 13.6426 172.461 13.6426C 172.546 13.6426 172.637 13.6426 172.734 13.6426C 172.832 13.6361 172.946 13.6263 173.076 13.6133L 173.076 15C 172.874 15.0586 172.663 15.1009 172.441 15.127C 172.227 15.153 171.992 15.166 171.738 15.166C 170.918 15.166 170.361 14.9577 170.068 14.541C 169.775 14.1178 169.629 13.571 169.629 12.9004L 169.629 5.97656L 168.213 5.97656L 168.213 4.54102L 169.629 4.54102L 169.629 1.62109ZM 181.377 4.54102L 183.32 4.54102C 183.073 5.21159 182.523 6.74154 181.67 9.13086C 181.032 10.9277 180.498 12.3926 180.068 13.5254C 179.053 16.1947 178.337 17.8223 177.92 18.4082C 177.503 18.9941 176.787 19.2871 175.771 19.2871C 175.524 19.2871 175.332 19.2773 175.195 19.2578C 175.065 19.2383 174.902 19.2025 174.707 19.1504L 174.707 17.5488C 175.013 17.6335 175.234 17.6855 175.371 17.7051C 175.508 17.7246 175.628 17.7344 175.732 17.7344C 176.058 17.7344 176.296 17.679 176.445 17.5684C 176.602 17.4642 176.732 17.334 176.836 17.1777C 176.868 17.1257 176.986 16.8587 177.188 16.377C 177.389 15.8952 177.536 15.5371 177.627 15.3027L 173.76 4.54102L 175.752 4.54102L 178.555 13.0566L 181.377 4.54102ZM 1.70898 26.6543L 12.168 26.6543L 12.168 28.4121L 3.60352 28.4121L 3.60352 32.7676L 11.5234 32.7676L 11.5234 34.4277L 3.60352 34.4277L 3.60352 39.291L 12.3145 39.291L 12.3145 41L 1.70898 41L 1.70898 26.6543ZM 14.6777 26.6543L 16.4355 26.6543L 16.4355 41L 14.6777 41L 14.6777 26.6543ZM 23.4375 30.3066C 24.1797 30.3066 24.8991 30.4824 25.5957 30.834C 26.2923 31.179 26.8229 31.6283 27.1875 32.1816C 27.5391 32.709 27.7734 33.3242 27.8906 34.0273C 27.9948 34.5091 28.0469 35.2773 28.0469 36.332L 20.3809 36.332C 20.4134 37.3932 20.6641 38.2461 21.1328 38.8906C 21.6016 39.5286 22.3275 39.8477 23.3105 39.8477C 24.2285 39.8477 24.9609 39.5449 25.5078 38.9395C 25.8203 38.5879 26.0417 38.181 26.1719 37.7188L 27.9004 37.7188C 27.8548 38.1029 27.7018 38.5326 27.4414 39.0078C 27.1875 39.4766 26.901 39.8607 26.582 40.1602C 26.0482 40.681 25.3874 41.0326 24.5996 41.2148C 24.1764 41.319 23.6979 41.3711 23.1641 41.3711C 21.862 41.3711 20.7585 40.8991 19.8535 39.9551C 18.9486 39.0046 18.4961 37.6764 18.4961 35.9707C 18.4961 34.291 18.9518 32.9271 19.8633 31.8789C 20.7747 30.8307 21.9661 30.3066 23.4375 30.3066ZM 26.2402 34.9355C 26.1686 34.1738 26.0026 33.5651 25.7422 33.1094C 25.2604 32.263 24.4564 31.8398 23.3301 31.8398C 22.5228 31.8398 21.8457 32.1328 21.2988 32.7188C 20.752 33.2982 20.4622 34.0371 20.4297 34.9355L 26.2402 34.9355ZM 34.248 30.2383C 35.4264 30.2383 36.3835 30.5247 37.1191 31.0977C 37.8613 31.6706 38.3073 32.6569 38.457 34.0566L 36.748 34.0566C 36.6439 33.4121 36.4062 32.8783 36.0352 32.4551C 35.6641 32.0254 35.0684 31.8105 34.248 31.8105C 33.1283 31.8105 32.3275 32.3574 31.8457 33.4512C 31.5332 34.1608 31.377 35.0365 31.377 36.0781C 31.377 37.1263 31.5983 38.0085 32.041 38.7246C 32.4837 39.4408 33.1803 39.7988 34.1309 39.7988C 34.86 39.7988 35.4362 39.5775 35.8594 39.1348C 36.2891 38.6855 36.5853 38.0736 36.748 37.2988L 38.457 37.2988C 38.2617 38.6855 37.7734 39.7012 36.9922 40.3457C 36.2109 40.9837 35.2116 41.3027 33.9941 41.3027C 32.627 41.3027 31.5365 40.8047 30.7227 39.8086C 29.9089 38.806 29.502 37.556 29.502 36.0586C 29.502 34.2227 29.9479 32.7936 30.8398 31.7715C 31.7318 30.7493 32.8678 30.2383 34.248 30.2383ZM 40.5664 27.6211L 42.3438 27.6211L 42.3438 30.541L 44.0137 30.541L 44.0137 31.9766L 42.3438 31.9766L 42.3438 38.8027C 42.3438 39.1673 42.4674 39.4115 42.7148 39.5352C 42.8516 39.6068 43.0794 39.6426 43.3984 39.6426C 43.4831 39.6426 43.5742 39.6426 43.6719 39.6426C 43.7695 39.6361 43.8835 39.6263 44.0137 39.6133L 44.0137 41C 43.8118 41.0586 43.6003 41.1009 43.3789 41.127C 43.1641 41.153 42.9297 41.166 42.6758 41.166C 41.8555 41.166 41.2988 40.9577 41.0059 40.541C 40.7129 40.1178 40.5664 39.571 40.5664 38.9004L 40.5664 31.9766L 39.1504 31.9766L 39.1504 30.541L 40.5664 30.541L 40.5664 27.6211ZM 45.8301 30.541L 47.5 30.541L 47.5 32.3477C 47.6367 31.9961 47.972 31.5697 48.5059 31.0684C 49.0397 30.5605 49.6549 30.3066 50.3516 30.3066C 50.3841 30.3066 50.4395 30.3099 50.5176 30.3164C 50.5957 30.3229 50.7292 30.3359 50.918 30.3555L 50.918 32.2109C 50.8138 32.1914 50.7161 32.1784 50.625 32.1719C 50.5404 32.1654 50.446 32.1621 50.3418 32.1621C 49.4564 32.1621 48.776 32.4486 48.3008 33.0215C 47.8255 33.5879 47.5879 34.2422 47.5879 34.9844L 47.5879 41L 45.8301 41L 45.8301 30.541ZM 56.5918 39.8672C 57.7572 39.8672 58.5547 39.4277 58.9844 38.5488C 59.4206 37.6634 59.6387 36.6803 59.6387 35.5996C 59.6387 34.623 59.4824 33.8288 59.1699 33.2168C 58.6751 32.2533 57.8223 31.7715 56.6113 31.7715C 55.5371 31.7715 54.7559 32.1816 54.2676 33.002C 53.7793 33.8223 53.5352 34.8118 53.5352 35.9707C 53.5352 37.084 53.7793 38.0117 54.2676 38.7539C 54.7559 39.4961 55.5306 39.8672 56.5918 39.8672ZM 56.6602 30.2383C 58.0078 30.2383 59.1471 30.6875 60.0781 31.5859C 61.0091 32.4844 61.4746 33.806 61.4746 35.5508C 61.4746 37.237 61.0645 38.6302 60.2441 39.7305C 59.4238 40.8307 58.151 41.3809 56.4258 41.3809C 54.987 41.3809 53.8444 40.8958 52.998 39.9258C 52.1517 38.9492 51.7285 37.6406 51.7285 36C 51.7285 34.2422 52.1745 32.8424 53.0664 31.8008C 53.9583 30.7591 55.1562 30.2383 56.6602 30.2383ZM 63.5742 30.541L 65.2441 30.541L 65.2441 32.0254C 65.7389 31.4134 66.263 30.974 66.8164 30.707C 67.3698 30.4401 67.985 30.3066 68.6621 30.3066C 70.1465 30.3066 71.1491 30.8242 71.6699 31.8594C 71.9564 32.4258 72.0996 33.2363 72.0996 34.291L 72.0996 41L 70.3125 41L 70.3125 34.4082C 70.3125 33.7702 70.2181 33.2559 70.0293 32.8652C 69.7168 32.2142 69.1504 31.8887 68.3301 31.8887C 67.9134 31.8887 67.5716 31.931 67.3047 32.0156C 66.8229 32.1589 66.3997 32.4453 66.0352 32.875C 65.7422 33.2201 65.5501 33.5781 65.459 33.9492C 65.3743 34.3138 65.332 34.8379 65.332 35.5215L 65.332 41L 63.5742 41L 63.5742 30.541ZM 74.707 30.5898L 76.4941 30.5898L 76.4941 41L 74.707 41L 74.707 30.5898ZM 74.707 26.6543L 76.4941 26.6543L 76.4941 28.6465L 74.707 28.6465L 74.707 26.6543ZM 83.1934 30.2383C 84.3717 30.2383 85.3288 30.5247 86.0645 31.0977C 86.8066 31.6706 87.2526 32.6569 87.4023 34.0566L 85.6934 34.0566C 85.5892 33.4121 85.3516 32.8783 84.9805 32.4551C 84.6094 32.0254 84.0137 31.8105 83.1934 31.8105C 82.0736 31.8105 81.2728 32.3574 80.791 33.4512C 80.4785 34.1608 80.3223 35.0365 80.3223 36.0781C 80.3223 37.1263 80.5436 38.0085 80.9863 38.7246C 81.429 39.4408 82.1257 39.7988 83.0762 39.7988C 83.8053 39.7988 84.3815 39.5775 84.8047 39.1348C 85.2344 38.6855 85.5306 38.0736 85.6934 37.2988L 87.4023 37.2988C 87.207 38.6855 86.7188 39.7012 85.9375 40.3457C 85.1562 40.9837 84.1569 41.3027 82.9395 41.3027C 81.5723 41.3027 80.4818 40.8047 79.668 39.8086C 78.8542 38.806 78.4473 37.556 78.4473 36.0586C 78.4473 34.2227 78.8932 32.7936 79.7852 31.7715C 80.6771 30.7493 81.8132 30.2383 83.1934 30.2383ZM 90.2051 37.7188C 90.2572 38.3047 90.4036 38.7539 90.6445 39.0664C 91.0872 39.6328 91.8555 39.916 92.9492 39.916C 93.6003 39.916 94.1732 39.776 94.668 39.4961C 95.1628 39.2096 95.4102 38.7702 95.4102 38.1777C 95.4102 37.7285 95.2116 37.3867 94.8145 37.1523C 94.5605 37.0091 94.0592 36.8431 93.3105 36.6543L 91.9141 36.3027C 91.0221 36.0814 90.3646 35.834 89.9414 35.5605C 89.1862 35.0853 88.8086 34.4277 88.8086 33.5879C 88.8086 32.5983 89.1634 31.7975 89.873 31.1855C 90.5892 30.5736 91.5495 30.2676 92.7539 30.2676C 94.3294 30.2676 95.4655 30.7298 96.1621 31.6543C 96.5983 32.2402 96.8099 32.8717 96.7969 33.5488L 95.1367 33.5488C 95.1042 33.1517 94.9642 32.7904 94.7168 32.4648C 94.3132 32.0026 93.6133 31.7715 92.6172 31.7715C 91.9531 31.7715 91.4486 31.8984 91.1035 32.1523C 90.765 32.4062 90.5957 32.7415 90.5957 33.1582C 90.5957 33.6139 90.8203 33.9785 91.2695 34.252C 91.5299 34.4147 91.9141 34.5579 92.4219 34.6816L 93.584 34.9648C 94.847 35.2708 95.6934 35.5671 96.123 35.8535C 96.8066 36.3027 97.1484 37.0091 97.1484 37.9727C 97.1484 38.9036 96.7936 39.7077 96.084 40.3848C 95.3809 41.0618 94.3066 41.4004 92.8613 41.4004C 91.3053 41.4004 90.2018 41.0488 89.5508 40.3457C 88.9062 39.6361 88.5612 38.7604 88.5156 37.7188L 90.2051 37.7188ZM 104.961 26.6543L 106.904 26.6543L 106.904 39.291L 114.17 39.291L 114.17 41L 104.961 41L 104.961 26.6543ZM 117.207 38.2168C 117.207 38.7246 117.393 39.125 117.764 39.418C 118.135 39.7109 118.574 39.8574 119.082 39.8574C 119.701 39.8574 120.299 39.7142 120.879 39.4277C 121.855 38.9525 122.344 38.1745 122.344 37.0938L 122.344 35.6777C 122.129 35.8145 121.852 35.9284 121.514 36.0195C 121.175 36.1107 120.843 36.1758 120.518 36.2148L 119.453 36.3516C 118.815 36.4362 118.337 36.5697 118.018 36.752C 117.477 37.0579 117.207 37.5462 117.207 38.2168ZM 121.465 34.6621C 121.868 34.61 122.139 34.4408 122.275 34.1543C 122.354 33.998 122.393 33.7734 122.393 33.4805C 122.393 32.8815 122.178 32.4486 121.748 32.1816C 121.325 31.9082 120.716 31.7715 119.922 31.7715C 119.004 31.7715 118.353 32.0189 117.969 32.5137C 117.754 32.7871 117.614 33.194 117.549 33.7344L 115.908 33.7344C 115.941 32.4453 116.357 31.5501 117.158 31.0488C 117.965 30.541 118.9 30.2871 119.961 30.2871C 121.191 30.2871 122.191 30.5215 122.959 30.9902C 123.721 31.459 124.102 32.1882 124.102 33.1777L 124.102 39.2031C 124.102 39.3854 124.137 39.5319 124.209 39.6426C 124.287 39.7533 124.447 39.8086 124.688 39.8086C 124.766 39.8086 124.854 39.8053 124.951 39.7988C 125.049 39.7858 125.153 39.7695 125.264 39.75L 125.264 41.0488C 124.99 41.127 124.782 41.1758 124.639 41.1953C 124.495 41.2148 124.3 41.2246 124.053 41.2246C 123.447 41.2246 123.008 41.0098 122.734 40.5801C 122.591 40.3522 122.49 40.0299 122.432 39.6133C 122.074 40.082 121.559 40.4889 120.889 40.834C 120.218 41.179 119.479 41.3516 118.672 41.3516C 117.702 41.3516 116.908 41.0586 116.289 40.4727C 115.677 39.8802 115.371 39.1413 115.371 38.2559C 115.371 37.2858 115.674 36.5339 116.279 36C 116.885 35.4661 117.679 35.1374 118.662 35.0137L 121.465 34.6621ZM 126.855 26.6055L 128.564 26.6055L 128.564 31.8105C 128.949 31.3092 129.408 30.9284 129.941 30.668C 130.475 30.401 131.055 30.2676 131.68 30.2676C 132.982 30.2676 134.036 30.7168 134.844 31.6152C 135.658 32.5072 136.064 33.8255 136.064 35.5703C 136.064 37.224 135.664 38.5977 134.863 39.6914C 134.062 40.7852 132.952 41.332 131.533 41.332C 130.739 41.332 130.068 41.14 129.521 40.7559C 129.196 40.528 128.848 40.1634 128.477 39.6621L 128.477 41L 126.855 41L 126.855 26.6055ZM 131.426 39.7793C 132.376 39.7793 133.086 39.4017 133.555 38.6465C 134.03 37.8913 134.268 36.8952 134.268 35.6582C 134.268 34.5579 134.03 33.6465 133.555 32.9238C 133.086 32.2012 132.393 31.8398 131.475 31.8398C 130.674 31.8398 129.971 32.1361 129.365 32.7285C 128.766 33.321 128.467 34.2975 128.467 35.6582C 128.467 36.6413 128.59 37.4388 128.838 38.0508C 129.3 39.2031 130.163 39.7793 131.426 39.7793Z"/>
<path id="path1_fill" d="M 14.5 1L 0 0L 15 22L 14.5 1Z"/>
<path id="path2_stroke" d="M 15.6 52L 15.9949 52.2335L 16.0588 52.1255L 16.0588 52L 15.6 52ZM 15.6 1.2L 16.0588 1.2L 16.0588 0.775183L 15.6352 0.742601L 15.6 1.2ZM 6.5949 68.1335L 15.9949 52.2335L 15.2051 51.7665L 5.8051 67.6665L 6.5949 68.1335ZM 16.0588 52L 16.0588 1.2L 15.1413 1.2L 15.1413 52L 16.0588 52ZM 15.6352 0.742601L 0.035186 -0.457399L -0.035183 0.457399L 15.5648 1.6574L 15.6352 0.742601Z"/>
<path id="path3_stroke" d="M -0.5 -1.52588e-06L -0.5 15.3L 0.5 15.3L 0.5 -1.52588e-06L -0.5 -1.52588e-06Z"/>
<path id="path4_stroke" d="M -0.5 -7.62939e-07L -0.5 22.8L 0.5 22.8L 0.5 -7.62939e-07L -0.5 -7.62939e-07Z"/>
<path id="path5_stroke" d="M -0.499999 0L -0.499999 8.2L 0.500001 8.2L 0.500001 0L -0.499999 0Z"/>
<path id="path6_stroke" d="M 15 1.2L 15.4121 0.916912L 15.2773 0.720586L 15.0399 0.701592L 15 1.2ZM 42.2 40.8L 41.7879 41.0831L 42.7 42.4111L 42.7 40.8L 42.2 40.8ZM 42.2 19.2L 42.7 19.2L 42.7 18.737L 42.2383 18.7015L 42.2 19.2ZM -0.0398724 0.498408L 14.9601 1.69841L 15.0399 0.701592L 0.0398728 -0.498408L -0.0398724 0.498408ZM 14.5879 1.48309L 41.7879 41.0831L 42.6121 40.5169L 15.4121 0.916912L 14.5879 1.48309ZM 42.7 40.8L 42.7 19.3L 41.7 19.3L 41.7 40.8L 42.7 40.8ZM 42.7 19.3L 42.7 19.2L 41.7 19.2L 41.7 19.3L 42.7 19.3ZM 42.2383 18.7015L 26.6384 17.5015L 26.5617 18.4985L 42.1617 19.6985L 42.2383 18.7015Z"/>
<path id="path7_stroke" d="M 14.4 1.2L 14.8111 0.915349L 14.6767 0.721326L 14.4415 0.701727L 14.4 1.2ZM 46.6 47.7L 46.1889 47.9847L 46.6214 48.6092L 47.024 47.965L 46.6 47.7ZM 51.6 39.7L 52.024 39.965L 52.1 39.8434L 52.1 39.7L 51.6 39.7ZM 51.6 4.1L 52.1 4.1L 52.1 3.63698L 51.6383 3.60147L 51.6 4.1ZM -0.0415226 0.498273L 14.3585 1.69827L 14.4415 0.701727L 0.0415228 -0.498273L -0.0415226 0.498273ZM 13.9889 1.48465L 46.1889 47.9847L 47.0111 47.4153L 14.8111 0.915349L 13.9889 1.48465ZM 47.024 47.965L 52.024 39.965L 51.176 39.435L 46.176 47.435L 47.024 47.965ZM 52.1 39.7L 52.1 4.1L 51.1 4.1L 51.1 39.7L 52.1 39.7ZM 51.6383 3.60147L 36.0383 2.40147L 35.9617 3.39853L 51.5616 4.59853L 51.6383 3.60147Z"/>
<path id="path8_stroke" d="M 2.67636 3.03769L 0.376357 -0.262311L -0.376358 0.262309L 1.92364 3.56231L 2.67636 3.03769Z"/>
<path id="path9_stroke" d="M 2.58515 3.15078L 0.385153 -0.249218L -0.385153 0.249215L 1.81485 3.64922L 2.58515 3.15078Z"/>
<path id="path10_fill" d="M 51 55.4L 13.7 1.2L 0 -1.90735e-07L 0 51.2L 13.7 52.5L 13.7 21.6L 35.4 54.2L 51 55.4Z"/>
<path id="path11_stroke" d="M 51 55.4L 50.9617 55.8985L 52.0053 55.9788L 51.4119 55.1165L 51 55.4ZM 13.7 1.2L 14.1119 0.916542L 13.9783 0.722464L 13.7436 0.701907L 13.7 1.2ZM 0 -1.90735e-07L 0.0436286 -0.498093L -0.5 -0.54571L -0.5 -1.90735e-07L 0 -1.90735e-07ZM 0 51.2L -0.5 51.2L -0.5 51.6548L -0.0472329 51.6978L 0 51.2ZM 13.7 52.5L 13.6528 52.9978L 14.2 53.0497L 14.2 52.5L 13.7 52.5ZM 13.7 21.6L 14.1162 21.3229L 13.2 19.9465L 13.2 21.6L 13.7 21.6ZM 35.4 54.2L 34.9838 54.4771L 35.1188 54.6798L 35.3617 54.6985L 35.4 54.2ZM 51.4119 55.1165L 14.1119 0.916542L 13.2881 1.48346L 50.5881 55.6835L 51.4119 55.1165ZM 13.7436 0.701907L 0.0436286 -0.498093L -0.0436286 0.498093L 13.6564 1.69809L 13.7436 0.701907ZM -0.5 -1.90735e-07L -0.5 51.2L 0.5 51.2L 0.5 -1.90735e-07L -0.5 -1.90735e-07ZM -0.0472329 51.6978L 13.6528 52.9978L 13.7472 52.0022L 0.0472329 50.7022L -0.0472329 51.6978ZM 14.2 52.5L 14.2 21.6L 13.2 21.6L 13.2 52.5L 14.2 52.5ZM 13.2838 21.8771L 34.9838 54.4771L 35.8162 53.9229L 14.1162 21.3229L 13.2838 21.8771ZM 35.3617 54.6985L 50.9617 55.8985L 51.0383 54.9015L 35.4384 53.7015L 35.3617 54.6985Z"/>
<path id="path12_stroke" d="M 2.5817 3.04553L 0.381704 -0.254469L -0.381702 0.254469L 1.8183 3.55447L 2.5817 3.04553Z"/>
<path id="path13_stroke" d="M -0.382223 0.253687L 14.6178 22.8537L 15.3822 22.3463L 0.382222 -0.253688L -0.382223 0.253687Z"/>
<path id="path14_stroke" d="M 14.7 1.2L 15.1098 0.913593L 14.9751 0.720795L 14.7407 0.701658L 14.7 1.2ZM 44.4 43.7L 43.9902 43.9864L 44.4233 44.6062L 44.824 43.965L 44.4 43.7ZM 46.9 39.7L 47.324 39.965L 47.4 39.8434L 47.4 39.7L 46.9 39.7ZM 46.9 11.7L 47.4 11.7L 47.4 11.237L 46.9384 11.2015L 46.9 11.7ZM -0.0406811 0.498342L 14.6593 1.69834L 14.7407 0.701658L 0.0406809 -0.498342L -0.0406811 0.498342ZM 14.2902 1.48641L 43.9902 43.9864L 44.8098 43.4136L 15.1098 0.913593L 14.2902 1.48641ZM 44.824 43.965L 47.324 39.965L 46.476 39.435L 43.976 43.435L 44.824 43.965ZM 47.4 39.7L 47.4 11.7L 46.4 11.7L 46.4 39.7L 47.4 39.7ZM 46.9384 11.2015L 31.3384 10.0015L 31.2617 10.9985L 46.8617 12.1985L 46.9384 11.2015Z"/>
<path id="path15_stroke" d="M 14 5.9L 14.4114 5.61591L 14.2775 5.42196L 14.0427 5.40183L 14 5.9ZM 48.8 56.3L 48.3885 56.5841L 48.819 57.2076L 49.223 56.5666L 48.8 56.3ZM 56.3 44.4L 56.723 44.6666L 56.8 44.5444L 56.8 44.4L 56.3 44.4ZM 56.3 1.2L 56.8 1.2L 56.8 0.736984L 56.3383 0.701472L 56.3 1.2ZM -0.0427005 5.19817L 13.9573 6.39817L 14.0427 5.40183L 0.0427006 4.20183L -0.0427005 5.19817ZM 13.5886 6.1841L 48.3885 56.5841L 49.2114 56.0159L 14.4114 5.61591L 13.5886 6.1841ZM 49.223 56.5666L 56.723 44.6666L 55.877 44.1334L 48.377 56.0334L 49.223 56.5666ZM 56.8 44.4L 56.8 1.2L 55.8 1.2L 55.8 44.4L 56.8 44.4ZM 56.3383 0.701472L 40.7383 -0.498527L 40.6617 0.498527L 56.2617 1.69853L 56.3383 0.701472Z"/>
</defs>
</svg>
