<svg width="474" height="126" viewBox="0 0 474 126" version="1.1" xmlns="http://www.w3.org/2000/svg" xmlns:xlink="http://www.w3.org/1999/xlink">
<title>lockup</title>
<desc>Created using Figma</desc>
<g id="Canvas" transform="translate(3059 23174)">
<g id="lockup">
<g id="New Optical Velocity Electronics Lab">
<use xlink:href="#path0_fill" transform="translate(-2900 -23134)"/>
</g>
<g id="Group 2.1">
<g id="Vector">
<use xlink:href="#path1_fill" transform="translate(-2995.58 -23141.8)"/>
</g>
<g id="Group">
<g id="Group">
<g id="Vector">
<use xlink:href="#path2_stroke" transform="translate(-2978.36 -23167.9)"/>
</g>
<g id="Vector">
<use xlink:href="#path3_stroke" transform="translate(-3024.29 -23095.8)"/>
</g>
<g id="Vector">
<use xlink:href="#path4_stroke" transform="translate(-3029.23 -23101.5)"/>
</g>
<g id="Vector">
<use xlink:href="#path5_stroke" transform="translate(-3019.53 -23090.9)"/>
</g>
<g id="Vector">
<use xlink:href="#path6_stroke" transform="translate(-3042.56 -23173)"/>
</g>
<g id="Vector">
<use xlink:href="#path7_stroke" transform="translate(-3050.28 -23159.7)"/>
</g>
<g id="Vector">
<use xlink:href="#path8_stroke" transform="translate(-3033.97 -23108.5)"/>
</g>
<g id="Vector">
<use xlink:href="#path9_stroke" transform="translate(-3029.94 -23102.8)"/>
</g>
<g id="Vector">
<use xlink:href="#path10_fill" transform="translate(-3058 -23146.4)"/>
<use xlink:href="#path11_stroke" transform="translate(-3058 -23146.4)"/>
</g>
<g id="Vector">
<use xlink:href="#path12_stroke" transform="translate(-3026.08 -23096.8)"/>
</g>
<g id="Vector">
<use xlink:href="#path13_stroke" transform="translate(-3022.22 -23091)"/>
</g>
<g id="Vector">
<use xlink:href="#path14_stroke" transform="translate(-3046.42 -23166.3)"/>
</g>
<g id="Vector">
<use xlink:href="#path15_stroke" transform="translate(-3054.14 -23161.3)"/>
</g>
</g>
</g>
</g>
</g>
</g>
<defs>
<path id="path0_fill" d="M 2.35938 1.96875L 7.40625 1.96875L 16.5781 18.0469L 16.5781 1.96875L 21.0625 1.96875L 21.0625 25L 16.25 25L 6.84375 8.64062L 6.84375 25L 2.35938 25L 2.35938 1.96875ZM 31.9219 11.1875C 30.8906 11.1875 30.0885 11.5104 29.5156 12.1562C 28.9531 12.8021 28.599 13.6771 28.4531 14.7812L 35.375 14.7812C 35.3021 13.6042 34.9427 12.7135 34.2969 12.1094C 33.6615 11.4948 32.8698 11.1875 31.9219 11.1875ZM 31.9219 7.51562C 33.3385 7.51562 34.6146 7.78125 35.75 8.3125C 36.8854 8.84375 37.8229 9.68229 38.5625 10.8281C 39.2292 11.8385 39.6615 13.0104 39.8594 14.3438C 39.974 15.125 40.0208 16.25 40 17.7188L 28.3438 17.7188C 28.4062 19.4271 28.9427 20.625 29.9531 21.3125C 30.5677 21.7396 31.3073 21.9531 32.1719 21.9531C 33.0885 21.9531 33.8333 21.6927 34.4062 21.1719C 34.7188 20.8906 34.9948 20.5 35.2344 20L 39.7812 20C 39.6667 21.0104 39.1406 22.0365 38.2031 23.0781C 36.7448 24.7344 34.7031 25.5625 32.0781 25.5625C 29.9115 25.5625 28 24.8646 26.3438 23.4688C 24.6875 22.0729 23.8594 19.8021 23.8594 16.6562C 23.8594 13.7083 24.6042 11.4479 26.0938 9.875C 27.5938 8.30208 29.5365 7.51562 31.9219 7.51562ZM 51.0469 7.96875L 55.5625 7.96875L 58.1562 20.2344L 60.8125 7.96875L 65.4531 7.96875L 60.5156 25L 55.9375 25L 53.2656 12.5938L 50.5625 25L 45.9375 25L 41.1562 7.96875L 45.9375 7.96875L 48.5938 20.1875L 51.0469 7.96875ZM 87.375 21.5625C 89.2812 21.5625 90.7917 20.8594 91.9062 19.4531C 93.0312 18.0469 93.5938 16.0469 93.5938 13.4531C 93.5938 10.8698 93.0312 8.875 91.9062 7.46875C 90.7917 6.05208 89.2812 5.34375 87.375 5.34375C 85.4688 5.34375 83.9479 6.04688 82.8125 7.45312C 81.6771 8.85938 81.1094 10.8594 81.1094 13.4531C 81.1094 16.0469 81.6771 18.0469 82.8125 19.4531C 83.9479 20.8594 85.4688 21.5625 87.375 21.5625ZM 98.4062 13.4531C 98.4062 17.5885 97.2448 20.7552 94.9219 22.9531C 93.1823 24.7448 90.6667 25.6406 87.375 25.6406C 84.0833 25.6406 81.5677 24.7448 79.8281 22.9531C 77.4948 20.7552 76.3281 17.5885 76.3281 13.4531C 76.3281 9.23438 77.4948 6.06771 79.8281 3.95312C 81.5677 2.16146 84.0833 1.26562 87.375 1.26562C 90.6667 1.26562 93.1823 2.16146 94.9219 3.95312C 97.2448 6.06771 98.4062 9.23438 98.4062 13.4531ZM 113.469 16.4844C 113.469 15.1719 113.167 14.0104 112.562 13C 111.969 11.9896 111 11.4844 109.656 11.4844C 108.042 11.4844 106.932 12.25 106.328 13.7812C 106.016 14.5938 105.859 15.625 105.859 16.875C 105.859 18.8542 106.385 20.2448 107.438 21.0469C 108.062 21.5156 108.802 21.75 109.656 21.75C 110.896 21.75 111.839 21.2708 112.484 20.3125C 113.141 19.3542 113.469 18.0781 113.469 16.4844ZM 110.938 7.59375C 112.927 7.59375 114.609 8.32812 115.984 9.79688C 117.37 11.2656 118.062 13.4219 118.062 16.2656C 118.062 19.2656 117.385 21.5521 116.031 23.125C 114.688 24.6979 112.953 25.4844 110.828 25.4844C 109.474 25.4844 108.349 25.1458 107.453 24.4688C 106.964 24.0938 106.484 23.5469 106.016 22.8281L 106.016 31.7031L 101.609 31.7031L 101.609 7.96875L 105.875 7.96875L 105.875 10.4844C 106.354 9.74479 106.865 9.16146 107.406 8.73438C 108.396 7.97396 109.573 7.59375 110.938 7.59375ZM 119.547 11.2969L 119.547 8.125L 121.922 8.125L 121.922 3.375L 126.328 3.375L 126.328 8.125L 129.094 8.125L 129.094 11.2969L 126.328 11.2969L 126.328 20.2969C 126.328 20.9948 126.417 21.4323 126.594 21.6094C 126.771 21.776 127.312 21.8594 128.219 21.8594C 128.354 21.8594 128.495 21.8594 128.641 21.8594C 128.797 21.849 128.948 21.8385 129.094 21.8281L 129.094 25.1562L 126.984 25.2344C 124.88 25.3073 123.443 24.9427 122.672 24.1406C 122.172 23.6302 121.922 22.8438 121.922 21.7812L 121.922 11.2969L 119.547 11.2969ZM 136.531 5.9375L 132.016 5.9375L 132.016 1.82812L 136.531 1.82812L 136.531 5.9375ZM 132.016 7.96875L 136.531 7.96875L 136.531 25L 132.016 25L 132.016 7.96875ZM 151.031 14.0781C 150.948 13.4427 150.734 12.8698 150.391 12.3594C 149.891 11.6719 149.115 11.3281 148.062 11.3281C 146.562 11.3281 145.536 12.0729 144.984 13.5625C 144.693 14.3542 144.547 15.4062 144.547 16.7188C 144.547 17.9688 144.693 18.974 144.984 19.7344C 145.516 21.151 146.516 21.8594 147.984 21.8594C 149.026 21.8594 149.766 21.5781 150.203 21.0156C 150.641 20.4531 150.906 19.724 151 18.8281L 155.547 18.8281C 155.443 20.1823 154.953 21.4635 154.078 22.6719C 152.682 24.6198 150.615 25.5938 147.875 25.5938C 145.135 25.5938 143.12 24.7812 141.828 23.1562C 140.536 21.5312 139.891 19.4219 139.891 16.8281C 139.891 13.901 140.604 11.625 142.031 10C 143.458 8.375 145.427 7.5625 147.938 7.5625C 150.073 7.5625 151.818 8.04167 153.172 9C 154.536 9.95833 155.344 11.651 155.594 14.0781L 151.031 14.0781ZM 168.062 16.7188C 167.781 16.8958 167.495 17.0417 167.203 17.1562C 166.922 17.2604 166.531 17.3594 166.031 17.4531L 165.031 17.6406C 164.094 17.8073 163.422 18.0104 163.016 18.25C 162.328 18.6562 161.984 19.2865 161.984 20.1406C 161.984 20.901 162.193 21.4531 162.609 21.7969C 163.036 22.1302 163.552 22.2969 164.156 22.2969C 165.115 22.2969 165.995 22.0156 166.797 21.4531C 167.609 20.8906 168.031 19.8646 168.062 18.375L 168.062 16.7188ZM 165.359 14.6406C 166.182 14.5365 166.771 14.4062 167.125 14.25C 167.76 13.9792 168.078 13.5573 168.078 12.9844C 168.078 12.2865 167.833 11.8073 167.344 11.5469C 166.865 11.276 166.156 11.1406 165.219 11.1406C 164.167 11.1406 163.422 11.401 162.984 11.9219C 162.672 12.3073 162.464 12.8281 162.359 13.4844L 158.062 13.4844C 158.156 11.9948 158.573 10.7708 159.312 9.8125C 160.49 8.3125 162.51 7.5625 165.375 7.5625C 167.24 7.5625 168.896 7.93229 170.344 8.67188C 171.792 9.41146 172.516 10.8073 172.516 12.8594L 172.516 20.6719C 172.516 21.2135 172.526 21.8698 172.547 22.6406C 172.578 23.224 172.667 23.6198 172.812 23.8281C 172.958 24.0365 173.177 24.2083 173.469 24.3438L 173.469 25L 168.625 25C 168.49 24.6562 168.396 24.3333 168.344 24.0312C 168.292 23.7292 168.25 23.3854 168.219 23C 167.604 23.6667 166.896 24.2344 166.094 24.7031C 165.135 25.2552 164.052 25.5312 162.844 25.5312C 161.302 25.5312 160.026 25.0938 159.016 24.2188C 158.016 23.3333 157.516 22.0833 157.516 20.4688C 157.516 18.375 158.323 16.8594 159.938 15.9219C 160.823 15.4115 162.125 15.0469 163.844 14.8281L 165.359 14.6406ZM 181.031 25L 176.578 25L 176.578 1.96875L 181.031 1.96875L 181.031 25ZM 208.141 1.96875L 213.141 1.96875L 205.281 25L 200.734 25L 192.953 1.96875L 198.094 1.96875L 203.094 19.4531L 208.141 1.96875ZM 222.359 11.1875C 221.328 11.1875 220.526 11.5104 219.953 12.1562C 219.391 12.8021 219.036 13.6771 218.891 14.7812L 225.812 14.7812C 225.74 13.6042 225.38 12.7135 224.734 12.1094C 224.099 11.4948 223.307 11.1875 222.359 11.1875ZM 222.359 7.51562C 223.776 7.51562 225.052 7.78125 226.188 8.3125C 227.323 8.84375 228.26 9.68229 229 10.8281C 229.667 11.8385 230.099 13.0104 230.297 14.3438C 230.411 15.125 230.458 16.25 230.438 17.7188L 218.781 17.7188C 218.844 19.4271 219.38 20.625 220.391 21.3125C 221.005 21.7396 221.745 21.9531 222.609 21.9531C 223.526 21.9531 224.271 21.6927 224.844 21.1719C 225.156 20.8906 225.432 20.5 225.672 20L 230.219 20C 230.104 21.0104 229.578 22.0365 228.641 23.0781C 227.182 24.7344 225.141 25.5625 222.516 25.5625C 220.349 25.5625 218.438 24.8646 216.781 23.4688C 215.125 22.0729 214.297 19.8021 214.297 16.6562C 214.297 13.7083 215.042 11.4479 216.531 9.875C 218.031 8.30208 219.974 7.51562 222.359 7.51562ZM 238 25L 233.547 25L 233.547 1.96875L 238 1.96875L 238 25ZM 250 21.8594C 251.302 21.8594 252.302 21.3958 253 20.4688C 253.698 19.5417 254.047 18.224 254.047 16.5156C 254.047 14.8073 253.698 13.4948 253 12.5781C 252.302 11.651 251.302 11.1875 250 11.1875C 248.698 11.1875 247.693 11.651 246.984 12.5781C 246.286 13.4948 245.938 14.8073 245.938 16.5156C 245.938 18.224 246.286 19.5417 246.984 20.4688C 247.693 21.3958 248.698 21.8594 250 21.8594ZM 258.719 16.5156C 258.719 19.0156 258 21.1562 256.562 22.9375C 255.125 24.7083 252.943 25.5938 250.016 25.5938C 247.089 25.5938 244.906 24.7083 243.469 22.9375C 242.031 21.1562 241.312 19.0156 241.312 16.5156C 241.312 14.0573 242.031 11.9271 243.469 10.125C 244.906 8.32292 247.089 7.42188 250.016 7.42188C 252.943 7.42188 255.125 8.32292 256.562 10.125C 258 11.9271 258.719 14.0573 258.719 16.5156ZM 272.094 14.0781C 272.01 13.4427 271.797 12.8698 271.453 12.3594C 270.953 11.6719 270.177 11.3281 269.125 11.3281C 267.625 11.3281 266.599 12.0729 266.047 13.5625C 265.755 14.3542 265.609 15.4062 265.609 16.7188C 265.609 17.9688 265.755 18.974 266.047 19.7344C 266.578 21.151 267.578 21.8594 269.047 21.8594C 270.089 21.8594 270.828 21.5781 271.266 21.0156C 271.703 20.4531 271.969 19.724 272.062 18.8281L 276.609 18.8281C 276.505 20.1823 276.016 21.4635 275.141 22.6719C 273.745 24.6198 271.677 25.5938 268.938 25.5938C 266.198 25.5938 264.182 24.7812 262.891 23.1562C 261.599 21.5312 260.953 19.4219 260.953 16.8281C 260.953 13.901 261.667 11.625 263.094 10C 264.521 8.375 266.49 7.5625 269 7.5625C 271.135 7.5625 272.88 8.04167 274.234 9C 275.599 9.95833 276.406 11.651 276.656 14.0781L 272.094 14.0781ZM 284.312 5.9375L 279.797 5.9375L 279.797 1.82812L 284.312 1.82812L 284.312 5.9375ZM 279.797 7.96875L 284.312 7.96875L 284.312 25L 279.797 25L 279.797 7.96875ZM 286.891 11.2969L 286.891 8.125L 289.266 8.125L 289.266 3.375L 293.672 3.375L 293.672 8.125L 296.438 8.125L 296.438 11.2969L 293.672 11.2969L 293.672 20.2969C 293.672 20.9948 293.76 21.4323 293.938 21.6094C 294.115 21.776 294.656 21.8594 295.562 21.8594C 295.698 21.8594 295.839 21.8594 295.984 21.8594C 296.141 21.849 296.292 21.8385 296.438 21.8281L 296.438 25.1562L 294.328 25.2344C 292.224 25.3073 290.786 24.9427 290.016 24.1406C 289.516 23.6302 289.266 22.8438 289.266 21.7812L 289.266 11.2969L 286.891 11.2969ZM 299.984 28.2656L 300.547 28.2969C 300.984 28.3177 301.401 28.3021 301.797 28.25C 302.193 28.1979 302.526 28.0781 302.797 27.8906C 303.057 27.7135 303.297 27.3438 303.516 26.7812C 303.745 26.2188 303.839 25.875 303.797 25.75L 297.547 7.96875L 302.5 7.96875L 306.219 20.5312L 309.734 7.96875L 314.469 7.96875L 308.625 24.7188C 307.5 27.9479 306.609 29.9479 305.953 30.7188C 305.297 31.5 303.984 31.8906 302.016 31.8906C 301.62 31.8906 301.302 31.8854 301.062 31.875C 300.823 31.875 300.464 31.8594 299.984 31.8281L 299.984 28.2656ZM 19.4688 44.0469L 7.28125 44.0469L 7.28125 48.9375L 18.4688 48.9375L 18.4688 52.9375L 7.28125 52.9375L 7.28125 58.8594L 20.0312 58.8594L 20.0312 63L 2.57812 63L 2.57812 39.9688L 19.4688 39.9688L 19.4688 44.0469ZM 27.9688 63L 23.5156 63L 23.5156 39.9688L 27.9688 39.9688L 27.9688 63ZM 39.0469 49.1875C 38.0156 49.1875 37.2135 49.5104 36.6406 50.1562C 36.0781 50.8021 35.724 51.6771 35.5781 52.7812L 42.5 52.7812C 42.4271 51.6042 42.0677 50.7135 41.4219 50.1094C 40.7865 49.4948 39.9948 49.1875 39.0469 49.1875ZM 39.0469 45.5156C 40.4635 45.5156 41.7396 45.7812 42.875 46.3125C 44.0104 46.8438 44.9479 47.6823 45.6875 48.8281C 46.3542 49.8385 46.7865 51.0104 46.9844 52.3438C 47.099 53.125 47.1458 54.25 47.125 55.7188L 35.4688 55.7188C 35.5312 57.4271 36.0677 58.625 37.0781 59.3125C 37.6927 59.7396 38.4323 59.9531 39.2969 59.9531C 40.2135 59.9531 40.9583 59.6927 41.5312 59.1719C 41.8438 58.8906 42.1198 58.5 42.3594 58L 46.9062 58C 46.7917 59.0104 46.2656 60.0365 45.3281 61.0781C 43.8698 62.7344 41.8281 63.5625 39.2031 63.5625C 37.0365 63.5625 35.125 62.8646 33.4688 61.4688C 31.8125 60.0729 30.9844 57.8021 30.9844 54.6562C 30.9844 51.7083 31.7292 49.4479 33.2188 47.875C 34.7188 46.3021 36.6615 45.5156 39.0469 45.5156ZM 60.3125 52.0781C 60.2292 51.4427 60.0156 50.8698 59.6719 50.3594C 59.1719 49.6719 58.3958 49.3281 57.3438 49.3281C 55.8438 49.3281 54.8177 50.0729 54.2656 51.5625C 53.974 52.3542 53.8281 53.4062 53.8281 54.7188C 53.8281 55.9688 53.974 56.974 54.2656 57.7344C 54.7969 59.151 55.7969 59.8594 57.2656 59.8594C 58.3073 59.8594 59.0469 59.5781 59.4844 59.0156C 59.9219 58.4531 60.1875 57.724 60.2812 56.8281L 64.8281 56.8281C 64.724 58.1823 64.2344 59.4635 63.3594 60.6719C 61.9635 62.6198 59.8958 63.5938 57.1562 63.5938C 54.4167 63.5938 52.401 62.7812 51.1094 61.1562C 49.8177 59.5312 49.1719 57.4219 49.1719 54.8281C 49.1719 51.901 49.8854 49.625 51.3125 48C 52.7396 46.375 54.7083 45.5625 57.2188 45.5625C 59.3542 45.5625 61.099 46.0417 62.4531 47C 63.8177 47.9583 64.625 49.651 64.875 52.0781L 60.3125 52.0781ZM 66.2031 49.2969L 66.2031 46.125L 68.5781 46.125L 68.5781 41.375L 72.9844 41.375L 72.9844 46.125L 75.75 46.125L 75.75 49.2969L 72.9844 49.2969L 72.9844 58.2969C 72.9844 58.9948 73.0729 59.4323 73.25 59.6094C 73.4271 59.776 73.9688 59.8594 74.875 59.8594C 75.0104 59.8594 75.151 59.8594 75.2969 59.8594C 75.4531 59.849 75.6042 59.8385 75.75 59.8281L 75.75 63.1562L 73.6406 63.2344C 71.5365 63.3073 70.099 62.9427 69.3281 62.1406C 68.8281 61.6302 68.5781 60.8438 68.5781 59.7812L 68.5781 49.2969L 66.2031 49.2969ZM 87.8594 45.5625C 87.9427 45.5625 88.0104 45.5677 88.0625 45.5781C 88.125 45.5781 88.2552 45.5833 88.4531 45.5938L 88.4531 50.1562C 88.1719 50.125 87.9219 50.1042 87.7031 50.0938C 87.4844 50.0833 87.3073 50.0781 87.1719 50.0781C 85.3802 50.0781 84.1771 50.6615 83.5625 51.8281C 83.2188 52.4844 83.0469 53.4948 83.0469 54.8594L 83.0469 63L 78.5625 63L 78.5625 45.9688L 82.8125 45.9688L 82.8125 48.9375C 83.5 47.8021 84.099 47.026 84.6094 46.6094C 85.4427 45.9115 86.526 45.5625 87.8594 45.5625ZM 98.7188 59.8594C 100.021 59.8594 101.021 59.3958 101.719 58.4688C 102.417 57.5417 102.766 56.224 102.766 54.5156C 102.766 52.8073 102.417 51.4948 101.719 50.5781C 101.021 49.651 100.021 49.1875 98.7188 49.1875C 97.4167 49.1875 96.4115 49.651 95.7031 50.5781C 95.0052 51.4948 94.6562 52.8073 94.6562 54.5156C 94.6562 56.224 95.0052 57.5417 95.7031 58.4688C 96.4115 59.3958 97.4167 59.8594 98.7188 59.8594ZM 107.438 54.5156C 107.438 57.0156 106.719 59.1562 105.281 60.9375C 103.844 62.7083 101.661 63.5938 98.7344 63.5938C 95.8073 63.5938 93.625 62.7083 92.1875 60.9375C 90.75 59.1562 90.0312 57.0156 90.0312 54.5156C 90.0312 52.0573 90.75 49.9271 92.1875 48.125C 93.625 46.3229 95.8073 45.4219 98.7344 45.4219C 101.661 45.4219 103.844 46.3229 105.281 48.125C 106.719 49.9271 107.438 52.0573 107.438 54.5156ZM 120.078 45.5625C 121.839 45.5625 123.276 46.026 124.391 46.9531C 125.516 47.8698 126.078 49.3958 126.078 51.5312L 126.078 63L 121.516 63L 121.516 52.6406C 121.516 51.7448 121.396 51.0573 121.156 50.5781C 120.719 49.7031 119.885 49.2656 118.656 49.2656C 117.146 49.2656 116.109 49.9062 115.547 51.1875C 115.255 51.8646 115.109 52.7292 115.109 53.7812L 115.109 63L 110.672 63L 110.672 46L 114.969 46L 114.969 48.4844C 115.542 47.6094 116.083 46.9792 116.594 46.5938C 117.51 45.9062 118.672 45.5625 120.078 45.5625ZM 134.781 43.9375L 130.266 43.9375L 130.266 39.8281L 134.781 39.8281L 134.781 43.9375ZM 130.266 45.9688L 134.781 45.9688L 134.781 63L 130.266 63L 130.266 45.9688ZM 149.281 52.0781C 149.198 51.4427 148.984 50.8698 148.641 50.3594C 148.141 49.6719 147.365 49.3281 146.312 49.3281C 144.812 49.3281 143.786 50.0729 143.234 51.5625C 142.943 52.3542 142.797 53.4062 142.797 54.7188C 142.797 55.9688 142.943 56.974 143.234 57.7344C 143.766 59.151 144.766 59.8594 146.234 59.8594C 147.276 59.8594 148.016 59.5781 148.453 59.0156C 148.891 58.4531 149.156 57.724 149.25 56.8281L 153.797 56.8281C 153.693 58.1823 153.203 59.4635 152.328 60.6719C 150.932 62.6198 148.865 63.5938 146.125 63.5938C 143.385 63.5938 141.37 62.7812 140.078 61.1562C 138.786 59.5312 138.141 57.4219 138.141 54.8281C 138.141 51.901 138.854 49.625 140.281 48C 141.708 46.375 143.677 45.5625 146.188 45.5625C 148.323 45.5625 150.068 46.0417 151.422 47C 152.786 47.9583 153.594 49.651 153.844 52.0781L 149.281 52.0781ZM 160.391 57.5625C 160.484 58.3542 160.688 58.9167 161 59.25C 161.552 59.8438 162.573 60.1406 164.062 60.1406C 164.938 60.1406 165.63 60.0104 166.141 59.75C 166.661 59.4896 166.922 59.099 166.922 58.5781C 166.922 58.0781 166.714 57.6979 166.297 57.4375C 165.88 57.1771 164.333 56.7292 161.656 56.0938C 159.729 55.6146 158.37 55.0156 157.578 54.2969C 156.786 53.5885 156.391 52.5677 156.391 51.2344C 156.391 49.6615 157.005 48.3125 158.234 47.1875C 159.474 46.0521 161.214 45.4844 163.453 45.4844C 165.578 45.4844 167.307 45.9115 168.641 46.7656C 169.984 47.6094 170.755 49.0729 170.953 51.1562L 166.5 51.1562C 166.438 50.5833 166.276 50.1302 166.016 49.7969C 165.526 49.1927 164.693 48.8906 163.516 48.8906C 162.547 48.8906 161.854 49.0417 161.438 49.3438C 161.031 49.6458 160.828 50 160.828 50.4062C 160.828 50.9167 161.047 51.2865 161.484 51.5156C 161.922 51.7552 163.469 52.1667 166.125 52.75C 167.896 53.1667 169.224 53.7969 170.109 54.6406C 170.984 55.4948 171.422 56.5625 171.422 57.8438C 171.422 59.5312 170.792 60.9115 169.531 61.9844C 168.281 63.0469 166.344 63.5781 163.719 63.5781C 161.042 63.5781 159.062 63.0156 157.781 61.8906C 156.51 60.7552 155.875 59.3125 155.875 57.5625L 160.391 57.5625ZM 184 39.9688L 188.812 39.9688L 188.812 58.8594L 200.219 58.8594L 200.219 63L 184 63L 184 39.9688ZM 212.594 54.7188C 212.312 54.8958 212.026 55.0417 211.734 55.1562C 211.453 55.2604 211.062 55.3594 210.562 55.4531L 209.562 55.6406C 208.625 55.8073 207.953 56.0104 207.547 56.25C 206.859 56.6562 206.516 57.2865 206.516 58.1406C 206.516 58.901 206.724 59.4531 207.141 59.7969C 207.568 60.1302 208.083 60.2969 208.688 60.2969C 209.646 60.2969 210.526 60.0156 211.328 59.4531C 212.141 58.8906 212.562 57.8646 212.594 56.375L 212.594 54.7188ZM 209.891 52.6406C 210.714 52.5365 211.302 52.4062 211.656 52.25C 212.292 51.9792 212.609 51.5573 212.609 50.9844C 212.609 50.2865 212.365 49.8073 211.875 49.5469C 211.396 49.276 210.688 49.1406 209.75 49.1406C 208.698 49.1406 207.953 49.401 207.516 49.9219C 207.203 50.3073 206.995 50.8281 206.891 51.4844L 202.594 51.4844C 202.688 49.9948 203.104 48.7708 203.844 47.8125C 205.021 46.3125 207.042 45.5625 209.906 45.5625C 211.771 45.5625 213.427 45.9323 214.875 46.6719C 216.323 47.4115 217.047 48.8073 217.047 50.8594L 217.047 58.6719C 217.047 59.2135 217.057 59.8698 217.078 60.6406C 217.109 61.224 217.198 61.6198 217.344 61.8281C 217.49 62.0365 217.708 62.2083 218 62.3438L 218 63L 213.156 63C 213.021 62.6562 212.927 62.3333 212.875 62.0312C 212.823 61.7292 212.781 61.3854 212.75 61C 212.135 61.6667 211.427 62.2344 210.625 62.7031C 209.667 63.2552 208.583 63.5312 207.375 63.5312C 205.833 63.5312 204.557 63.0938 203.547 62.2188C 202.547 61.3333 202.047 60.0833 202.047 58.4688C 202.047 56.375 202.854 54.8594 204.469 53.9219C 205.354 53.4115 206.656 53.0469 208.375 52.8281L 209.891 52.6406ZM 230.219 45.5938C 232.458 45.5938 234.208 46.401 235.469 48.0156C 236.74 49.6302 237.375 51.7135 237.375 54.2656C 237.375 56.9115 236.75 59.1042 235.5 60.8438C 234.25 62.5833 232.505 63.4531 230.266 63.4531C 228.859 63.4531 227.729 63.1719 226.875 62.6094C 226.365 62.276 225.812 61.6927 225.219 60.8594L 225.219 63L 220.859 63L 220.859 40L 225.297 40L 225.297 48.1875C 225.859 47.3958 226.479 46.7917 227.156 46.375C 227.958 45.8542 228.979 45.5938 230.219 45.5938ZM 229.078 59.7812C 230.224 59.7812 231.115 59.3177 231.75 58.3906C 232.385 57.4635 232.703 56.2448 232.703 54.7344C 232.703 53.526 232.547 52.526 232.234 51.7344C 231.641 50.2344 230.547 49.4844 228.953 49.4844C 227.339 49.4844 226.229 50.2188 225.625 51.6875C 225.312 52.4688 225.156 53.4792 225.156 54.7188C 225.156 56.1771 225.479 57.3854 226.125 58.3438C 226.771 59.3021 227.755 59.7812 229.078 59.7812Z"/>
<path id="path1_fill" d="M 27.042 2.13792L 0 0L 27.042 39.7185L 27.042 2.13792Z"/>
<path id="path2_stroke" d="M 27.3638 91.0731L 28.2243 91.5826L 28.3638 91.3469L 28.3638 91.0731L 27.3638 91.0731ZM 27.3638 2.10169L 28.3638 2.10169L 28.3638 1.17555L 27.4404 1.10462L 27.3638 2.10169ZM 11.7358 119.43L 28.2243 91.5826L 26.5033 90.5636L 10.0149 118.411L 11.7358 119.43ZM 28.3638 91.0731L 28.3638 2.10169L 26.3638 2.10169L 26.3638 91.0731L 28.3638 91.0731ZM 27.4404 1.10462L 0.0765824 -0.997063L -0.0765771 0.997064L 27.2872 3.09875L 27.4404 1.10462Z"/>
<path id="path3_stroke" d="M -1 -2.67243e-06L -1 26.7965L 1 26.7965L 1 -2.67243e-06L -1 -2.67243e-06Z"/>
<path id="path4_stroke" d="M -1 -1.33622e-06L -1 39.932L 1 39.932L 1 -1.33622e-06L -1 -1.33622e-06Z"/>
<path id="path5_stroke" d="M -0.999999 0L -0.999999 14.3615L 1 14.3615L 1 0L -0.999999 0Z"/>
<path id="path6_stroke" d="M 26.3114 2.10169L 27.1352 1.53492L 26.8655 1.14276L 26.391 1.10486L 26.3114 2.10169ZM 74.0227 71.4573L 73.1988 72.0241L 75.0227 74.6754L 75.0227 71.4573L 74.0227 71.4573ZM 74.0227 33.627L 75.0227 33.627L 75.0227 32.7008L 74.0992 32.6299L 74.0227 33.627ZM -0.0796236 0.996825L 26.2317 3.09851L 26.391 1.10486L 0.0796242 -0.996825L -0.0796236 0.996825ZM 25.4875 2.66845L 73.1988 72.0241L 74.8465 70.8906L 27.1352 1.53492L 25.4875 2.66845ZM 75.0227 71.4573L 75.0227 33.8021L 73.0227 33.8021L 73.0227 71.4573L 75.0227 71.4573ZM 75.0227 33.8021L 75.0227 33.627L 73.0227 33.627L 73.0227 33.8021L 75.0227 33.8021ZM 74.0992 32.6299L 46.7354 30.5282L 46.5823 32.5224L 73.9461 34.624L 74.0992 32.6299Z"/>
<path id="path7_stroke" d="M 25.2589 2.10169L 26.0806 1.53179L 25.8118 1.14424L 25.3418 1.10513L 25.2589 2.10169ZM 81.7406 83.542L 80.9189 84.1119L 81.7834 85.3584L 82.5883 84.0726L 81.7406 83.542ZM 90.5111 69.5308L 91.3587 70.0614L 91.5111 69.818L 91.5111 69.5308L 90.5111 69.5308ZM 90.5111 7.18076L 91.5111 7.18076L 91.5111 6.25462L 90.5877 6.1837L 90.5111 7.18076ZM -0.082919 0.996557L 25.176 3.09824L 25.3418 1.10513L 0.0829193 -0.996556L -0.082919 0.996557ZM 24.4372 2.67158L 80.9189 84.1119L 82.5624 82.9721L 26.0806 1.53179L 24.4372 2.67158ZM 82.5883 84.0726L 91.3587 70.0614L 89.6635 69.0002L 80.893 83.0114L 82.5883 84.0726ZM 91.5111 69.5308L 91.5111 7.18076L 89.5111 7.18076L 89.5111 69.5308L 91.5111 69.5308ZM 90.5877 6.1837L 63.2239 4.08201L 63.0707 6.07614L 90.4345 8.17782L 90.5877 6.1837Z"/>
<path id="path8_stroke" d="M 4.41058 5.51705L 0.376169 -0.262582L -0.376169 0.262579L 3.65824 6.04222L 4.41058 5.51705Z"/>
<path id="path9_stroke" d="M 4.24398 5.70529L 0.384979 -0.249488L -0.384979 0.249483L 3.47402 6.20426L 4.24398 5.70529Z"/>
<path id="path10_fill" d="M 89.4586 97.0278L 24.031 2.10169L 0 -3.34054e-07L 0 89.6719L 24.031 91.9488L 24.031 37.8303L 62.0948 94.9262L 89.4586 97.0278Z"/>
<path id="path11_stroke" d="M 89.4586 97.0278L 89.4204 97.5264L 90.4648 97.6066L 89.8703 96.7441L 89.4586 97.0278ZM 24.031 2.10169L 24.4427 1.81793L 24.3091 1.6241L 24.0746 1.60359L 24.031 2.10169ZM 0 -3.34054e-07L 0.0435623 -0.498099L -0.5 -0.545637L -0.5 -3.34054e-07L 0 -3.34054e-07ZM 0 89.6719L -0.5 89.6719L -0.5 90.1268L -0.0471612 90.1697L 0 89.6719ZM 24.031 91.9488L 23.9839 92.4465L 24.531 92.4984L 24.531 91.9488L 24.031 91.9488ZM 24.031 37.8303L 24.4471 37.553L 23.531 36.179L 23.531 37.8303L 24.031 37.8303ZM 62.0948 94.9262L 61.6788 95.2035L 61.8138 95.4061L 62.0565 95.4247L 62.0948 94.9262ZM 89.8703 96.7441L 24.4427 1.81793L 23.6194 2.38544L 89.047 97.3116L 89.8703 96.7441ZM 24.0746 1.60359L 0.0435623 -0.498099L -0.0435623 0.498098L 23.9875 2.59978L 24.0746 1.60359ZM -0.5 -3.34054e-07L -0.5 89.6719L 0.5 89.6719L 0.5 -3.34054e-07L -0.5 -3.34054e-07ZM -0.0471612 90.1697L 23.9839 92.4465L 24.0782 91.451L 0.0471612 89.1742L -0.0471612 90.1697ZM 24.531 91.9488L 24.531 37.8303L 23.531 37.8303L 23.531 91.9488L 24.531 91.9488ZM 23.615 38.1077L 61.6788 95.2035L 62.5109 94.6488L 24.4471 37.553L 23.615 38.1077ZM 62.0565 95.4247L 89.4204 97.5264L 89.4969 96.5293L 62.1331 94.4276L 62.0565 95.4247Z"/>
<path id="path12_stroke" d="M 4.24052 5.5249L 0.381524 -0.254739L -0.381522 0.254739L 3.47748 6.03437L 4.24052 5.5249Z"/>
<path id="path13_stroke" d="M -0.382044 0.253956L 25.9293 39.8357L 26.6934 39.3278L 0.382043 -0.253959L -0.382044 0.253956Z"/>
<path id="path14_stroke" d="M 25.7851 2.10169L 26.6044 1.52828L 26.3349 1.14318L 25.8664 1.10499L 25.7851 2.10169ZM 77.8816 76.5364L 77.0624 77.1098L 77.9281 78.3468L 78.7293 77.067L 77.8816 76.5364ZM 82.2669 69.5308L 83.1145 70.0614L 83.2669 69.818L 83.2669 69.5308L 82.2669 69.5308ZM 82.2669 20.4914L 83.2669 20.4914L 83.2669 19.5653L 82.3434 19.4944L 82.2669 20.4914ZM -0.0812384 0.996695L 25.7039 3.09838L 25.8664 1.10499L 0.0812381 -0.996694L -0.0812384 0.996695ZM 24.9659 2.67509L 77.0624 77.1098L 78.7009 75.963L 26.6044 1.52828L 24.9659 2.67509ZM 78.7293 77.067L 83.1145 70.0614L 81.4192 69.0002L 77.034 76.0058L 78.7293 77.067ZM 83.2669 69.5308L 83.2669 20.4914L 81.2669 20.4914L 81.2669 69.5308L 83.2669 69.5308ZM 82.3434 19.4944L 54.9796 17.3927L 54.8265 19.3868L 82.1903 21.4885L 82.3434 19.4944Z"/>
<path id="path15_stroke" d="M 24.5573 10.3333L 25.3798 9.76451L 25.1119 9.3771L 24.6425 9.33693L 24.5573 10.3333ZM 85.5996 98.6041L 84.7772 99.1729L 85.6377 100.417L 86.4453 99.1379L 85.5996 98.6041ZM 98.7553 77.7624L 99.601 78.2962L 99.7553 78.0516L 99.7553 77.7624L 98.7553 77.7624ZM 98.7553 2.10169L 99.7553 2.10169L 99.7553 1.17555L 98.8319 1.10462L 98.7553 2.10169ZM -0.0852713 9.22796L 24.472 11.3296L 24.6425 9.33693L 0.0852715 7.23525L -0.0852713 9.22796ZM 23.7348 10.9021L 84.7772 99.1729L 86.4221 98.0353L 25.3798 9.76451L 23.7348 10.9021ZM 86.4453 99.1379L 99.601 78.2962L 97.9097 77.2286L 84.754 98.0703L 86.4453 99.1379ZM 99.7553 77.7624L 99.7553 2.10169L 97.7553 2.10169L 97.7553 77.7624L 99.7553 77.7624ZM 98.8319 1.10462L 71.4681 -0.997064L 71.3149 0.997063L 98.6787 3.09875L 98.8319 1.10462Z"/>
</defs>
</svg>
