<svg width="560" height="31" viewBox="0 0 560 31" version="1.1" xmlns="http://www.w3.org/2000/svg" xmlns:xlink="http://www.w3.org/1999/xlink">
<title>New Optical Velocity Electronics Lab</title>
<desc>Created using Figma</desc>
<g id="Canvas" transform="translate(993 23140)">
<g id="New Optical Velocity Electronics Lab">
<use xlink:href="#path0_fill" transform="translate(-995 -23141)"/>
</g>
</g>
<defs>
<path id="path0_fill" d="M 2.35938 1.96875L 7.40625 1.96875L 16.5781 18.0469L 16.5781 1.96875L 21.0625 1.96875L 21.0625 25L 16.25 25L 6.84375 8.64062L 6.84375 25L 2.35938 25L 2.35938 1.96875ZM 31.9219 11.1875C 30.8906 11.1875 30.0885 11.5104 29.5156 12.1562C 28.9531 12.8021 28.599 13.6771 28.4531 14.7812L 35.375 14.7812C 35.3021 13.6042 34.9427 12.7135 34.2969 12.1094C 33.6615 11.4948 32.8698 11.1875 31.9219 11.1875ZM 31.9219 7.51562C 33.3385 7.51562 34.6146 7.78125 35.75 8.3125C 36.8854 8.84375 37.8229 9.68229 38.5625 10.8281C 39.2292 11.8385 39.6615 13.0104 39.8594 14.3438C 39.974 15.125 40.0208 16.25 40 17.7188L 28.3438 17.7188C 28.4062 19.4271 28.9427 20.625 29.9531 21.3125C 30.5677 21.7396 31.3073 21.9531 32.1719 21.9531C 33.0885 21.9531 33.8333 21.6927 34.4062 21.1719C 34.7188 20.8906 34.9948 20.5 35.2344 20L 39.7812 20C 39.6667 21.0104 39.1406 22.0365 38.2031 23.0781C 36.7448 24.7344 34.7031 25.5625 32.0781 25.5625C 29.9115 25.5625 28 24.8646 26.3438 23.4688C 24.6875 22.0729 23.8594 19.8021 23.8594 16.6562C 23.8594 13.7083 24.6042 11.4479 26.0938 9.875C 27.5938 8.30208 29.5365 7.51562 31.9219 7.51562ZM 51.0469 7.96875L 55.5625 7.96875L 58.1562 20.2344L 60.8125 7.96875L 65.4531 7.96875L 60.5156 25L 55.9375 25L 53.2656 12.5938L 50.5625 25L 45.9375 25L 41.1562 7.96875L 45.9375 7.96875L 48.5938 20.1875L 51.0469 7.96875ZM 87.375 21.5625C 89.2812 21.5625 90.7917 20.8594 91.9062 19.4531C 93.0312 18.0469 93.5938 16.0469 93.5938 13.4531C 93.5938 10.8698 93.0312 8.875 91.9062 7.46875C 90.7917 6.05208 89.2812 5.34375 87.375 5.34375C 85.4688 5.34375 83.9479 6.04688 82.8125 7.45312C 81.6771 8.85938 81.1094 10.8594 81.1094 13.4531C 81.1094 16.0469 81.6771 18.0469 82.8125 19.4531C 83.9479 20.8594 85.4688 21.5625 87.375 21.5625ZM 98.4062 13.4531C 98.4062 17.5885 97.2448 20.7552 94.9219 22.9531C 93.1823 24.7448 90.6667 25.6406 87.375 25.6406C 84.0833 25.6406 81.5677 24.7448 79.8281 22.9531C 77.4948 20.7552 76.3281 17.5885 76.3281 13.4531C 76.3281 9.23438 77.4948 6.06771 79.8281 3.95312C 81.5677 2.16146 84.0833 1.26562 87.375 1.26562C 90.6667 1.26562 93.1823 2.16146 94.9219 3.95312C 97.2448 6.06771 98.4062 9.23438 98.4062 13.4531ZM 113.469 16.4844C 113.469 15.1719 113.167 14.0104 112.562 13C 111.969 11.9896 111 11.4844 109.656 11.4844C 108.042 11.4844 106.932 12.25 106.328 13.7812C 106.016 14.5938 105.859 15.625 105.859 16.875C 105.859 18.8542 106.385 20.2448 107.438 21.0469C 108.062 21.5156 108.802 21.75 109.656 21.75C 110.896 21.75 111.839 21.2708 112.484 20.3125C 113.141 19.3542 113.469 18.0781 113.469 16.4844ZM 110.938 7.59375C 112.927 7.59375 114.609 8.32812 115.984 9.79688C 117.37 11.2656 118.062 13.4219 118.062 16.2656C 118.062 19.2656 117.385 21.5521 116.031 23.125C 114.688 24.6979 112.953 25.4844 110.828 25.4844C 109.474 25.4844 108.349 25.1458 107.453 24.4688C 106.964 24.0938 106.484 23.5469 106.016 22.8281L 106.016 31.7031L 101.609 31.7031L 101.609 7.96875L 105.875 7.96875L 105.875 10.4844C 106.354 9.74479 106.865 9.16146 107.406 8.73438C 108.396 7.97396 109.573 7.59375 110.938 7.59375ZM 119.547 11.2969L 119.547 8.125L 121.922 8.125L 121.922 3.375L 126.328 3.375L 126.328 8.125L 129.094 8.125L 129.094 11.2969L 126.328 11.2969L 126.328 20.2969C 126.328 20.9948 126.417 21.4323 126.594 21.6094C 126.771 21.776 127.312 21.8594 128.219 21.8594C 128.354 21.8594 128.495 21.8594 128.641 21.8594C 128.797 21.849 128.948 21.8385 129.094 21.8281L 129.094 25.1562L 126.984 25.2344C 124.88 25.3073 123.443 24.9427 122.672 24.1406C 122.172 23.6302 121.922 22.8438 121.922 21.7812L 121.922 11.2969L 119.547 11.2969ZM 136.531 5.9375L 132.016 5.9375L 132.016 1.82812L 136.531 1.82812L 136.531 5.9375ZM 132.016 7.96875L 136.531 7.96875L 136.531 25L 132.016 25L 132.016 7.96875ZM 151.031 14.0781C 150.948 13.4427 150.734 12.8698 150.391 12.3594C 149.891 11.6719 149.115 11.3281 148.062 11.3281C 146.562 11.3281 145.536 12.0729 144.984 13.5625C 144.693 14.3542 144.547 15.4062 144.547 16.7188C 144.547 17.9688 144.693 18.974 144.984 19.7344C 145.516 21.151 146.516 21.8594 147.984 21.8594C 149.026 21.8594 149.766 21.5781 150.203 21.0156C 150.641 20.4531 150.906 19.724 151 18.8281L 155.547 18.8281C 155.443 20.1823 154.953 21.4635 154.078 22.6719C 152.682 24.6198 150.615 25.5938 147.875 25.5938C 145.135 25.5938 143.12 24.7812 141.828 23.1562C 140.536 21.5312 139.891 19.4219 139.891 16.8281C 139.891 13.901 140.604 11.625 142.031 10C 143.458 8.375 145.427 7.5625 147.938 7.5625C 150.073 7.5625 151.818 8.04167 153.172 9C 154.536 9.95833 155.344 11.651 155.594 14.0781L 151.031 14.0781ZM 168.062 16.7188C 167.781 16.8958 167.495 17.0417 167.203 17.1562C 166.922 17.2604 166.531 17.3594 166.031 17.4531L 165.031 17.6406C 164.094 17.8073 163.422 18.0104 163.016 18.25C 162.328 18.6562 161.984 19.2865 161.984 20.1406C 161.984 20.901 162.193 21.4531 162.609 21.7969C 163.036 22.1302 163.552 22.2969 164.156 22.2969C 165.115 22.2969 165.995 22.0156 166.797 21.4531C 167.609 20.8906 168.031 19.8646 168.062 18.375L 168.062 16.7188ZM 165.359 14.6406C 166.182 14.5365 166.771 14.4062 167.125 14.25C 167.76 13.9792 168.078 13.5573 168.078 12.9844C 168.078 12.2865 167.833 11.8073 167.344 11.5469C 166.865 11.276 166.156 11.1406 165.219 11.1406C 164.167 11.1406 163.422 11.401 162.984 11.9219C 162.672 12.3073 162.464 12.8281 162.359 13.4844L 158.062 13.4844C 158.156 11.9948 158.573 10.7708 159.312 9.8125C 160.49 8.3125 162.51 7.5625 165.375 7.5625C 167.24 7.5625 168.896 7.93229 170.344 8.67188C 171.792 9.41146 172.516 10.8073 172.516 12.8594L 172.516 20.6719C 172.516 21.2135 172.526 21.8698 172.547 22.6406C 172.578 23.224 172.667 23.6198 172.812 23.8281C 172.958 24.0365 173.177 24.2083 173.469 24.3438L 173.469 25L 168.625 25C 168.49 24.6562 168.396 24.3333 168.344 24.0312C 168.292 23.7292 168.25 23.3854 168.219 23C 167.604 23.6667 166.896 24.2344 166.094 24.7031C 165.135 25.2552 164.052 25.5312 162.844 25.5312C 161.302 25.5312 160.026 25.0938 159.016 24.2188C 158.016 23.3333 157.516 22.0833 157.516 20.4688C 157.516 18.375 158.323 16.8594 159.938 15.9219C 160.823 15.4115 162.125 15.0469 163.844 14.8281L 165.359 14.6406ZM 181.031 25L 176.578 25L 176.578 1.96875L 181.031 1.96875L 181.031 25ZM 208.141 1.96875L 213.141 1.96875L 205.281 25L 200.734 25L 192.953 1.96875L 198.094 1.96875L 203.094 19.4531L 208.141 1.96875ZM 222.359 11.1875C 221.328 11.1875 220.526 11.5104 219.953 12.1562C 219.391 12.8021 219.036 13.6771 218.891 14.7812L 225.812 14.7812C 225.74 13.6042 225.38 12.7135 224.734 12.1094C 224.099 11.4948 223.307 11.1875 222.359 11.1875ZM 222.359 7.51562C 223.776 7.51562 225.052 7.78125 226.188 8.3125C 227.323 8.84375 228.26 9.68229 229 10.8281C 229.667 11.8385 230.099 13.0104 230.297 14.3438C 230.411 15.125 230.458 16.25 230.438 17.7188L 218.781 17.7188C 218.844 19.4271 219.38 20.625 220.391 21.3125C 221.005 21.7396 221.745 21.9531 222.609 21.9531C 223.526 21.9531 224.271 21.6927 224.844 21.1719C 225.156 20.8906 225.432 20.5 225.672 20L 230.219 20C 230.104 21.0104 229.578 22.0365 228.641 23.0781C 227.182 24.7344 225.141 25.5625 222.516 25.5625C 220.349 25.5625 218.438 24.8646 216.781 23.4688C 215.125 22.0729 214.297 19.8021 214.297 16.6562C 214.297 13.7083 215.042 11.4479 216.531 9.875C 218.031 8.30208 219.974 7.51562 222.359 7.51562ZM 238 25L 233.547 25L 233.547 1.96875L 238 1.96875L 238 25ZM 250 21.8594C 251.302 21.8594 252.302 21.3958 253 20.4688C 253.698 19.5417 254.047 18.224 254.047 16.5156C 254.047 14.8073 253.698 13.4948 253 12.5781C 252.302 11.651 251.302 11.1875 250 11.1875C 248.698 11.1875 247.693 11.651 246.984 12.5781C 246.286 13.4948 245.938 14.8073 245.938 16.5156C 245.938 18.224 246.286 19.5417 246.984 20.4688C 247.693 21.3958 248.698 21.8594 250 21.8594ZM 258.719 16.5156C 258.719 19.0156 258 21.1562 256.562 22.9375C 255.125 24.7083 252.943 25.5938 250.016 25.5938C 247.089 25.5938 244.906 24.7083 243.469 22.9375C 242.031 21.1562 241.312 19.0156 241.312 16.5156C 241.312 14.0573 242.031 11.9271 243.469 10.125C 244.906 8.32292 247.089 7.42188 250.016 7.42188C 252.943 7.42188 255.125 8.32292 256.562 10.125C 258 11.9271 258.719 14.0573 258.719 16.5156ZM 272.094 14.0781C 272.01 13.4427 271.797 12.8698 271.453 12.3594C 270.953 11.6719 270.177 11.3281 269.125 11.3281C 267.625 11.3281 266.599 12.0729 266.047 13.5625C 265.755 14.3542 265.609 15.4062 265.609 16.7188C 265.609 17.9688 265.755 18.974 266.047 19.7344C 266.578 21.151 267.578 21.8594 269.047 21.8594C 270.089 21.8594 270.828 21.5781 271.266 21.0156C 271.703 20.4531 271.969 19.724 272.062 18.8281L 276.609 18.8281C 276.505 20.1823 276.016 21.4635 275.141 22.6719C 273.745 24.6198 271.677 25.5938 268.938 25.5938C 266.198 25.5938 264.182 24.7812 262.891 23.1562C 261.599 21.5312 260.953 19.4219 260.953 16.8281C 260.953 13.901 261.667 11.625 263.094 10C 264.521 8.375 266.49 7.5625 269 7.5625C 271.135 7.5625 272.88 8.04167 274.234 9C 275.599 9.95833 276.406 11.651 276.656 14.0781L 272.094 14.0781ZM 284.312 5.9375L 279.797 5.9375L 279.797 1.82812L 284.312 1.82812L 284.312 5.9375ZM 279.797 7.96875L 284.312 7.96875L 284.312 25L 279.797 25L 279.797 7.96875ZM 286.891 11.2969L 286.891 8.125L 289.266 8.125L 289.266 3.375L 293.672 3.375L 293.672 8.125L 296.438 8.125L 296.438 11.2969L 293.672 11.2969L 293.672 20.2969C 293.672 20.9948 293.76 21.4323 293.938 21.6094C 294.115 21.776 294.656 21.8594 295.562 21.8594C 295.698 21.8594 295.839 21.8594 295.984 21.8594C 296.141 21.849 296.292 21.8385 296.438 21.8281L 296.438 25.1562L 294.328 25.2344C 292.224 25.3073 290.786 24.9427 290.016 24.1406C 289.516 23.6302 289.266 22.8438 289.266 21.7812L 289.266 11.2969L 286.891 11.2969ZM 299.984 28.2656L 300.547 28.2969C 300.984 28.3177 301.401 28.3021 301.797 28.25C 302.193 28.1979 302.526 28.0781 302.797 27.8906C 303.057 27.7135 303.297 27.3438 303.516 26.7812C 303.745 26.2188 303.839 25.875 303.797 25.75L 297.547 7.96875L 302.5 7.96875L 306.219 20.5312L 309.734 7.96875L 314.469 7.96875L 308.625 24.7188C 307.5 27.9479 306.609 29.9479 305.953 30.7188C 305.297 31.5 303.984 31.8906 302.016 31.8906C 301.62 31.8906 301.302 31.8854 301.062 31.875C 300.823 31.875 300.464 31.8594 299.984 31.8281L 299.984 28.2656ZM 343.406 6.04688L 331.219 6.04688L 331.219 10.9375L 342.406 10.9375L 342.406 14.9375L 331.219 14.9375L 331.219 20.8594L 343.969 20.8594L 343.969 25L 326.516 25L 326.516 1.96875L 343.406 1.96875L 343.406 6.04688ZM 351.906 25L 347.453 25L 347.453 1.96875L 351.906 1.96875L 351.906 25ZM 362.984 11.1875C 361.953 11.1875 361.151 11.5104 360.578 12.1562C 360.016 12.8021 359.661 13.6771 359.516 14.7812L 366.438 14.7812C 366.365 13.6042 366.005 12.7135 365.359 12.1094C 364.724 11.4948 363.932 11.1875 362.984 11.1875ZM 362.984 7.51562C 364.401 7.51562 365.677 7.78125 366.812 8.3125C 367.948 8.84375 368.885 9.68229 369.625 10.8281C 370.292 11.8385 370.724 13.0104 370.922 14.3438C 371.036 15.125 371.083 16.25 371.062 17.7188L 359.406 17.7188C 359.469 19.4271 360.005 20.625 361.016 21.3125C 361.63 21.7396 362.37 21.9531 363.234 21.9531C 364.151 21.9531 364.896 21.6927 365.469 21.1719C 365.781 20.8906 366.057 20.5 366.297 20L 370.844 20C 370.729 21.0104 370.203 22.0365 369.266 23.0781C 367.807 24.7344 365.766 25.5625 363.141 25.5625C 360.974 25.5625 359.062 24.8646 357.406 23.4688C 355.75 22.0729 354.922 19.8021 354.922 16.6562C 354.922 13.7083 355.667 11.4479 357.156 9.875C 358.656 8.30208 360.599 7.51562 362.984 7.51562ZM 384.25 14.0781C 384.167 13.4427 383.953 12.8698 383.609 12.3594C 383.109 11.6719 382.333 11.3281 381.281 11.3281C 379.781 11.3281 378.755 12.0729 378.203 13.5625C 377.911 14.3542 377.766 15.4062 377.766 16.7188C 377.766 17.9688 377.911 18.974 378.203 19.7344C 378.734 21.151 379.734 21.8594 381.203 21.8594C 382.245 21.8594 382.984 21.5781 383.422 21.0156C 383.859 20.4531 384.125 19.724 384.219 18.8281L 388.766 18.8281C 388.661 20.1823 388.172 21.4635 387.297 22.6719C 385.901 24.6198 383.833 25.5938 381.094 25.5938C 378.354 25.5938 376.339 24.7812 375.047 23.1562C 373.755 21.5312 373.109 19.4219 373.109 16.8281C 373.109 13.901 373.823 11.625 375.25 10C 376.677 8.375 378.646 7.5625 381.156 7.5625C 383.292 7.5625 385.036 8.04167 386.391 9C 387.755 9.95833 388.562 11.651 388.812 14.0781L 384.25 14.0781ZM 390.141 11.2969L 390.141 8.125L 392.516 8.125L 392.516 3.375L 396.922 3.375L 396.922 8.125L 399.688 8.125L 399.688 11.2969L 396.922 11.2969L 396.922 20.2969C 396.922 20.9948 397.01 21.4323 397.188 21.6094C 397.365 21.776 397.906 21.8594 398.812 21.8594C 398.948 21.8594 399.089 21.8594 399.234 21.8594C 399.391 21.849 399.542 21.8385 399.688 21.8281L 399.688 25.1562L 397.578 25.2344C 395.474 25.3073 394.036 24.9427 393.266 24.1406C 392.766 23.6302 392.516 22.8438 392.516 21.7812L 392.516 11.2969L 390.141 11.2969ZM 411.797 7.5625C 411.88 7.5625 411.948 7.56771 412 7.57812C 412.062 7.57812 412.193 7.58333 412.391 7.59375L 412.391 12.1562C 412.109 12.125 411.859 12.1042 411.641 12.0938C 411.422 12.0833 411.245 12.0781 411.109 12.0781C 409.318 12.0781 408.115 12.6615 407.5 13.8281C 407.156 14.4844 406.984 15.4948 406.984 16.8594L 406.984 25L 402.5 25L 402.5 7.96875L 406.75 7.96875L 406.75 10.9375C 407.438 9.80208 408.036 9.02604 408.547 8.60938C 409.38 7.91146 410.464 7.5625 411.797 7.5625ZM 422.656 21.8594C 423.958 21.8594 424.958 21.3958 425.656 20.4688C 426.354 19.5417 426.703 18.224 426.703 16.5156C 426.703 14.8073 426.354 13.4948 425.656 12.5781C 424.958 11.651 423.958 11.1875 422.656 11.1875C 421.354 11.1875 420.349 11.651 419.641 12.5781C 418.943 13.4948 418.594 14.8073 418.594 16.5156C 418.594 18.224 418.943 19.5417 419.641 20.4688C 420.349 21.3958 421.354 21.8594 422.656 21.8594ZM 431.375 16.5156C 431.375 19.0156 430.656 21.1562 429.219 22.9375C 427.781 24.7083 425.599 25.5938 422.672 25.5938C 419.745 25.5938 417.562 24.7083 416.125 22.9375C 414.688 21.1562 413.969 19.0156 413.969 16.5156C 413.969 14.0573 414.688 11.9271 416.125 10.125C 417.562 8.32292 419.745 7.42188 422.672 7.42188C 425.599 7.42188 427.781 8.32292 429.219 10.125C 430.656 11.9271 431.375 14.0573 431.375 16.5156ZM 444.016 7.5625C 445.776 7.5625 447.214 8.02604 448.328 8.95312C 449.453 9.86979 450.016 11.3958 450.016 13.5312L 450.016 25L 445.453 25L 445.453 14.6406C 445.453 13.7448 445.333 13.0573 445.094 12.5781C 444.656 11.7031 443.823 11.2656 442.594 11.2656C 441.083 11.2656 440.047 11.9062 439.484 13.1875C 439.193 13.8646 439.047 14.7292 439.047 15.7812L 439.047 25L 434.609 25L 434.609 8L 438.906 8L 438.906 10.4844C 439.479 9.60938 440.021 8.97917 440.531 8.59375C 441.448 7.90625 442.609 7.5625 444.016 7.5625ZM 458.719 5.9375L 454.203 5.9375L 454.203 1.82812L 458.719 1.82812L 458.719 5.9375ZM 454.203 7.96875L 458.719 7.96875L 458.719 25L 454.203 25L 454.203 7.96875ZM 473.219 14.0781C 473.135 13.4427 472.922 12.8698 472.578 12.3594C 472.078 11.6719 471.302 11.3281 470.25 11.3281C 468.75 11.3281 467.724 12.0729 467.172 13.5625C 466.88 14.3542 466.734 15.4062 466.734 16.7188C 466.734 17.9688 466.88 18.974 467.172 19.7344C 467.703 21.151 468.703 21.8594 470.172 21.8594C 471.214 21.8594 471.953 21.5781 472.391 21.0156C 472.828 20.4531 473.094 19.724 473.188 18.8281L 477.734 18.8281C 477.63 20.1823 477.141 21.4635 476.266 22.6719C 474.87 24.6198 472.802 25.5938 470.062 25.5938C 467.323 25.5938 465.307 24.7812 464.016 23.1562C 462.724 21.5312 462.078 19.4219 462.078 16.8281C 462.078 13.901 462.792 11.625 464.219 10C 465.646 8.375 467.615 7.5625 470.125 7.5625C 472.26 7.5625 474.005 8.04167 475.359 9C 476.724 9.95833 477.531 11.651 477.781 14.0781L 473.219 14.0781ZM 484.328 19.5625C 484.422 20.3542 484.625 20.9167 484.938 21.25C 485.49 21.8438 486.51 22.1406 488 22.1406C 488.875 22.1406 489.568 22.0104 490.078 21.75C 490.599 21.4896 490.859 21.099 490.859 20.5781C 490.859 20.0781 490.651 19.6979 490.234 19.4375C 489.818 19.1771 488.271 18.7292 485.594 18.0938C 483.667 17.6146 482.307 17.0156 481.516 16.2969C 480.724 15.5885 480.328 14.5677 480.328 13.2344C 480.328 11.6615 480.943 10.3125 482.172 9.1875C 483.411 8.05208 485.151 7.48438 487.391 7.48438C 489.516 7.48438 491.245 7.91146 492.578 8.76562C 493.922 9.60938 494.693 11.0729 494.891 13.1562L 490.438 13.1562C 490.375 12.5833 490.214 12.1302 489.953 11.7969C 489.464 11.1927 488.63 10.8906 487.453 10.8906C 486.484 10.8906 485.792 11.0417 485.375 11.3438C 484.969 11.6458 484.766 12 484.766 12.4062C 484.766 12.9167 484.984 13.2865 485.422 13.5156C 485.859 13.7552 487.406 14.1667 490.062 14.75C 491.833 15.1667 493.161 15.7969 494.047 16.6406C 494.922 17.4948 495.359 18.5625 495.359 19.8438C 495.359 21.5312 494.729 22.9115 493.469 23.9844C 492.219 25.0469 490.281 25.5781 487.656 25.5781C 484.979 25.5781 483 25.0156 481.719 23.8906C 480.448 22.7552 479.812 21.3125 479.812 19.5625L 484.328 19.5625ZM 507.938 1.96875L 512.75 1.96875L 512.75 20.8594L 524.156 20.8594L 524.156 25L 507.938 25L 507.938 1.96875ZM 536.531 16.7188C 536.25 16.8958 535.964 17.0417 535.672 17.1562C 535.391 17.2604 535 17.3594 534.5 17.4531L 533.5 17.6406C 532.562 17.8073 531.891 18.0104 531.484 18.25C 530.797 18.6562 530.453 19.2865 530.453 20.1406C 530.453 20.901 530.661 21.4531 531.078 21.7969C 531.505 22.1302 532.021 22.2969 532.625 22.2969C 533.583 22.2969 534.464 22.0156 535.266 21.4531C 536.078 20.8906 536.5 19.8646 536.531 18.375L 536.531 16.7188ZM 533.828 14.6406C 534.651 14.5365 535.24 14.4062 535.594 14.25C 536.229 13.9792 536.547 13.5573 536.547 12.9844C 536.547 12.2865 536.302 11.8073 535.812 11.5469C 535.333 11.276 534.625 11.1406 533.688 11.1406C 532.635 11.1406 531.891 11.401 531.453 11.9219C 531.141 12.3073 530.932 12.8281 530.828 13.4844L 526.531 13.4844C 526.625 11.9948 527.042 10.7708 527.781 9.8125C 528.958 8.3125 530.979 7.5625 533.844 7.5625C 535.708 7.5625 537.365 7.93229 538.812 8.67188C 540.26 9.41146 540.984 10.8073 540.984 12.8594L 540.984 20.6719C 540.984 21.2135 540.995 21.8698 541.016 22.6406C 541.047 23.224 541.135 23.6198 541.281 23.8281C 541.427 24.0365 541.646 24.2083 541.938 24.3438L 541.938 25L 537.094 25C 536.958 24.6562 536.865 24.3333 536.812 24.0312C 536.76 23.7292 536.719 23.3854 536.688 23C 536.073 23.6667 535.365 24.2344 534.562 24.7031C 533.604 25.2552 532.521 25.5312 531.312 25.5312C 529.771 25.5312 528.495 25.0938 527.484 24.2188C 526.484 23.3333 525.984 22.0833 525.984 20.4688C 525.984 18.375 526.792 16.8594 528.406 15.9219C 529.292 15.4115 530.594 15.0469 532.312 14.8281L 533.828 14.6406ZM 554.156 7.59375C 556.396 7.59375 558.146 8.40104 559.406 10.0156C 560.677 11.6302 561.312 13.7135 561.312 16.2656C 561.312 18.9115 560.688 21.1042 559.438 22.8438C 558.188 24.5833 556.443 25.4531 554.203 25.4531C 552.797 25.4531 551.667 25.1719 550.812 24.6094C 550.302 24.276 549.75 23.6927 549.156 22.8594L 549.156 25L 544.797 25L 544.797 2L 549.234 2L 549.234 10.1875C 549.797 9.39583 550.417 8.79167 551.094 8.375C 551.896 7.85417 552.917 7.59375 554.156 7.59375ZM 553.016 21.7812C 554.161 21.7812 555.052 21.3177 555.688 20.3906C 556.323 19.4635 556.641 18.2448 556.641 16.7344C 556.641 15.526 556.484 14.526 556.172 13.7344C 555.578 12.2344 554.484 11.4844 552.891 11.4844C 551.276 11.4844 550.167 12.2188 549.562 13.6875C 549.25 14.4688 549.094 15.4792 549.094 16.7188C 549.094 18.1771 549.417 19.3854 550.062 20.3438C 550.708 21.3021 551.693 21.7812 553.016 21.7812Z"/>
</defs>
</svg>
